<svg width="60" xmlns="http://www.w3.org/2000/svg" version="1.1" viewBox="34.29 7 39.01 40.67"><path d="" stroke="none" fill="#ff4c9c" fill-rule="evenodd"/><path d="M 42.638 8.750 C 40.550 16.115, 33.888 47.222, 34.310 47.643 C 34.909 48.243, 72.071 37.205, 73.284 36.067 C 73.977 35.417, 45.029 7, 43.673 7 C 43.377 7, 42.911 7.787, 42.638 8.750 M 46.426 22.704 C 46.077 24.242, 45.138 28.137, 44.340 31.361 C 43.541 34.584, 43.121 37.455, 43.407 37.740 C 43.692 38.025, 47.828 37.042, 52.598 35.555 L 61.270 32.851 56.885 28.344 C 54.473 25.865, 51.276 22.953, 49.781 21.872 L 47.061 19.907 46.426 22.704" stroke="none" fill="#34C0E8" fill-rule="evenodd"/></svg>