<?xml version="1.0" encoding="utf-8"?>
<!-- Generator: Adobe Illustrator 22.0.1, SVG Export Plug-In . SVG Version: 6.00 Build 0)  -->
<svg version="1.1" id="Layer_1" xmlns="http://www.w3.org/2000/svg" xmlns:xlink="http://www.w3.org/1999/xlink" x="0px" y="0px"
	 viewBox="0 0 1600 932" style="enable-background:new 0 0 1600 932;" xml:space="preserve">
<style type="text/css">
	.st0{fill:#EDF5FB;}
	.st1{fill:#D7E9F2;}
	.st2{fill:#34C0E8;}
	.st3{fill:#B1EEFF;}
	.st4{fill:#7164F2;}
	.st5{fill:#D5E6F3;}
	.st6{fill:#FBFDFE;}
	.st7{fill:#FCFDFE;}
	.st8{fill:#FDFDFE;}
	.st9{fill:#F9FBFD;}
	.st10{fill:#FCFEFE;}
	.st11{fill:#F9FCFD;}
	.st12{fill:#DEFFFA;}
	.st13{fill:#FDFEFE;}
	.st14{fill:#ECFFFC;}
	.st15{fill:#E5FEFB;}
	.st16{fill:#FBFCFD;}
	.st17{fill:#E1FEFB;}
	.st18{fill:#FAFCFD;}
	.st19{fill:#E4FEFB;}
	.st20{fill:#E7FFFB;}
	.st21{fill:#EDFFFC;}
	.st22{fill:#FBFDFD;}
	.st23{fill:#E8FFFC;}
	.st24{fill:#FAFDFD;}
	.st25{fill:#E5FFFB;}
	.st26{fill:#E6FFFB;}
	.st27{fill:#E4FFFB;}
	.st28{fill:#F5FEFD;}
	.st29{fill:#EBFFFC;}
	.st30{fill:#EAFFFC;}
	.st31{fill:#EAFEFC;}
	.st32{fill:#FEFEFE;}
	.st33{fill:#DAFEFA;}
	.st34{fill:#F1FFFD;}
	.st35{fill:#F9FEFE;}
</style>
<path class="st0" d="M0,0c528,0,1056,0,1600,0c0,248.8,0,497.6,0,754c-37.8,0-37.8,0-51.8-0.7c-2.7-0.1-5.4-0.3-8.2-0.4
	c-8.3-0.4-16.5-0.8-24.8-1.3c-129.2-9.6-129.2-9.6-245.8,36.1c-1.5,1.4-3,2.9-4.4,4.4c-0.6,0.6-1.2,1.2-1.8,1.8
	c-7.2,7.8-11.3,17.7-11.2,28.3c0.3,4.3,0.7,8.2,2,12.3c2.8,10.7,2,22.8-3,32.7c-0.6,1.3-0.6,1.3-1.3,2.5
	c-14.2,25.6-43.9,38.3-70.7,46.3c-30.9,8.8-63,13.1-95,15.2c-1.3,0.1-2.5,0.2-3.8,0.3c-13.9,0.9-27.7,0.9-41.6,0.9
	c-2.6,0-5.1,0-7.7,0c-6.8,0-13.6,0-20.4,0c-4.2,0-8.5,0-12.7,0c-44.7,0-89.3-0.3-134-1.1c-3.6-0.1-7.3-0.1-10.9-0.2
	c-128.2-2-128.2-2-150.6-22.5c-7.6-8.1-9.4-18.3-9.4-29c0-1.7,0-3.4-0.1-5.1c0-2.7-0.1-5.3-0.1-8c-0.1-12.6-0.5-23.9-8.7-34.2
	c-0.4-0.6-0.9-1.1-1.3-1.7c-13.6-15.5-38.1-17.7-57.2-19.1c-25.9-1.6-52,0.8-77.9,2.5c-9.8,0.7-19.7,1.3-29.5,2
	c-4.5,0.3-9.1,0.6-13.6,0.9c-7.1,0.5-14.3,0.9-21.5,1.4c-1.4,0.1-1.4,0.1-2.9,0.2c-21.3,1.2-42.6,1-64,1.1c-4.3,0-8.7,0-13,0
	c-125.6,0.6-125.6,0.6-162.1-24.3c-0.9-0.6-1.9-1.2-2.8-1.8c-4.2-4.3-7.4-10.2-7.7-16.3c1.1-8.7,4.8-15.8,8.9-23.5
	c4.2-8.8,5.4-18.2,2.2-27.6c-6.5-14.1-20.3-21.2-34.2-26.7c-50.3-17.9-105.7-19.6-158.5-22.1c-11.5-0.5-23-1.2-34.4-2.1
	c-1-0.1-2-0.2-3-0.2c-4-0.3-7.6-0.8-11.4-1.7C0,450.9,0,228.8,0,0z"/>
<path class="st1" d="M1207,0c129.7,0,259.4,0,393,0c0,248.8,0,497.6,0,754c-37.8,0-37.8,0-51.8-0.7c-2.7-0.1-5.4-0.3-8.2-0.4
	c-8.3-0.4-16.5-0.8-24.8-1.3c-129.2-9.6-129.2-9.6-245.8,36.1c-1.5,1.4-3,2.9-4.4,4.4c-0.6,0.6-1.2,1.2-1.8,1.8
	c-7.2,7.8-11.3,17.7-11.2,28.3c0.3,4.3,0.7,8.2,2,12.3c2.8,10.7,2,22.8-3,32.7c-0.6,1.3-0.6,1.3-1.3,2.5
	c-14.2,25.6-43.9,38.3-70.7,46.3c-30.9,8.8-63,13.1-95,15.2c-1.3,0.1-2.5,0.2-3.8,0.3c-13.9,0.9-27.7,0.9-41.6,0.9
	c-2.6,0-5.1,0-7.7,0c-6.8,0-13.6,0-20.4,0c-4.2,0-8.5,0-12.7,0c-44.7,0-89.3-0.3-134-1.1c-3.6-0.1-7.3-0.1-10.9-0.2
	c-128.2-2-128.2-2-150.6-22.5c-7.6-8.1-9.4-18.3-9.4-29c0-1.7,0-3.4-0.1-5.1c0-2.7-0.1-5.3-0.1-8c-0.1-12.6-0.5-23.9-8.7-34.2
	c-0.7-0.8-0.7-0.8-1.3-1.7c-14.1-16-39.8-18-59.6-19.2c-2-0.1-2-0.1-4-0.2c-1.4-0.1-2.8-0.2-4.1-0.3c-3.3-0.2-6.7-0.4-10-0.6
	c0.4-0.4,0.8-0.9,1.2-1.3c3.1-3.6,6.1-7.2,9.1-10.9c3.9-4.8,8.1-9.4,12.3-14c2.4-2.7,4.7-5.4,6.9-8.2c3.7-4.5,7.5-8.8,11.5-13.1
	c3.8-4.1,7.3-8.4,10.8-12.8c2.3-2.8,4.8-5.5,7.2-8.2c3.3-3.6,6.4-7.2,9.5-11c3.8-4.8,7.9-9.3,12-13.8c2.4-2.7,4.7-5.4,6.9-8.2
	c3.7-4.5,7.5-8.8,11.5-13.1c3.8-4.1,7.3-8.4,10.8-12.8c3.1-3.8,6.5-7.4,9.8-11c2.4-2.7,4.7-5.4,6.9-8.2c3.7-4.5,7.5-8.8,11.5-13.1
	c3.8-4.1,7.3-8.4,10.8-12.8c3.1-3.8,6.5-7.4,9.8-11c2.4-2.7,4.7-5.4,6.9-8.2c3.7-4.5,7.5-8.8,11.5-13.1c3.8-4.1,7.3-8.4,10.8-12.8
	c3.1-3.8,6.5-7.4,9.8-11c2.4-2.7,4.7-5.4,6.9-8.2c3.7-4.5,7.5-8.8,11.5-13.1c3.8-4.1,7.3-8.4,10.8-12.8c3.1-3.8,6.5-7.4,9.8-11
	c2.4-2.7,4.7-5.4,6.9-8.2c3.7-4.5,7.5-8.8,11.5-13.1c3.8-4.1,7.3-8.4,10.8-12.8c3.1-3.8,6.5-7.4,9.8-11c2.4-2.7,4.7-5.4,6.9-8.2
	c3.7-4.5,7.5-8.8,11.5-13.1c3.8-4.1,7.3-8.4,10.8-12.8c3.1-3.8,6.5-7.4,9.8-11c2.4-2.7,4.7-5.4,6.9-8.2c3.7-4.5,7.5-8.8,11.5-13.1
	c3.8-4.1,7.3-8.4,10.8-12.8c3.1-3.8,6.5-7.4,9.8-11c2.4-2.7,4.7-5.4,6.9-8.2c3.7-4.5,7.5-8.8,11.5-13.1c3.8-4.1,7.3-8.4,10.8-12.8
	c3.1-3.8,6.5-7.4,9.8-11c2.4-2.7,4.7-5.4,6.9-8.2c3.7-4.5,7.5-8.8,11.5-13.1c3.8-4.1,7.3-8.4,10.8-12.8c3.1-3.8,6.5-7.4,9.8-11
	c2.4-2.7,4.7-5.4,6.9-8.2c3.7-4.5,7.5-8.8,11.5-13.1c3.8-4.1,7.3-8.4,10.8-12.8c3.1-3.8,6.5-7.4,9.8-11c2.4-2.7,4.7-5.4,6.9-8.2
	c3.7-4.5,7.5-8.8,11.5-13.1c3.8-4.1,7.3-8.4,10.8-12.8c3.1-3.8,6.5-7.4,9.8-11c2.4-2.7,4.7-5.4,6.9-8.2c3.2-3.9,6.5-7.7,9.9-11.4
	c6-6.4,11.3-13.2,16.6-20.2c0.7-0.9,0.7-0.9,1.4-1.8c7.6-10,14.4-20.3,20.6-31.2c0.7-1.2,0.7-1.2,1.4-2.4
	C1197.4,100.6,1205.3,52.2,1207,0z"/>
<path class="st2" d="M1599,53c0.3,0,0.7,0,1,0c0,231.3,0,462.7,0,701c-37.8,0-37.8,0-51.8-0.7c-2.7-0.1-5.4-0.3-8.2-0.4
	c-8.3-0.4-16.5-0.8-24.8-1.3c-129.2-9.6-129.2-9.6-245.8,36.1c-1.5,1.4-3,2.9-4.4,4.4c-0.6,0.6-1.2,1.2-1.8,1.8
	c-7.2,7.8-11.3,17.7-11.2,28.3c0.3,4.3,0.7,8.2,2,12.3c2.8,10.7,2,22.8-3,32.7c-0.6,1.3-0.6,1.3-1.3,2.5
	c-14.2,25.6-43.9,38.3-70.7,46.3c-30.9,8.8-63,13.1-95,15.2c-1.9,0.1-1.9,0.1-3.8,0.3c-13.9,0.9-27.7,0.9-41.6,0.9
	c-2.6,0-5.1,0-7.7,0c-6.8,0-13.6,0-20.4,0c-4.2,0-8.4,0-12.6,0c-34.2,0-68.4-0.1-102.6-0.5c-2.5,0-5-0.1-7.5-0.1
	c-3.9,0-7.8-0.1-11.6-0.2c-2,0-4.1-0.1-6.1-0.1c-6.4-0.1-12.7-0.4-19-1.3c2-3.6,4.3-6.6,7.1-9.6c3.2-3.4,6.2-6.9,9.1-10.6
	c5.2-6.4,10.7-12.7,16.1-18.9c2.6-3,5.1-6,7.7-9c0.5-0.6,1-1.1,1.5-1.7c1-1.2,2-2.3,3-3.5c2-2.3,4-4.7,6-7c1-1.2,2-2.3,3-3.5
	c2.5-3,5.1-5.9,7.6-8.9c4.6-5.3,9.2-10.7,13.6-16.1c3.6-4.4,7.3-8.6,11.1-12.7c2.2-2.5,4.4-5.1,6.5-7.7c5.2-6.4,10.7-12.7,16.1-18.9
	c2.6-3,5.1-6,7.7-9c0.5-0.6,1-1.1,1.5-1.7c1-1.2,2-2.3,3-3.5c1.5-1.8,3-3.5,4.5-5.3c4.8-5.6,9.7-11.3,14.5-17
	c5.3-6.3,10.6-12.5,16-18.7c3-3.5,6-7,9-10.5c2.5-3,5.1-5.9,7.6-8.9c4.6-5.3,9.2-10.7,13.6-16.1c3.6-4.4,7.3-8.6,11.1-12.7
	c2.2-2.5,4.4-5.1,6.5-7.7c5.2-6.4,10.7-12.7,16.1-18.9c2.6-3,5.1-6,7.7-9c0.5-0.6,1-1.1,1.5-1.7c1-1.2,2-2.3,3-3.5
	c1.5-1.8,3-3.5,4.5-5.3c4.8-5.6,9.7-11.3,14.5-17c5.3-6.3,10.6-12.5,16-18.7c2.5-2.9,5-5.8,7.5-8.8c3-3.5,6-7,9-10.5
	c4.8-5.6,9.7-11.3,14.5-17c5.3-6.3,10.6-12.5,16-18.7c3-3.5,6-7,9-10.5c2.5-3,5.1-5.9,7.6-8.9c4.6-5.3,9.2-10.7,13.6-16.1
	c3.6-4.4,7.3-8.6,11.1-12.7c2.2-2.5,4.4-5.1,6.5-7.7c5.2-6.4,10.7-12.7,16.1-18.9c2.6-3,5.1-6,7.7-9c0.5-0.6,1-1.1,1.5-1.7
	c1-1.2,2-2.3,3-3.5c1.5-1.8,3-3.5,4.5-5.3c4.8-5.6,9.7-11.3,14.5-17c5.3-6.3,10.6-12.5,16-18.7c2.5-2.9,5-5.8,7.5-8.8
	c3-3.5,6-7,9-10.5c4.8-5.6,9.7-11.3,14.5-17c5.3-6.3,10.6-12.5,16-18.7c3-3.5,6-7,9-10.5c2.5-3,5.1-5.9,7.6-8.9
	c4.6-5.3,9.2-10.7,13.6-16.1c3.6-4.4,7.3-8.6,11.1-12.7c2.2-2.5,4.4-5.1,6.5-7.7c5.2-6.4,10.7-12.7,16.1-18.9c2.6-3,5.1-6,7.7-9
	c0.5-0.6,1-1.1,1.5-1.7c1-1.2,2-2.3,3-3.5c1.5-1.8,3-3.5,4.5-5.3c4.8-5.6,9.7-11.3,14.5-17c5.3-6.3,10.6-12.5,16-18.7
	c2.5-2.9,5-5.8,7.5-8.8c3-3.5,6-7,9-10.5c4.8-5.6,9.7-11.3,14.5-17c5.3-6.3,10.6-12.5,16-18.7c3-3.5,6-7,9-10.5
	c2.5-3,5.1-5.9,7.6-8.9c4.6-5.3,9.2-10.7,13.6-16.1c3.5-4.4,7.3-8.6,11.1-12.7c2.3-2.6,4.5-5.3,6.8-8c2.9-3.6,5.9-7.1,9-10.5
	c3-3.3,5.9-6.7,8.8-10.2c5.2-6.4,10.7-12.7,16.1-18.9c4.1-4.7,8.1-9.4,12.1-14.1c1.5-1.8,3.1-3.6,4.6-5.3
	c5.5-6.4,10.9-12.8,16.2-19.3C1597,55,1597,55,1599,53z"/>
<path class="st1" d="M0,0c330,0,660,0,1000,0c-3.8,5.1-7.6,10.1-11.8,14.9c-0.5,0.6-1,1.2-1.6,1.8c-3.1,3.5-6.2,7-9.3,10.5
	c-3,3.3-5.9,6.7-8.8,10.3c-3.9,4.8-7.9,9.3-12.1,13.8c-2.4,2.7-4.7,5.4-7,8.3c-3.9,4.8-8,9.4-12.2,14c-2,2.1-3.9,4.3-5.8,6.5
	c-7.1,8.2-14.2,16.2-22.6,23.1c-1.1,1-2.3,1.9-3.4,2.9c-21.6,18.3-46.7,32-73.3,41.3c-2,0.7-3.9,1.4-5.9,2.2
	c-8.7,3.2-17.7,5-26.8,6.9c-0.7,0.1-1.3,0.3-2,0.4c-10.5,2.1-20.6,3.5-31.3,3.5c-0.9,0-1.8,0-2.7,0c-1.9,0-3.7,0-5.6,0
	c-2.8,0-5.7,0-8.5,0c-9.4,0-18.3-0.3-27.5-2.2c-1.8-0.3-3.5-0.5-5.3-0.8c-20.8-3.2-40.8-9-59.7-18.2c-2-1-4-1.9-6-2.8
	c-31.1-14.7-31.1-14.7-38-25.1c-1.7-1-3.4-1.9-5.1-2.8c-4.3-2.6-8.3-5.2-9.9-10c0-1.1,0-1.1-0.1-2.1c-0.7-0.1-1.4-0.1-2.2-0.2
	c-3.7-1-5.5-2.8-8.2-5.5c-0.9-0.9-1.8-1.7-2.7-2.6c-1.9-2.6-1.9-2.6-1.7-5.5c0.4-1.1,0.4-1.1,0.8-2.2c-1.7,0.3-3.3,0.7-5,1
	c-1.7-1.9-3.3-3.8-4.9-5.8c-0.5-0.5-0.9-1.1-1.4-1.6c-3.5-4.2-3.5-4.2-4.1-6.8c-0.4-2.1-0.4-2.1-2.7-3.5c-4-3.4-6.4-7.5-9.1-11.9
	c-0.8-1.3-0.8-1.3-1.7-2.6c-4-6.4-4-6.4-4-9.8c0.7-0.3,1.3-0.7,2-1c0-1,0-2,0-3c-1.7,0.3-3.3,0.7-5,1c-2-4-4-7.9-6-12
	c-6,4.8-11,10.2-16,16c-0.6,0.6-1.1,1.3-1.7,1.9c-2.7,3.1-5.4,6.2-8.1,9.3c-5.3,6.3-10.7,12.5-16.2,18.6c-1.8,2-3.6,4.1-5.3,6.2
	c-2.6,3-2.6,3-5.6,5c-1,1.7-2,3.3-3,5c-1.3,1.6-2.6,3.2-3.9,4.8c-0.7,0.8-1.3,1.6-2,2.4c-2,1.9-2,1.9-4.2,2.3
	c-0.6,0.2-1.2,0.4-1.9,0.6c-0.7,2-1.4,4-2,6c-1.9,2.8-1.9,2.8-4.1,5.4c-0.7,0.9-1.4,1.7-2.2,2.6c-0.6,0.7-1.1,1.3-1.7,2
	c-1.6-0.3-3.3-0.7-5-1c0.1,0.8,0.2,1.7,0.3,2.6c-0.5,4.8-2.7,6.9-5.8,10.3c-0.5,0.6-1,1.2-1.6,1.8c-1.3,1.5-2.6,2.9-3.9,4.3
	c-0.3-1.3-0.7-2.6-1-4c-1.3,0.3-2.6,0.7-4,1c0.8,3.1,0.8,3.1,3,5c-7.8,9.1-15.5,18.1-23.4,27.1c-2.7,3.1-5.4,6.3-8.1,9.4
	c-1.1,1.3-2.2,2.5-3.3,3.8c-0.5,0.6-1.1,1.2-1.6,1.9C356,236,302.4,297.9,78.1,556.6c-1.1,1.2-2.2,2.5-3.2,3.7
	c-2.7,3.2-5.5,6.3-8.2,9.4c-2.7,3.1-5.4,6.3-8.1,9.4c-1.4,1.7-2.9,3.3-4.3,5C31.4,610.4,14.5,640.7,2,673c-0.7,0-1.3,0-2,0
	C0,450.9,0,228.8,0,0z"/>
<path class="st3" d="M533,0c154.1,0,308.2,0,467,0c-3.8,5.1-7.6,10.1-11.8,14.9c-0.5,0.6-1,1.2-1.6,1.8c-3.1,3.5-6.2,7-9.3,10.5
	c-3,3.3-5.9,6.7-8.8,10.3c-3.9,4.8-7.9,9.3-12.1,13.8c-2.4,2.7-4.7,5.4-7,8.3c-3.9,4.8-8,9.4-12.2,14c-2,2.1-3.9,4.3-5.8,6.5
	c-7.1,8.2-14.2,16.2-22.6,23.1c-1.1,1-2.3,1.9-3.4,2.9c-21.6,18.3-46.7,32-73.3,41.3c-2,0.7-3.9,1.4-5.9,2.2
	c-8.7,3.2-17.7,5-26.8,6.9c-0.7,0.1-1.3,0.3-2,0.4c-10.5,2.1-20.6,3.5-31.3,3.5c-0.9,0-1.8,0-2.7,0c-1.9,0-3.7,0-5.6,0
	c-2.8,0-5.7,0-8.5,0c-9.4,0-18.3-0.3-27.5-2.2c-1.8-0.3-3.5-0.5-5.3-0.8c-20.8-3.2-40.8-9-59.7-18.2c-2-1-4-1.9-6-2.8
	c-31.1-14.7-31.1-14.7-38-25.1c-1.7-1-3.4-1.9-5.1-2.8c-4.3-2.6-8.3-5.2-9.9-10c0-0.7,0-1.4-0.1-2.1c-0.7-0.1-1.4-0.1-2.2-0.2
	c-3.7-1-5.5-2.8-8.2-5.5c-0.9-0.9-1.8-1.7-2.7-2.6c-1.9-2.6-1.9-2.6-1.7-5.5c0.3-0.7,0.5-1.4,0.8-2.2c-2.5,0.5-2.5,0.5-5,1
	c-1.7-1.9-3.3-3.8-4.9-5.8c-0.5-0.5-0.9-1.1-1.4-1.6c-3.5-4.2-3.5-4.2-4.1-6.8c-0.4-2.1-0.4-2.1-2.7-3.5c-4-3.4-6.4-7.5-9.1-11.9
	c-0.5-0.9-1.1-1.7-1.7-2.6c-4-6.4-4-6.4-4-9.8c1-0.5,1-0.5,2-1c0-1,0-2,0-3c-2.5,0.5-2.5,0.5-5,1c-1.6-3.3-3.3-6.7-4.9-10.1
	c-0.7-1.4-0.7-1.4-1.4-2.9c-2.4-5-4.4-9.7-5.7-15.1c0.7,0,1.3,0,2,0c-0.3-2-0.3-2-1-4c-1-0.3-2-0.7-3-1C533.7,2,533.3,1,533,0z"/>
<path class="st4" d="M1599,407c0.3,0,0.7,0,1,0c0,114.5,0,229,0,347c-37.8,0-37.8,0-51.8-0.7c-2.7-0.1-5.4-0.3-8.2-0.4
	c-8.3-0.4-16.5-0.8-24.8-1.3c-51.4-2.9-103-3.2-154.2,3.5c-6,0.8-12,1.4-18.1,1.9c-3.9-13.2-1.9-31,2-44c0.3-1,0.5-2.1,0.8-3.1
	c6.7-24.4,22.2-42.2,39-60.4c2.5-2.8,5-5.6,7.5-8.4c2-2.3,4.1-4.6,6.1-6.8c3.1-3.4,6-6.8,8.8-10.4c4.3-5.3,9-10.3,13.7-15.3
	c3.4-3.6,6.6-7.2,9.7-11c4.8-6,10-11.5,15.3-17.1c4-4.2,7.7-8.5,11.5-12.9c6.5-7.7,13.2-15.2,20.1-22.6c4.2-4.6,8.3-9.3,12.3-14
	c5.6-6.5,11.2-12.9,17-19.2c3-3.3,5.9-6.6,8.7-10.1c4.8-6,10.1-11.6,15.4-17.2c2.9-3.1,5.8-6.3,8.6-9.6c2-2.3,4-4.5,6-6.7
	c3.1-3.4,6-6.8,8.8-10.4c4.9-6.1,10.2-11.7,15.6-17.4c3.5-3.7,6.9-7.5,10.2-11.4c0.9-1.1,1.9-2.2,2.8-3.3c1.6-1.8,3.2-3.7,4.7-5.5
	c1-1.2,2-2.4,3-3.5c1.2-1.4,2.5-2.9,3.7-4.3c0.6-0.7,1.3-1.4,1.9-2.2c0.5-0.6,1.1-1.2,1.6-1.9C1598.2,407.8,1598.6,407.4,1599,407z"
	/>
<path class="st5" d="M1600,743c0,3.6,0,7.3,0,11c-3.3,0-6.6,0-10,0C1598.1,743,1598.1,743,1600,743z"/>
<path class="st6" d="M489,171c2,0.5,2,0.5,4,1c-0.3,1.6-0.7,3.3-1,5c-1.3-0.3-2.6-0.7-4-1C488.3,174.4,488.7,172.7,489,171z"/>
<path class="st6" d="M520,171c1.3,0.7,2.6,1.3,4,2c-0.7,1.3-1.3,2.6-2,4c-1.3-0.7-2.6-1.3-4-2C518.7,173.7,519.3,172.4,520,171z"/>
<path class="st7" d="M490,125c1,0.3,2,0.7,3,1c-0.3,1.7-0.7,3.3-1,5c-1.3-0.3-2.6-0.7-4-1c0-1.3,0-2.6,0-4
	C488.7,125.7,489.3,125.3,490,125z"/>
<path class="st7" d="M519,187c1.3,0,2.6,0,4,0c0.3,1,0.7,2,1,3c-0.7,0.7-1.3,1.3-2,2c-2.1-0.4-2.1-0.4-4-1
	C518.3,189.7,518.7,188.4,519,187z"/>
<path class="st8" d="M504,187c1.3,0,2.6,0,4,0c-0.3,1.6-0.7,3.3-1,5c-1.3-0.3-2.6-0.7-4-1C503.3,189.7,503.7,188.4,504,187z"/>
<path class="st7" d="M535,171c1.3,0.7,2.6,1.3,4,2c-0.7,1.3-1.3,2.6-2,4c-1-0.3-2-0.7-3-1C534.3,174.4,534.7,172.7,535,171z"/>
<path class="st7" d="M505,171c1,0.3,2,0.7,3,1c-0.3,1.6-0.7,3.3-1,5c-1.3-0.7-2.6-1.3-4-2C503.7,173.7,504.3,172.4,505,171z"/>
<path class="st7" d="M580,156c2,0.5,2,0.5,4,1c0,1.3,0,2.6,0,4c-1.7-0.3-3.3-0.7-5-1C579.3,158.7,579.7,157.4,580,156z"/>
<path class="st7" d="M550,156c2,0.5,2,0.5,4,1c-0.3,1.3-0.7,2.6-1,4c-1.3,0-2.6,0-4,0C549.3,159.4,549.7,157.7,550,156z"/>
<path class="st7" d="M519,156c1.9,0.4,1.9,0.4,4,1c0.3,0.7,0.7,1.3,1,2c-0.3,0.7-0.7,1.3-1,2c-1.7-0.3-3.3-0.7-5-1
	C518.3,158.7,518.7,157.4,519,156z"/>
<path class="st8" d="M504,156c2,0.5,2,0.5,4,1c0,1.3,0,2.6,0,4c-1.6-0.3-3.3-0.7-5-1C503.3,158.7,503.7,157.4,504,156z"/>
<path class="st7" d="M474,156c2,0.5,2,0.5,4,1c-0.3,1.3-0.7,2.6-1,4c-1.3,0-2.6,0-4,0C473.3,159.4,473.7,157.7,474,156z"/>
<path class="st7" d="M534,141c2.5,0.5,2.5,0.5,5,1c-0.3,1.3-0.7,2.6-1,4c-1.3-0.3-2.6-0.7-4-1C534,143.7,534,142.4,534,141z"/>
<path class="st7" d="M519,141c1.3,0,2.6,0,4,0c-0.3,1.6-0.7,3.3-1,5c-1.3-0.3-2.6-0.7-4-1C518.3,143.7,518.7,142.4,519,141z"/>
<path class="st7" d="M505,125c1,0.3,2,0.7,3,1c-0.3,1.7-0.7,3.3-1,5c-1.3-0.3-2.6-0.7-4-1C503.9,126.1,503.9,126.1,505,125z"/>
<path class="st9" d="M443,110c2,0.5,2,0.5,4,1c0,1.3,0,2.6,0,4c-1.6-0.3-3.3-0.7-5-1C442.3,112.7,442.7,111.4,443,110z"/>
<path class="st7" d="M504,110c2,0.5,2,0.5,4,1c0,1.3,0,2.6,0,4c-1.6-0.3-3.3-0.7-5-1C503.3,112.7,503.7,111.4,504,110z"/>
<path class="st10" d="M489,110c2,0.5,2,0.5,4,1c-0.3,1.3-0.7,2.6-1,4c-1.3,0-2.6,0-4,0C488.3,113.3,488.7,111.7,489,110z"/>
<path class="st7" d="M474,110c2,0.5,2,0.5,4,1c-0.3,1.3-0.7,2.6-1,4c-1.3,0-2.6,0-4,0C473.3,113.3,473.7,111.7,474,110z"/>
<path class="st11" d="M473,80c2.5,0.5,2.5,0.5,5,1c-0.3,1.3-0.7,2.6-1,4c-1.3-0.3-2.6-0.7-4-1C473,82.7,473,81.4,473,80z"/>
<path class="st12" d="M580,34c1.3,0,2.6,0,4,0c-0.3,1.7-0.7,3.3-1,5c-1.3-0.3-2.6-0.7-4-1C579.3,36.7,579.7,35.4,580,34z"/>
<path class="st11" d="M473,34c2.5,0.5,2.5,0.5,5,1c-0.3,1.3-0.7,2.6-1,4c-1.3-0.3-2.6-0.7-4-1C473,36.7,473,35.4,473,34z"/>
<path class="st13" d="M550,187c2,0.5,2,0.5,4,1c-0.3,1.3-0.7,2.6-1,4c-1.3-0.3-2.6-0.7-4-1C549.3,189.7,549.7,188.4,550,187z"/>
<path class="st7" d="M565,172c1.3,0,2.6,0,4,0c-0.3,1.6-0.7,3.3-1,5c-1.3-0.3-2.6-0.7-4-1C564.3,174.7,564.7,173.4,565,172z"/>
<path class="st7" d="M474,171c1.3,0.7,2.6,1.3,4,2c-0.7,1.3-1.3,2.6-2,4c-1-0.3-2-0.7-3-1C473.3,174.4,473.7,172.7,474,171z"/>
<path class="st13" d="M565,156c2,0.5,2,0.5,4,1c-0.3,1.3-0.7,2.6-1,4c-1.3-0.3-2.6-0.7-4-1C564.3,158.7,564.7,157.4,565,156z"/>
<path class="st13" d="M489,156c2,0.5,2,0.5,4,1c-0.3,1.3-0.7,2.6-1,4c-1.3-0.3-2.6-0.7-4-1C488.3,158.7,488.7,157.4,489,156z"/>
<path class="st13" d="M565,141c2,0.5,2,0.5,4,1c-0.3,1.3-0.7,2.6-1,4c-1.3-0.3-2.6-0.7-4-1C564.3,143.7,564.7,142.4,565,141z"/>
<path class="st13" d="M550,141c2,0.5,2,0.5,4,1c-0.3,1.3-0.7,2.6-1,4c-1.3-0.3-2.6-0.7-4-1C549.3,143.7,549.7,142.4,550,141z"/>
<path class="st13" d="M504,141c2,0.5,2,0.5,4,1c-0.3,1.3-0.7,2.6-1,4c-1.3-0.3-2.6-0.7-4-1C503.3,143.7,503.7,142.4,504,141z"/>
<path class="st13" d="M489,141c2,0.5,2,0.5,4,1c-0.3,1.3-0.7,2.6-1,4c-1.3-0.3-2.6-0.7-4-1C488.3,143.7,488.7,142.4,489,141z"/>
<path class="st13" d="M474,141c2,0.5,2,0.5,4,1c-0.3,1.3-0.7,2.6-1,4c-1.3-0.3-2.6-0.7-4-1C473.3,143.7,473.7,142.4,474,141z"/>
<path class="st7" d="M458,126c1.7,0.3,3.3,0.6,5,1c-0.7,1.3-1.3,2.6-2,4c-1-0.3-2-0.7-3-1c-0.3-1-0.7-2-1-3
	C457.3,126.7,457.7,126.3,458,126z"/>
<path class="st14" d="M626,95c2,0.5,2,0.5,4,1c-0.3,1.3-0.7,2.6-1,4c-1.3-0.3-2.6-0.7-4-1C625.3,97.7,625.7,96.4,626,95z"/>
<path class="st15" d="M611,95c2,0.5,2,0.5,4,1c-0.3,1.3-0.7,2.6-1,4c-1.3-0.3-2.6-0.7-4-1C610.3,97.7,610.7,96.4,611,95z"/>
<path class="st10" d="M565,95c2,0.5,2,0.5,4,1c-0.3,1.3-0.7,2.6-1,4c-1.3-0.3-2.6-0.7-4-1C564.3,97.7,564.7,96.4,565,95z"/>
<path class="st10" d="M550,95c2,0.5,2,0.5,4,1c-0.3,1.3-0.7,2.6-1,4c-1.3-0.3-2.6-0.7-4-1C549.3,97.7,549.7,96.4,550,95z"/>
<path class="st13" d="M504,95c2,0.5,2,0.5,4,1c-0.3,1.3-0.7,2.6-1,4c-1.3-0.3-2.6-0.7-4-1C503.3,97.7,503.7,96.4,504,95z"/>
<path class="st13" d="M489,95c2,0.5,2,0.5,4,1c-0.3,1.3-0.7,2.6-1,4c-1.3-0.3-2.6-0.7-4-1C488.3,97.7,488.7,96.4,489,95z"/>
<path class="st8" d="M474,95c2,0.5,2,0.5,4,1c-0.3,1.3-0.7,2.6-1,4c-1.3-0.3-2.6-0.7-4-1C473.3,97.7,473.7,96.4,474,95z"/>
<path class="st16" d="M443,95c2,0.5,2,0.5,4,1c-0.3,1.3-0.7,2.6-1,4c-1.3-0.3-2.6-0.7-4-1C442.3,97.7,442.7,96.4,443,95z"/>
<path class="st17" d="M610,80c2.5,0.5,2.5,0.5,5,1c0,1,0,2,0,3c-1.3,0.3-2.6,0.7-4,1C610.7,83.3,610.3,81.7,610,80z"/>
<path class="st13" d="M489,80c2,0.5,2,0.5,4,1c-0.3,1.3-0.7,2.6-1,4c-1.3-0.3-2.6-0.7-4-1C488.3,82.7,488.7,81.4,489,80z"/>
<path class="st18" d="M443,80c1.3,0,2.6,0,4,0c-0.3,1.7-0.7,3.3-1,5c-1.3-0.3-2.6-0.7-4-1C442.3,82.7,442.7,81.4,443,80z"/>
<path class="st18" d="M489,64c2,0.5,2,0.5,4,1c-0.3,1.3-0.7,2.6-1,4c-1.3-0.3-2.6-0.7-4-1C488.3,66.7,488.7,65.4,489,64z"/>
<path class="st11" d="M474,64c1,0,2,0,3,0c0.3,1.3,0.7,2.6,1,4c-1.6,0.3-3.3,0.7-5,1C473.3,67.3,473.7,65.7,474,64z"/>
<path class="st19" d="M611,49c2,0.5,2,0.5,4,1c-0.3,1.3-0.7,2.6-1,4c-1.3-0.3-2.6-0.7-4-1C610.3,51.7,610.7,50.4,611,49z"/>
<path class="st20" d="M580,49c2,0.5,2,0.5,4,1c-0.3,1.3-0.7,2.6-1,4c-1.3-0.3-2.6-0.7-4-1C579.3,51.7,579.7,50.4,580,49z"/>
<path class="st21" d="M565,49c2,0.5,2,0.5,4,1c-0.3,1.3-0.7,2.6-1,4c-1.3-0.3-2.6-0.7-4-1C564.3,51.7,564.7,50.4,565,49z"/>
<path class="st22" d="M504,49c2,0.5,2,0.5,4,1c-0.3,1.3-0.7,2.6-1,4c-1.3-0.3-2.6-0.7-4-1C503.3,51.7,503.7,50.4,504,49z"/>
<path class="st6" d="M489,49c2,0.5,2,0.5,4,1c-0.3,1.3-0.7,2.6-1,4c-1.3-0.3-2.6-0.7-4-1C488.3,51.7,488.7,50.4,489,49z"/>
<path class="st16" d="M474,49c2,0.5,2,0.5,4,1c-0.3,1.3-0.7,2.6-1,4c-1.3-0.3-2.6-0.7-4-1C473.3,51.7,473.7,50.4,474,49z"/>
<path class="st23" d="M565,34c2,0.5,2,0.5,4,1c-0.3,1.3-0.7,2.6-1,4c-1.3-0.3-2.6-0.7-4-1C564.3,36.7,564.7,35.4,565,34z"/>
<path class="st11" d="M504,34c2,0.5,2,0.5,4,1c-0.3,1.3-0.7,2.6-1,4c-1.3-0.3-2.6-0.7-4-1C503.3,36.7,503.7,35.4,504,34z"/>
<path class="st24" d="M489,34c2,0.5,2,0.5,4,1c-0.3,1.3-0.7,2.6-1,4c-1.3-0.3-2.6-0.7-4-1C488.3,36.7,488.7,35.4,489,34z"/>
<path class="st13" d="M580,172c1.3,0,2.6,0,4,0c-0.3,1.6-0.7,3.3-1,5c-1.3-0.7-2.6-1.3-4-2C579.3,174,579.7,173,580,172z"/>
<path class="st13" d="M549,172c2.5,0.5,2.5,0.5,5,1c-0.7,1.3-1.3,2.6-2,4c-1-0.3-2-0.7-3-1C549,174.7,549,173.4,549,172z"/>
<path class="st13" d="M535,156c1.3,0.7,2.6,1.3,4,2c-0.3,1-0.7,2-1,3c-1.3,0-2.6,0-4,0C534.3,159.4,534.7,157.7,535,156z"/>
<path class="st13" d="M459,156c1.3,0.7,2.6,1.3,4,2c-0.3,1-0.7,2-1,3c-1.3,0-2.6,0-4,0C458.3,159.4,458.7,157.7,459,156z"/>
<path class="st10" d="M580,141c2.1,0.4,2.1,0.4,4,1c-0.3,1.3-0.7,2.6-1,4c-1,0-2,0-3,0c-0.6-1.9-0.6-1.9-1-4
	C579.3,141.7,579.7,141.3,580,141z"/>
<path class="st13" d="M458,141c1.3,0,2.6,0,4,0c0,1.6,0,3.3,0,5c-1.3,0-2.6,0-4,0C458,144.4,458,142.7,458,141z"/>
<path class="st10" d="M549,126c2.5,0.5,2.5,0.5,5,1c-0.7,1.3-1.3,2.6-2,4c-1-0.3-2-0.7-3-1C549,128.7,549,127.4,549,126z"/>
<path class="st10" d="M534,126c2.5,0.5,2.5,0.5,5,1c-0.7,1.3-1.3,2.6-2,4c-1-0.3-2-0.7-3-1C534,128.7,534,127.4,534,126z"/>
<path class="st13" d="M519,126c1.3,0,2.6,0,4,0c-0.3,1.7-0.7,3.3-1,5c-1.3-0.7-2.6-1.3-4-2C518.3,128,518.7,127,519,126z"/>
<path class="st13" d="M473,126c2.5,0.5,2.5,0.5,5,1c-0.7,1.3-1.3,2.6-2,4c-1-0.3-2-0.7-3-1C473,128.7,473,127.4,473,126z"/>
<path class="st10" d="M535,110c1.3,0.7,2.6,1.3,4,2c-0.3,1-0.7,2-1,3c-1.3,0-2.6,0-4,0C534.3,113.3,534.7,111.7,535,110z"/>
<path class="st13" d="M520,110c1,0.3,2,0.7,3,1c0,1.3,0,2.6,0,4c-1.7-0.3-3.3-0.7-5-1C518.7,112.7,519.3,111.4,520,110z"/>
<path class="st16" d="M458,95c1.3,0,2.6,0,4,0c0,1.7,0,3.3,0,5c-1.3,0-2.6,0-4,0C458,98.3,458,96.7,458,95z"/>
<path class="st25" d="M595,80c1.3,0,2.6,0,4,0c-0.3,1.7-0.7,3.3-1,5c-1.3-0.7-2.6-1.3-4-2C594.3,82,594.7,81,595,80z"/>
<path class="st10" d="M519,80c1.3,0,2.6,0,4,0c-0.3,1.7-0.7,3.3-1,5c-1.3-0.7-2.6-1.3-4-2C518.3,82,518.7,81,519,80z"/>
<path class="st13" d="M504,80c1.3,0,2.6,0,4,0c-0.3,1.7-0.7,3.3-1,5c-1.3-0.7-2.6-1.3-4-2C503.3,82,503.7,81,504,80z"/>
<path class="st16" d="M458,80c2.5,0.5,2.5,0.5,5,1c-0.7,1.3-1.3,2.6-2,4c-1-0.3-2-0.7-3-1C458,82.7,458,81.4,458,80z"/>
<path class="st26" d="M611.9,63.8c1.3,0.7,2.6,1.3,4,2c-0.3,1-0.7,2-1,3c-1.3,0-2.6,0-4,0C611.3,67.1,611.6,65.4,611.9,63.8z"/>
<path class="st27" d="M596,64c1,0.3,2,0.7,3,1c0,1.3,0,2.6,0,4c-1.7-0.3-3.3-0.7-5-1C594.7,66.7,595.3,65.4,596,64z"/>
<path class="st20" d="M581,64c1,0.3,2,0.7,3,1c0,1.3,0,2.6,0,4c-1.7-0.3-3.3-0.7-5-1C579.7,66.7,580.3,65.4,581,64z"/>
<path class="st18" d="M459,64c1.3,0.7,2.6,1.3,4,2c-0.3,1-0.7,2-1,3c-1.3,0-2.6,0-4,0C458.3,67.3,458.7,65.7,459,64z"/>
<path class="st26" d="M595,34c1.3,0,2.6,0,4,0c-0.3,1.7-0.7,3.3-1,5c-1.3-0.7-2.6-1.3-4-2C594.3,36,594.7,35,595,34z"/>
<path class="st11" d="M519,34c1.3,0,2.6,0,4,0c-0.3,1.7-0.7,3.3-1,5c-1.3-0.7-2.6-1.3-4-2C518.3,36,518.7,35,519,34z"/>
<path class="st25" d="M581,18c1,0.3,2,0.7,3,1c0,1.3,0,2.6,0,4c-1.7-0.3-3.3-0.7-5-1C579.7,20.7,580.3,19.4,581,18z"/>
<path class="st13" d="M534,187c1.3,0,2.6,0,4,0c0,1.6,0,3.3,0,5c-1.3-0.3-2.6-0.7-4-1C534,189.7,534,188.4,534,187z"/>
<path class="st7" d="M459,110c1,0.3,2,0.7,3,1c0.3,1,0.7,2,1,3c-1.6,0.3-3.3,0.7-5,1C458.3,113.3,458.7,111.7,459,110z"/>
<path class="st13" d="M550,110c1.3,0.7,2.6,1.3,4,2c-0.3,1-0.7,2-1,3c-1.3-0.3-2.6-0.7-4-1C549.3,112.7,549.7,111.4,550,110z"/>
<path class="st28" d="M580,80c1.3,0,2.6,0,4,0c0,1.3,0,2.6,0,4c-1,0.3-2,0.7-3,1c-0.7-1.3-1.3-2.6-2-4C579.3,80.7,579.7,80.3,580,80
	z"/>
<path class="st29" d="M595,49c1.3,0.3,2.6,0.7,4,1c0,1.3,0,2.6,0,4c-1.3,0-2.6,0-4,0C595,52.3,595,50.7,595,49z"/>
<path class="st6" d="M459,49c1,0,2,0,3,0c0,1.7,0,3.3,0,5c-1.3,0-2.6,0-4,0C458.3,52.3,458.7,50.7,459,49z"/>
<path class="st30" d="M564,19c1.7,0,3.3,0,5,0c0,1.3,0,2.6,0,4c-1.7-0.3-3.3-0.7-5-1C564,21,564,20,564,19z"/>
<path class="st13" d="M596,156c1,0.3,2,0.7,3,1c0,1.3,0,2.6,0,4c-1.3,0-2.6,0-4,0C595.3,159.4,595.7,157.7,596,156z"/>
<path class="st13" d="M611,141c1,0,2,0,3,0c0.3,1,0.7,2,1,3c-2,1-2,1-4,2c-0.6-1.9-0.6-1.9-1-4C610.3,141.7,610.7,141.3,611,141z"/>
<path class="st13" d="M580,126c1.3,0,2.6,0,4,0c0,1.3,0,2.6,0,4c-1.7-0.3-3.3-0.7-5-1C579.3,128,579.7,127,580,126z"/>
<path class="st7" d="M443,126c1.3,0,2.6,0,4,0c0,1.3,0,2.6,0,4c-1.6-0.3-3.3-0.7-5-1C442.3,128,442.7,127,443,126z"/>
<path class="st31" d="M626,110c1,0,2,0,3,0c0,1.7,0,3.3,0,5c-1.3-0.3-2.6-0.7-4-1C625.3,112.7,625.7,111.4,626,110z"/>
<path class="st13" d="M566,110c1,0.3,2,0.7,3,1c-0.3,1.3-0.7,2.6-1,4c-1.3-0.3-2.6-0.7-4-1C564.7,112.7,565.3,111.4,566,110z"/>
<path class="st13" d="M535,95c1,0,2,0,3,0c0,1.7,0,3.3,0,5c-1.3-0.3-2.6-0.7-4-1C534.3,97.7,534.7,96.4,535,95z"/>
<path class="st32" d="M519,95c1.3,0.3,2.6,0.7,4,1c-0.3,1.3-0.7,2.6-1,4c-1,0-2,0-3,0C519,98.3,519,96.7,519,95z"/>
<path class="st33" d="M626,80c1,0,2,0,3,0c0,1.7,0,3.3,0,5c-1.3-0.3-2.6-0.7-4-1C625.3,82.7,625.7,81.4,626,80z"/>
<path class="st13" d="M534,80c1.3,0,2.6,0,4,0c-0.3,1.7-0.7,3.3-1,5c-1-0.3-2-0.7-3-1C534,82.7,534,81.4,534,80z"/>
<path class="st7" d="M444,64c1,0.3,2,0.7,3,1c0,1.3,0,2.6,0,4c-1.3,0-2.6,0-4,0C443.3,67.3,443.7,65.7,444,64z"/>
<path class="st13" d="M550,49c1.3,0.7,2.6,1.3,4,2c-0.3,1-0.7,2-1,3c-1.3-0.3-2.6-0.7-4-1C549.3,51.7,549.7,50.4,550,49z"/>
<path class="st34" d="M549,19c2.5,0.5,2.5,0.5,5,1c-0.3,1-0.7,2-1,3c-1.3,0-2.6,0-4,0C549,21.7,549,20.4,549,19z"/>
<path class="st6" d="M519,19c1.3,0,2.6,0,4,0c0,1.3,0,2.6,0,4c-1.7-0.3-3.3-0.7-5-1C518.3,21,518.7,20,519,19z"/>
<path class="st7" d="M504,19c1.3,0,2.6,0,4,0c0,1.3,0,2.6,0,4c-1.6-0.3-3.3-0.7-5-1C503.3,21,503.7,20,504,19z"/>
<path class="st7" d="M488,19c2.5,0.5,2.5,0.5,5,1c-0.3,1-0.7,2-1,3c-1.3,0-2.6,0-4,0C488,21.7,488,20.4,488,19z"/>
<path class="st13" d="M565,187c2,0.5,2,0.5,4,1c-0.3,1-0.7,2-1,3c-1.3,0-2.6,0-4,0C564.3,189.7,564.7,188.4,565,187z"/>
<path class="st32" d="M565,126c2,0.5,2,0.5,4,1c0,1,0,2,0,3c-1.7-0.3-3.3-0.7-5-1C564.3,128,564.7,127,565,126z"/>
<path class="st13" d="M580,111c1.3,0,2.6,0,4,0c-0.3,1.3-0.7,2.6-1,4c-1.3-0.3-2.6-0.7-4-1C579.3,113,579.7,112,580,111z"/>
<path class="st13" d="M581,95c1,0.3,2,0.7,3,1c-0.3,1.3-0.7,2.6-1,4c-1.3-0.7-2.6-1.3-4-2C579.7,97,580.3,96,581,95z"/>
<path class="st13" d="M550,80c2,0.5,2,0.5,4,1c-0.3,1-0.7,2-1,3c-1.3,0-2.6,0-4,0C549.3,82.7,549.7,81.4,550,80z"/>
<path class="st35" d="M565,65c1.3,0,2.6,0,4,0c-0.3,1.3-0.7,2.6-1,4c-1.3-0.3-2.6-0.7-4-1C564.3,67,564.7,66,565,65z"/>
<path class="st13" d="M549,65c2.5,0.5,2.5,0.5,5,1c-0.3,1-0.7,2-1,3c-1.3-0.3-2.6-0.7-4-1C549,67,549,66,549,65z"/>
<path class="st32" d="M520,49c1,0.3,2,0.7,3,1c-0.3,1.3-0.7,2.6-1,4c-1,0-2,0-3,0C519.3,52.3,519.7,50.7,520,49z"/>
<path class="st13" d="M535,34c1,0,2,0,3,0c-0.3,1.7-0.7,3.3-1,5c-1-0.3-2-0.7-3-1C534.3,36.7,534.7,35.4,535,34z"/>
<path class="st34" d="M549,4c2.5,0.5,2.5,0.5,5,1c-0.3,1-0.7,2-1,3c-1.3-0.3-2.6-0.7-4-1C549,6,549,5,549,4z"/>
<path class="st7" d="M520,3c1,0.3,2,0.7,3,1c-0.3,1.3-0.7,2.6-1,4c-1,0-2,0-3,0C519.3,6.3,519.7,4.7,520,3z"/>
</svg>
