<?xml version="1.0" encoding="UTF-8"?>
<svg fill="#091337" version="1.1" xmlns="http://www.w3.org/2000/svg" width="512" height="512">
<path d="M0 0 C2.12308266 1.55299087 4.13515474 3.19404152 6.14697266 4.88842773 C6.81390137 5.4264502 7.48083008 5.96447266 8.16796875 6.51879883 C10.23728845 8.18834655 12.28751578 9.87905498 14.33447266 11.57592773 C15.07060791 12.18388184 15.80674316 12.79183594 16.56518555 13.41821289 C21.09822787 17.16898499 25.60118776 20.95341451 30.08447266 24.76342773 C32.10400064 26.47331345 34.12539665 28.18096115 36.14697266 29.88842773 C37.5565625 31.08725586 37.5565625 31.08725586 38.99462891 32.31030273 C39.86990234 33.03733398 40.74517578 33.76436523 41.64697266 34.51342773 C42.77619141 35.46088867 42.77619141 35.46088867 43.92822266 36.42749023 C46.47035972 38.10136217 48.09762644 38.79223385 51.14697266 38.88842773 C53.33118688 37.58016856 53.33118688 37.58016856 55.27197266 35.51342773 C58.59600727 32.34899081 61.95462029 29.34048315 65.52197266 26.45092773 C66.45009766 25.69682617 67.37822266 24.94272461 68.33447266 24.16577148 C69.26259766 23.41424805 70.19072266 22.66272461 71.14697266 21.88842773 C78.40137292 15.99701778 78.40137292 15.99701778 85.55322266 9.98217773 C86.13023926 9.4889502 86.70725586 8.99572266 87.30175781 8.48754883 C88.41886646 7.53025362 89.53329065 6.5698136 90.64453125 5.60571289 C92.1223149 4.33923979 93.6339041 3.11252829 95.14697266 1.88842773 C95.89205078 1.26709961 96.63712891 0.64577148 97.40478516 0.00561523 C106.26975403 -3.60603875 117.17432457 1.85051123 125.70947266 4.76342773 C126.79403748 5.1292395 126.79403748 5.1292395 127.9005127 5.50244141 C160.27429259 16.45687267 192.21199494 31.26429824 218.14697266 53.88842773 C218.94490234 54.56518555 219.74283203 55.24194336 220.56494141 55.93920898 C238.2114075 71.16187237 249.72539114 90.32765304 255.14697266 112.88842773 C255.32363464 113.59342407 255.50029663 114.29842041 255.68231201 115.02478027 C256.31723056 118.93770665 256.30274293 122.77216736 256.30810547 126.73022461 C256.31307037 127.6104982 256.31803528 128.49077179 256.32315063 129.39772034 C256.33772024 132.30088082 256.34456414 135.20398674 256.35009766 138.10717773 C256.35585161 140.12829591 256.36160931 142.14941407 256.36737061 144.17053223 C256.37786453 148.40381117 256.38371831 152.63707121 256.38720703 156.87036133 C256.39270073 162.29436758 256.41675424 167.71812395 256.44517899 173.1420517 C256.46379772 177.31476577 256.46901047 181.4874194 256.47054291 185.66017151 C256.47356964 187.66005322 256.48159884 189.65993387 256.49472809 191.65977478 C256.51177903 194.45558791 256.50991112 197.25078686 256.50341797 200.04663086 C256.51263275 200.87171646 256.52184753 201.69680206 256.53134155 202.54689026 C256.49771401 207.16812326 256.10454057 210.11803838 253.14697266 213.88842773 C248.84118905 217.66911578 246.54886708 219.01190709 240.86763954 219.02544212 C239.74098747 219.03051667 238.6143354 219.03559121 237.45354235 219.04081953 C235.58120915 219.04156616 235.58120915 219.04156616 233.67105103 219.04232788 C231.69424003 219.04890126 231.69424003 219.04890126 229.67749345 219.05560744 C226.00702714 219.06759267 222.33657398 219.07322587 218.66609192 219.07778859 C214.71235793 219.08373717 210.75863973 219.09534873 206.80491638 219.1060791 C197.25133624 219.13061806 187.69775086 219.14523134 178.14414889 219.15813917 C175.44735608 219.16184966 172.75056379 219.16582299 170.0537715 219.16989183 C153.31853529 219.19512411 136.58329829 219.21718415 119.84804726 219.22961998 C115.97047548 219.23254982 112.09290374 219.23551147 108.21533203 219.23852539 C107.2515437 219.23927144 106.28775538 219.24001749 105.29476134 219.24078615 C89.671174 219.25344816 74.04770024 219.28668191 58.42416604 219.32832722 C42.39598674 219.37070218 26.36786567 219.39430977 10.33963048 219.39954054 C1.33535793 219.40295944 -7.66873702 219.41477095 -16.67295456 219.44764328 C-24.33898897 219.47558391 -32.0048094 219.48666954 -39.67089079 219.47544782 C-43.58438619 219.47024593 -47.49743306 219.47324612 -51.41086388 219.49791336 C-54.99119858 219.52029336 -58.57075968 219.51975526 -62.15110691 219.50070949 C-64.06481163 219.49655603 -65.97852019 219.51713807 -67.89211023 219.53849638 C-76.15921136 219.46127947 -76.15921136 219.46127947 -79.65255165 216.57699013 C-81.29077897 212.90804758 -80.91761053 210.7209272 -79.85302734 206.88842773 C-78.25631768 204.77927158 -77.41362835 203.98617107 -74.78388977 203.52766418 C-73.59475227 203.53765694 -73.59475227 203.53765694 -72.3815918 203.54785156 C-71.48088455 203.54807816 -70.58017731 203.54830475 -69.6521759 203.54853821 C-68.19892159 203.57176399 -68.19892159 203.57176399 -66.71630859 203.59545898 C-65.72173141 203.59970383 -64.72715424 203.60394867 -63.70243835 203.60832214 C-60.5231936 203.62512621 -57.34458078 203.66278197 -54.16552734 203.70092773 C-52.01123962 203.71597232 -49.85694196 203.72966112 -47.70263672 203.74194336 C-42.41921767 203.77503529 -37.13616765 203.82525181 -31.85302734 203.88842773 C-33.76553631 200.17793687 -35.68376806 196.47043099 -37.60302734 192.76342773 C-38.18270264 191.64009033 -38.76237793 190.51675293 -39.35961914 189.359375 C-42.28207339 183.72392027 -45.25009611 178.12978955 -48.38818359 172.61108398 C-48.93958008 171.63478027 -49.49097656 170.65847656 -50.05908203 169.65258789 C-51.1065973 167.80940678 -52.16785982 165.97395073 -53.24462891 164.14770508 C-56.3181271 158.71855284 -57.77864022 155.13948456 -56.85302734 148.88842773 C-55.81618693 146.17785581 -54.43884346 143.79028977 -52.91552734 141.32592773 C-52.51599854 140.64771973 -52.11646973 139.96951172 -51.70483398 139.27075195 C-50.43909579 137.13177552 -49.14898159 135.00921193 -47.85302734 132.88842773 C-46.56702387 130.76474788 -45.28297575 128.63991853 -44.0012207 126.51367188 C-43.20632429 125.20038566 -42.40523399 123.89082457 -41.59741211 122.58544922 C-39.52427928 119.46714981 -39.52427928 119.46714981 -38.85302734 115.88842773 C-40.90846748 114.43074468 -40.90846748 114.43074468 -43.56005859 112.98999023 C-44.53910156 112.42795898 -45.51814453 111.86592773 -46.52685547 111.28686523 C-48.6070747 110.11148312 -50.68779824 108.93699305 -52.76904297 107.76342773 C-54.2434082 106.91651367 -54.2434082 106.91651367 -55.74755859 106.05249023 C-57.10651245 105.28606201 -57.10651245 105.28606201 -58.49291992 104.50415039 C-60.98632565 102.79717211 -62.27150029 101.44814007 -63.85302734 98.88842773 C-64.02296448 96.7829895 -64.02296448 96.7829895 -63.71069336 94.47875977 C-63.59130402 93.59673889 -63.47191467 92.71471802 -63.34890747 91.80596924 C-62.4165048 86.32012028 -61.30147252 80.88252762 -60.13037109 75.44311523 C-59.8654335 74.19209015 -59.60049591 72.94106506 -59.32752991 71.65213013 C-58.62937918 68.36016258 -57.92665996 65.06924123 -57.22161865 61.77874756 C-56.50043873 58.40728502 -55.78540712 55.0345193 -55.06982422 51.66186523 C-53.66982782 45.06951703 -52.26378395 38.47848116 -50.85302734 31.88842773 C-54.48785883 33.59760005 -58.11804555 35.31643135 -61.74755859 37.03686523 C-62.76338013 37.51438232 -63.77920166 37.99189941 -64.82580566 38.48388672 C-82.97649913 47.10700985 -99.21772069 58.09979172 -113.85302734 71.88842773 C-114.60197266 72.56131836 -115.35091797 73.23420898 -116.12255859 73.92749023 C-129.17890773 86.13780624 -139.50408879 103.95288477 -141.03299332 122.01443672 C-141.09571149 124.15809937 -141.10107457 126.29303996 -141.08007812 128.4375 C-141.08037018 129.23860703 -141.08066223 130.03971405 -141.08096313 130.86509705 C-141.0795844 133.47845801 -141.06409287 136.09152365 -141.04833984 138.70483398 C-141.04460452 140.53042953 -141.04176 142.35602709 -141.0397644 144.18162537 C-141.03216883 148.96063887 -141.01255582 153.73952865 -140.99035645 158.51849365 C-140.96980973 163.40545987 -140.9607439 168.29244629 -140.95068359 173.17944336 C-140.9293057 182.74915884 -140.89521956 192.31878295 -140.85302734 201.88842773 C-137.71147362 203.4592046 -134.33924689 203.06654431 -130.88818359 203.09936523 C-129.2677307 203.1274287 -127.64728811 203.15609312 -126.02685547 203.18530273 C-123.46801994 203.22660997 -120.9093781 203.26349094 -118.3503418 203.28979492 C-115.88338313 203.31736136 -113.41730459 203.36322547 -110.95068359 203.41186523 C-109.80213646 203.41674454 -109.80213646 203.41674454 -108.63038635 203.42172241 C-103.35054736 203.54421584 -103.35054736 203.54421584 -100.90161133 205.23852539 C-99.26857039 207.80804592 -98.97414175 209.86056758 -98.85302734 212.88842773 C-99.99082606 215.2157433 -101.02143448 217.05683488 -102.85302734 218.88842773 C-104.23267753 219.0019712 -105.61799322 219.04793983 -107.00219727 219.06542969 C-108.3244355 219.08468254 -108.3244355 219.08468254 -109.67338562 219.10432434 C-110.63372208 219.11171127 -111.59405853 219.11909821 -112.58349609 219.12670898 C-114.05826164 219.1388166 -114.05826164 219.1388166 -115.56282043 219.15116882 C-117.6501793 219.16503073 -119.73756104 219.17574341 -121.82495117 219.18359375 C-125.00988223 219.20076254 -128.19376367 219.24462477 -131.37841797 219.28881836 C-133.40510303 219.29894873 -135.43179694 219.30746375 -137.45849609 219.31420898 C-138.88381905 219.34047112 -138.88381905 219.34047112 -140.3379364 219.36726379 C-146.00828122 219.34877516 -149.47055764 218.84626982 -153.85302734 214.88842773 C-157.94551612 209.89230848 -158.42966801 206.35263283 -158.35473633 200.16772461 C-158.36013931 199.3115152 -158.3655423 198.45530579 -158.37110901 197.57315063 C-158.38358343 194.75080447 -158.36710278 191.92948181 -158.34912109 189.10717773 C-158.34927623 187.13146919 -158.35076755 185.15576033 -158.35353088 183.18005371 C-158.3549147 179.03746086 -158.34236856 174.89521425 -158.31958008 170.75268555 C-158.29134458 165.47861808 -158.29389251 160.20513211 -158.30667019 154.93102264 C-158.31367788 150.84711878 -158.305778 146.76334576 -158.29341316 142.67945862 C-158.28893736 140.73727422 -158.28852748 138.79507556 -158.29247856 136.85289001 C-158.32612606 105.73159788 -147.65593843 81.31989122 -125.85302734 58.88842773 C-123.29128306 56.41154455 -120.62084951 54.13156709 -117.85302734 51.88842773 C-116.97775391 51.16397461 -116.10248047 50.43952148 -115.20068359 49.69311523 C-86.68808876 26.86836107 -52.44977062 12.35318362 -17.79052734 1.63842773 C-16.86377197 1.35064453 -15.9370166 1.06286133 -14.98217773 0.76635742 C-4.08737644 -2.45188734 -4.08737644 -2.45188734 0 0 Z M-13.30224609 17.20092773 C-14.57358398 17.60698242 -14.57358398 17.60698242 -15.87060547 18.02124023 C-16.75167969 18.30741211 -17.63275391 18.59358398 -18.54052734 18.88842773 C-19.87954102 19.31768555 -19.87954102 19.31768555 -21.24560547 19.75561523 C-23.44935128 20.46269945 -25.65172715 21.17377336 -27.85302734 21.88842773 C-22.27944959 33.1039241 -16.60102804 44.26142768 -10.85302734 55.38842773 C-10.07038364 56.90530755 -9.28783119 58.42223445 -8.50537109 59.93920898 C-6.62230151 63.58948887 -4.73802123 67.23914121 -2.85302734 70.88842773 C6.0978598 66.50280908 14.87017436 61.90863584 23.52197266 56.95092773 C24.55580078 56.3624707 25.58962891 55.77401367 26.65478516 55.16772461 C29.15405304 53.7445304 31.65140899 52.31810384 34.14697266 50.88842773 C32.8978479 47.14105347 31.35310036 46.19865331 28.27197266 43.76342773 C26.76376953 42.55879883 26.76376953 42.55879883 25.22509766 41.32983398 C24.20931641 40.52416992 23.19353516 39.71850586 22.14697266 38.88842773 C20.43576142 37.49612404 18.72739525 36.1003159 17.02197266 34.70092773 C16.13251953 33.97647461 15.24306641 33.25202148 14.32666016 32.50561523 C11.79100303 30.43007735 9.28425218 28.32178348 6.77978516 26.20874023 C6.01553223 25.56831787 5.2512793 24.92789551 4.46386719 24.26806641 C2.93642654 22.98768808 1.41382884 21.70150681 -0.10351562 20.40917969 C-0.80460449 19.82354248 -1.50569336 19.23790527 -2.22802734 18.63452148 C-2.85451172 18.10528076 -3.48099609 17.57604004 -4.12646484 17.03076172 C-7.25566314 14.96041121 -9.98671838 16.13283827 -13.30224609 17.20092773 Z M97.83447266 21.20092773 C93.00153936 25.45294926 88.11090312 29.5709477 83.02197266 33.51342773 C78.39952993 37.11235284 73.80172147 40.7356378 69.27197266 44.45092773 C68.28455078 45.2565918 67.29712891 46.06225586 66.27978516 46.89233398 C65.57595703 47.55104492 64.87212891 48.20975586 64.14697266 48.88842773 C64.14697266 49.54842773 64.14697266 50.20842773 64.14697266 50.88842773 C68.12937513 53.09593049 72.11297877 55.30124507 76.09765625 57.50463867 C77.44986748 58.25275268 78.80176253 59.00143852 80.15332031 59.75073242 C82.10868523 60.83463759 84.06522081 61.91640379 86.02197266 62.99780273 C86.61502197 63.32713806 87.20807129 63.65647339 87.8190918 63.99578857 C92.20422651 66.41540954 96.65695719 68.66932394 101.14697266 70.88842773 C104.06500799 65.19616643 106.98242073 59.50358636 109.89941406 53.81079102 C110.8904838 51.87679938 111.88169264 49.94287902 112.87304688 48.0090332 C114.30326909 45.21902182 115.73298012 42.428749 117.16259766 39.63842773 C117.60130188 38.78289307 118.0400061 37.9273584 118.49200439 37.04589844 C121.072669 32.00754639 123.62355157 26.95570246 126.14697266 21.88842773 C123.04470943 20.88241998 119.94009486 19.8840207 116.83447266 18.88842773 C115.95339844 18.60225586 115.07232422 18.31608398 114.16455078 18.02124023 C113.31699219 17.75053711 112.46943359 17.47983398 111.59619141 17.20092773 C110.81590576 16.94956055 110.03562012 16.69819336 109.23168945 16.43920898 C103.81064436 15.00697128 101.62914963 17.78457517 97.83447266 21.20092773 Z M148.14697266 30.88842773 C150.40007392 42.476989 152.72400316 54.04596229 155.26025391 65.57592773 C155.44151825 66.40232254 155.62278259 67.22871735 155.80953979 68.08015442 C156.71656741 72.21172479 157.63080032 76.34151511 158.55517578 80.46923828 C158.89460596 82.00865534 159.23380885 83.54812254 159.57275391 85.08764648 C159.73189774 85.78676147 159.89104156 86.48587646 160.05500793 87.20617676 C160.91915047 91.16430266 161.47540139 94.83879403 161.14697266 98.88842773 C156.82517314 104.65677999 149.94881269 107.57796262 143.74462891 110.95874023 C142.49746094 111.65483398 142.49746094 111.65483398 141.22509766 112.36499023 C140.46616211 112.7782959 139.70722656 113.19160156 138.92529297 113.61743164 C136.83338836 114.84927953 136.83338836 114.84927953 136.14697266 117.88842773 C137.25536154 120.18934624 138.4076504 122.28346058 139.73291016 124.45483398 C140.10928619 125.0895311 140.48566223 125.72422821 140.8734436 126.37815857 C142.08010698 128.40826772 143.30067574 130.42959493 144.52197266 132.45092773 C145.33802718 133.81689688 146.15314325 135.18342714 146.96728516 136.55053711 C148.45795808 139.05292368 149.95508531 141.55124226 151.45703125 144.046875 C154.0853463 148.46625652 154.762705 151.75682564 154.14697266 156.88842773 C153.20226962 159.67576806 151.85844077 162.15854567 150.42041016 164.72045898 C150.03511139 165.43771652 149.64981262 166.15497406 149.25283813 166.89396667 C148.02461147 169.17170781 146.77392035 171.43615483 145.52197266 173.70092773 C144.70404484 175.20856678 143.88762519 176.71702508 143.07275391 178.22631836 C140.15508031 183.61666541 137.20544909 188.98870152 134.22216797 194.34301758 C133.67399414 195.33124512 133.12582031 196.31947266 132.56103516 197.33764648 C131.85261475 198.60161255 131.85261475 198.60161255 131.12988281 199.89111328 C129.99979083 201.81649607 129.99979083 201.81649607 130.14697266 203.88842773 C144.04621137 203.93512937 157.94543792 203.97027464 171.84473896 203.99205208 C178.29829435 204.00250256 184.75179715 204.01668486 191.20532227 204.03930664 C197.42984219 204.06098987 203.65431143 204.07298682 209.8788662 204.07818222 C212.25719183 204.08188611 214.6355146 204.08911857 217.01381874 204.09988785 C220.33731777 204.1143426 223.66060561 204.11640819 226.98413086 204.11547852 C228.46874565 204.12626434 228.46874565 204.12626434 229.98335266 204.13726807 C231.34001038 204.13314407 231.34001038 204.13314407 232.72407532 204.12893677 C233.51036473 204.13078035 234.29665415 204.13262394 235.10677052 204.13452339 C237.45859732 204.00644785 237.45859732 204.00644785 240.14697266 201.88842773 C240.45488968 199.30502488 240.56684859 196.95911096 240.55102539 194.37207031 C240.56132027 193.20808464 240.56132027 193.20808464 240.57182312 192.02058411 C240.5901974 189.44119189 240.58623281 186.86240301 240.58056641 184.28295898 C240.58512888 182.48328962 240.59043465 180.683622 240.59645081 178.88395691 C240.60540695 175.09834763 240.60293718 171.31294891 240.59301758 167.52734375 C240.58162756 162.71501207 240.60157142 157.90342511 240.63093472 153.09119129 C240.64945634 149.36495958 240.64897108 145.63890019 240.6432972 141.9126339 C240.64314536 140.14151669 240.64907342 138.37038673 240.66158867 136.59931374 C240.74754911 122.41736162 239.1882655 109.41170004 232.45947266 96.63842773 C232.12206055 95.97931396 231.78464844 95.3202002 231.43701172 94.64111328 C228.10110844 88.36988981 223.86905169 83.18745251 219.14697266 77.88842773 C218.47279297 77.03120117 217.79861328 76.17397461 217.10400391 75.29077148 C214.16532328 71.68340904 210.69684171 68.87683791 207.14697266 65.88842773 C206.38900391 65.2194043 205.63103516 64.55038086 204.85009766 63.86108398 C193.09621241 53.76807383 179.62599575 46.02125648 165.95947266 38.82592773 C165.09918457 38.3729834 164.23889648 37.92003906 163.35253906 37.45336914 C158.38032188 34.89098166 153.42407509 32.74484785 148.14697266 30.88842773 Z M-35.85302734 42.88842773 C-38.71614431 54.0022878 -41.26016184 65.15417512 -43.60302734 76.38842773 C-43.92175999 77.90541321 -44.24076937 79.42234056 -44.56005859 80.93920898 C-45.32755201 84.58828855 -46.09137021 88.23812492 -46.85302734 91.88842773 C-40.55679181 96.22087677 -34.15114647 100.03662682 -27.36474609 103.54272461 C-23.338506 105.71813073 -20.51397584 107.39846533 -18.85302734 111.88842773 C-19.26200879 116.18383624 -20.31745382 119.19576023 -22.54833984 122.86499023 C-23.37096313 124.23397461 -23.37096313 124.23397461 -24.21020508 125.63061523 C-24.79358643 126.58194336 -25.37696777 127.53327148 -25.97802734 128.51342773 C-26.85793335 129.98295898 -26.85793335 129.98295898 -27.75561523 131.48217773 C-30.23386477 135.61682058 -32.73543348 139.73132784 -35.34130859 143.78686523 C-35.98455078 144.81038086 -36.62779297 145.83389648 -37.29052734 146.88842773 C-38.12390625 148.15686523 -38.12390625 148.15686523 -38.97412109 149.45092773 C-40.25689417 153.00848507 -39.39746984 154.43661891 -37.85302734 157.88842773 C-36.1330967 161.42769821 -34.31946802 164.91102652 -32.47802734 168.38842773 C-31.95362061 169.38567871 -31.42921387 170.38292969 -30.88891602 171.41040039 C-27.03124932 178.7217776 -23.11500958 186.00128273 -19.16552734 193.26342773 C-18.64877441 194.21411133 -18.13202148 195.16479492 -17.59960938 196.14428711 C-17.12249512 197.01633789 -16.64538086 197.88838867 -16.15380859 198.78686523 C-15.52212769 199.9419458 -15.52212769 199.9419458 -14.87768555 201.12036133 C-13.97567347 202.85152718 -13.97567347 202.85152718 -12.85302734 203.88842773 C-10.32253332 203.9615634 -7.81997898 203.980903 -5.29052734 203.95092773 C-4.57960937 203.94641602 -3.86869141 203.9419043 -3.13623047 203.93725586 C-1.37512721 203.92543637 0.38593302 203.90750037 2.14697266 203.88842773 C3.61001136 199.01453306 4.7508932 194.16122763 5.65917969 189.15234375 C5.86444275 188.04354858 5.86444275 188.04354858 6.07385254 186.91235352 C6.52119846 184.48967776 6.96331834 182.06608746 7.40478516 179.64233398 C7.71570823 177.94512598 8.0267349 176.24793695 8.33786011 174.55076599 C8.9875092 171.00158099 9.63426927 167.45188313 10.27929688 163.90185547 C11.1037366 159.36703026 11.93785583 154.83404502 12.77447701 150.30145359 C13.41930737 146.79948444 14.05769078 143.29636231 14.69430161 139.79289055 C14.99902024 138.12163834 15.30600585 136.45079774 15.61536026 134.78039742 C16.0481683 132.43940346 16.47191542 130.09693401 16.89355469 127.75390625 C17.02132294 127.07365891 17.14909119 126.39341156 17.2807312 125.69255066 C18.56023236 118.46847144 18.88715569 112.40750317 15.62744141 105.67358398 C14.83563477 104.02712891 14.83563477 104.02712891 14.02783203 102.34741211 C13.46902344 101.22657227 12.91021484 100.10573242 12.33447266 98.95092773 C11.78726563 97.80301758 11.24005859 96.65510742 10.67626953 95.47241211 C8.56754184 91.09363843 8.56754184 91.09363843 6.14697266 86.88842773 C5.15697266 86.55842773 4.16697266 86.22842773 3.14697266 85.88842773 C2.21884766 86.36280273 1.29072266 86.83717773 0.33447266 87.32592773 C-3.15948043 89.03864983 -5.02304975 89.47125041 -8.85302734 88.88842773 C-12.85745192 85.67357211 -14.79615056 81.58828021 -17.04052734 77.08764648 C-17.42490967 76.33304642 -17.80929199 75.57844635 -18.20532227 74.80097961 C-19.42856379 72.39626996 -20.64116791 69.98639039 -21.85302734 67.57592773 C-23.066957 65.17728192 -24.28308965 62.77977377 -25.50073242 60.38301086 C-26.25579573 58.89507047 -27.00839311 57.40587515 -27.75805664 55.91520691 C-29.99331144 51.48998988 -32.35961135 47.17381138 -34.85302734 42.88842773 C-35.18302734 42.88842773 -35.51302734 42.88842773 -35.85302734 42.88842773 Z M133.14697266 42.88842773 C132.84629883 43.46995605 132.545625 44.05148437 132.23583984 44.65063477 C126.41283357 55.89832376 120.54129117 67.11935404 114.52197266 78.26342773 C114.01375977 79.21362793 113.50554687 80.16382813 112.98193359 81.14282227 C112.27085449 82.45162354 112.27085449 82.45162354 111.54541016 83.78686523 C111.12952637 84.55691895 110.71364258 85.32697266 110.28515625 86.12036133 C109.14697266 87.88842773 109.14697266 87.88842773 107.14697266 88.88842773 C102.20599851 89.3376072 99.49192076 88.10917899 95.14697266 85.88842773 C92.00181801 86.58517483 92.00181801 86.58517483 90.70483398 89.16992188 C89.10653357 92.42283999 87.51908063 95.67924128 85.95947266 98.95092773 C85.40066406 100.07176758 84.84185547 101.19260742 84.26611328 102.34741211 C83.73824219 103.44504883 83.21037109 104.54268555 82.66650391 105.67358398 C81.9410437 107.17223999 81.9410437 107.17223999 81.20092773 108.70117188 C79.04653811 115.21624172 80.28124281 121.80295515 81.50805664 128.39990234 C81.65275391 129.20901062 81.79745117 130.0181189 81.9465332 130.85174561 C82.42187574 133.49937352 82.90721705 136.14505319 83.39306641 138.79077148 C83.72747209 140.63773244 84.06137249 142.48478495 84.39479065 144.33192444 C85.09240798 148.18823681 85.7947467 152.04364856 86.50073242 155.8984375 C87.40727087 160.84934343 88.30402634 165.80195932 89.19756985 170.75522518 C89.88502396 174.56204128 90.57651509 178.36811475 91.26936531 182.1739521 C91.60169997 184.0011019 91.9330137 185.82843768 92.26330376 187.65595818 C92.72374528 190.19895226 93.18934868 192.74094495 93.65649414 195.28271484 C93.79315994 196.04266251 93.92982574 196.80261017 94.07063293 197.58558655 C94.46776564 201.02904854 94.46776564 201.02904854 96.14697266 203.88842773 C98.67746668 203.9615634 101.18002102 203.980903 103.70947266 203.95092773 C104.77584961 203.94416016 104.77584961 203.94416016 105.86376953 203.93725586 C107.62487279 203.92543637 109.38593302 203.90750037 111.14697266 203.88842773 C116.6665507 194.52137911 121.78616709 184.9765522 126.76171875 175.31030273 C128.94691394 171.07030899 131.12967379 166.84847779 133.54150391 162.73217773 C134.52183594 161.04608398 134.52183594 161.04608398 135.52197266 159.32592773 C136.08658203 158.39651367 136.65119141 157.46709961 137.23291016 156.50952148 C138.53159254 152.78552199 137.82103118 151.47209071 136.14697266 147.88842773 C134.15618328 144.26836795 132.0402942 140.73237364 129.89697266 137.20092773 C127.62956996 133.44016671 125.38237812 129.66828339 123.14697266 125.88842773 C122.55464844 124.91566895 121.96232422 123.94291016 121.35205078 122.94067383 C120.79453125 121.9888623 120.23701172 121.03705078 119.66259766 120.05639648 C119.1550293 119.207146 118.64746094 118.35789551 118.12451172 117.48291016 C116.89107314 114.20924587 117.24449719 112.23035205 118.14697266 108.88842773 C119.61572266 107.34155273 119.61572266 107.34155273 121.64697266 106.13842773 C122.44103516 105.65374023 123.23509766 105.16905273 124.05322266 104.66967773 C125.07416016 104.08186523 126.09509766 103.49405273 127.14697266 102.88842773 C129.3692655 101.59522907 131.58985102 100.29917887 133.80908203 99.00073242 C135.35814149 98.09808499 136.91151007 97.2027893 138.46923828 96.31518555 C139.18789063 95.90107422 139.90654297 95.48696289 140.64697266 95.06030273 C141.62150391 94.50487793 141.62150391 94.50487793 142.61572266 93.93823242 C144.3159694 92.95445411 144.3159694 92.95445411 145.14697266 90.88842773 C144.91932495 88.82546095 144.91932495 88.82546095 144.37426758 86.47045898 C144.18043991 85.55611084 143.98661224 84.6417627 143.78691101 83.69970703 C143.56928604 82.71010986 143.35166107 81.7205127 143.12744141 80.70092773 C142.90880936 79.68748291 142.69017731 78.67403809 142.46492004 77.62988281 C141.99994804 75.4838804 141.53147885 73.33863324 141.05981445 71.1940918 C140.33795888 67.9043158 139.63139919 64.61151162 138.92626953 61.31811523 C138.47341418 59.23718549 138.01966787 57.1564494 137.56494141 55.07592773 C137.35338913 54.08633057 137.14183685 53.0967334 136.9238739 52.07714844 C136.72058975 51.16280029 136.5173056 50.24845215 136.30786133 49.30639648 C136.13163742 48.49968506 135.95541351 47.69297363 135.77384949 46.86181641 C135.24827025 44.68316556 135.24827025 44.68316556 133.14697266 42.88842773 Z M37.05249023 66.70507812 C35.22376085 67.6932073 33.38981214 68.67108492 31.55517578 69.64819336 C30.40082031 70.27016602 29.24646484 70.89213867 28.05712891 71.53295898 C26.99631104 72.10377197 25.93549316 72.67458496 24.8425293 73.26269531 C22.54299524 74.64958031 20.90228582 75.88522538 19.14697266 77.88842773 C20.83482228 81.57421763 22.52555226 85.25867052 24.21899414 88.94189453 C24.79498882 90.1957594 25.37018712 91.44999042 25.94458008 92.70458984 C26.76907555 94.50510584 27.59664952 96.30421113 28.42431641 98.10327148 C28.92181396 99.18729248 29.41931152 100.27131348 29.93188477 101.38818359 C30.92238836 103.77281061 30.92238836 103.77281061 32.14697266 104.88842773 C34.66791342 104.97690516 37.16128159 105.00370075 39.68212891 104.98608398 C40.43537949 104.98466904 41.18863007 104.98325409 41.96470642 104.98179626 C44.37966825 104.97618149 46.79453867 104.96362656 49.20947266 104.95092773 C50.84293486 104.94591463 52.47639852 104.9413514 54.10986328 104.93725586 C58.12226851 104.92620727 62.13460506 104.9089328 66.14697266 104.88842773 C70.65172304 95.96078464 75.11301673 87.04240465 79.14697266 77.88842773 C75.75317978 75.04488573 72.36961179 72.76199232 68.47900391 70.65405273 C67.42132813 70.08041992 66.36365234 69.50678711 65.27392578 68.91577148 C64.18015625 68.32924805 63.08638672 67.74272461 61.95947266 67.13842773 C60.85410156 66.53643555 59.74873047 65.93444336 58.60986328 65.31420898 C48.77649557 60.00960328 46.84510596 61.40549862 37.05249023 66.70507812 Z M34.14697266 120.88842773 C32.73538912 125.61001606 31.6198551 130.26770597 30.7265625 135.12133789 C30.59947403 135.80683212 30.47238556 136.49232635 30.34144592 137.19859314 C29.92674666 139.44092645 29.51710794 141.68414696 29.10791016 143.92749023 C28.81948027 145.49737711 28.53087266 147.06723133 28.24209595 148.63705444 C27.63971197 151.91638956 27.03992255 155.19618619 26.44189453 158.47631836 C25.67615388 162.67479495 24.90324665 166.87191566 24.12831688 171.06870461 C23.53153315 174.3057893 22.93889319 177.54362224 22.3474617 180.78168869 C22.06414622 182.32965274 21.77946866 183.87736815 21.49338913 185.42482376 C21.09419349 187.5872315 20.70068057 189.75060024 20.30859375 191.91430664 C20.08368256 193.14339752 19.85877136 194.3724884 19.62704468 195.63882446 C19.02518408 199.16533473 19.02518408 199.16533473 19.14697266 203.88842773 C38.94697266 203.88842773 58.74697266 203.88842773 79.14697266 203.88842773 C78.54039284 197.82262962 77.92666188 192.10766465 76.85595703 186.15966797 C76.73062088 185.45755692 76.60528473 184.75544586 76.47615051 184.03205872 C76.06821763 181.75299651 75.65470291 179.47499231 75.24072266 177.19702148 C74.95285872 175.59949233 74.66522424 174.00192182 74.37780762 172.40431213 C73.7784951 169.07815948 73.17639101 165.75252785 72.57226562 162.42724609 C71.79681053 158.15758156 71.0285168 153.88666399 70.26226044 149.61534023 C69.67148577 146.32671068 69.07696121 143.03876781 68.48127747 139.75102425 C68.19622336 138.17510145 67.91235622 136.59896348 67.62968445 135.02261162 C67.2362748 132.83190585 66.83783145 130.64217603 66.43798828 128.45263672 C66.0994281 126.58260231 66.0994281 126.58260231 65.75402832 124.67478943 C65.43287681 121.99420667 65.43287681 121.99420667 64.14697266 120.88842773 C61.92842001 120.80059232 59.70708769 120.78148165 57.48681641 120.79077148 C56.82235001 120.79218643 56.15788361 120.79360138 55.47328186 120.7950592 C53.34363367 120.80067255 51.21408926 120.8132272 49.08447266 120.82592773 C47.64371896 120.83094102 46.20296363 120.83550422 44.76220703 120.83959961 C41.22376164 120.85064629 37.68537727 120.86791982 34.14697266 120.88842773 Z " fill="#091337" transform="translate(206.85302734375,293.111572265625)"/>
<path d="M0 0 C2.47653086 2.19638031 4.88300985 4.44906506 7.27734375 6.734375 C8.18033203 7.52521484 8.18033203 7.52521484 9.1015625 8.33203125 C25.82904974 23.57782965 33.96079189 47.47047071 35.203125 69.49243164 C36.06222474 94.40334101 27.88289855 118.94425758 10.83642578 137.28466797 C8.73124804 139.53790217 6.62481583 141.7899367 4.51342773 144.03735352 C-2.12905828 151.19285534 -6.17483345 158.1238104 -7.046875 168.015625 C-6.96807547 170.78229718 -6.96807547 170.78229718 -5.1796875 172.578125 C-3.0779243 174.06079472 -0.91367861 175.38851849 1.27734375 176.734375 C6.43042183 181.88745308 9.05767636 187.1988895 9.41015625 194.4765625 C9.01481927 202.87165959 6.00525187 208.33999856 0.02734375 214.109375 C-3.82492788 217.2388142 -7.87994885 218.09746564 -12.72265625 218.734375 C-12.67625 219.70117188 -12.62984375 220.66796875 -12.58203125 221.6640625 C-12.25949758 233.29831289 -14.13986997 241.5491078 -21.6640625 250.69140625 C-29.24086277 258.2106976 -38.22843837 261.03624661 -48.63671875 261.10546875 C-49.48761078 261.11449722 -50.33850281 261.1235257 -51.21517944 261.13282776 C-53.01206979 261.14728914 -54.80901231 261.15620674 -56.60595703 261.15991211 C-59.31896858 261.17174983 -62.02965904 261.22092352 -64.7421875 261.27148438 C-76.83619021 261.3841856 -87.95120043 260.28203002 -97.1953125 251.53515625 C-103.69123163 243.87628485 -107.1010119 235.91564526 -106.84765625 225.859375 C-106.83863281 225.17101562 -106.82960937 224.48265625 -106.8203125 223.7734375 C-106.79698138 222.09359662 -106.76111951 220.41393754 -106.72265625 218.734375 C-107.55796875 218.63962891 -107.55796875 218.63962891 -108.41015625 218.54296875 C-115.93630491 217.3352253 -120.27076126 213.89460683 -125.07421875 208.10546875 C-128.78526891 202.56559171 -129.34260468 195.78687997 -128.3515625 189.30859375 C-126.37578772 182.20316766 -121.85284356 176.96028597 -115.91015625 172.734375 C-113.72265625 171.734375 -113.72265625 171.734375 -111.72265625 171.734375 C-112.05265625 171.074375 -112.38265625 170.414375 -112.72265625 169.734375 C-112.98844905 167.6947042 -113.2356246 165.65258786 -113.47265625 163.609375 C-114.90387778 154.18198099 -118.84961961 149.38849311 -125.55078125 142.9140625 C-143.80748251 124.59168965 -154.39222932 100.74193135 -154.74560547 74.81054688 C-154.44299303 47.43377921 -144.113294 23.4313273 -124.57617188 4.10424805 C-113.92210668 -5.97100819 -101.53760565 -12.57375539 -87.72265625 -17.265625 C-86.665625 -17.6265625 -85.60859375 -17.9875 -84.51953125 -18.359375 C-55.61543461 -26.20269771 -22.83504093 -19.00189919 0 0 Z M-111.16015625 14.171875 C-113.05168845 15.99386786 -114.88657583 17.85490124 -116.72265625 19.734375 C-117.46128906 20.45238281 -118.19992188 21.17039062 -118.9609375 21.91015625 C-132.49586811 35.86558955 -138.23338991 55.68129257 -138.72265625 74.734375 C-138.36696094 95.37370814 -130.01803592 114.00580201 -115.72265625 128.734375 C-104.59241651 140.82939239 -97.8261542 150.68090146 -96.93359375 167.36328125 C-96.98230983 169.68861039 -96.98230983 169.68861039 -95.72265625 170.734375 C-86.48265625 170.734375 -77.24265625 170.734375 -67.72265625 170.734375 C-67.72265625 147.634375 -67.72265625 124.534375 -67.72265625 100.734375 C-72.67265625 100.404375 -77.62265625 100.074375 -82.72265625 99.734375 C-84.37265625 99.404375 -86.02265625 99.074375 -87.72265625 98.734375 C-87.97325815 97.32134262 -88.19727546 95.90358026 -88.41015625 94.484375 C-88.53777344 93.69546875 -88.66539062 92.9065625 -88.796875 92.09375 C-88.69937154 88.99416624 -87.85531583 87.95280646 -85.72265625 85.734375 C-83.40795898 85.22644043 -83.40795898 85.22644043 -80.65625 85.21679688 C-79.62508057 85.20418823 -78.59391113 85.19157959 -77.53149414 85.17858887 C-76.41895264 85.18668579 -75.30641113 85.19478271 -74.16015625 85.203125 C-73.01732178 85.1992981 -71.8744873 85.19547119 -70.69702148 85.19152832 C-68.27945068 85.1888049 -65.86185063 85.19619597 -63.44433594 85.21289062 C-59.73696399 85.2342924 -56.03153019 85.21310162 -52.32421875 85.1875 C-49.97786029 85.1901432 -47.63150304 85.19526801 -45.28515625 85.203125 C-44.17261475 85.19502808 -43.06007324 85.18693115 -41.91381836 85.17858887 C-40.88264893 85.19119751 -39.85147949 85.20380615 -38.7890625 85.21679688 C-37.88099854 85.21997925 -36.97293457 85.22316162 -36.03735352 85.22644043 C-33.72265625 85.734375 -33.72265625 85.734375 -31.92163086 87.57531738 C-30.32715871 90.44656854 -30.44701636 92.49560626 -30.72265625 95.734375 C-31.21765625 97.219375 -31.21765625 97.219375 -31.72265625 98.734375 C-38.29246547 100.04833684 -45.03757843 100.28870315 -51.72265625 100.734375 C-51.72265625 123.834375 -51.72265625 146.934375 -51.72265625 170.734375 C-42.15265625 170.734375 -32.58265625 170.734375 -22.72265625 170.734375 C-22.22765625 164.299375 -22.22765625 164.299375 -21.72265625 157.734375 C-18.99938788 146.95023226 -14.30181558 140.57831462 -6.78125 132.609375 C9.48326143 115.37411557 19.27734375 95.89237525 19.27734375 71.734375 C17.82032658 49.8108197 9.84268292 31.94034126 -5.72265625 16.734375 C-6.44066406 15.99574219 -7.15867187 15.25710937 -7.8984375 14.49609375 C-35.19965274 -11.982486 -83.58603497 -11.28285825 -111.16015625 14.171875 Z M-111.72265625 190.734375 C-112.80290283 193.13547717 -112.80290283 193.13547717 -112.72265625 195.734375 C-111.10109996 199.22072101 -109.95812333 200.57739694 -106.72265625 202.734375 C-103.39170663 203.05569775 -103.39170663 203.05569775 -99.5703125 203.04296875 C-98.13996984 203.06812634 -96.70963139 203.0935244 -95.27929688 203.11914062 C-93.03004017 203.1478859 -90.78085651 203.17191087 -88.53149414 203.19067383 C-86.3565525 203.21235415 -84.18245964 203.25178957 -82.0078125 203.29296875 C-80.05693726 203.31315063 -80.05693726 203.31315063 -78.06665039 203.33374023 C-74.58574906 203.75077747 -73.16003682 204.26942567 -70.72265625 206.734375 C-70.2265625 208.671875 -70.2265625 208.671875 -70.28515625 210.734375 C-70.28644531 211.415 -70.28773438 212.095625 -70.2890625 212.796875 C-70.85052727 215.3057626 -71.74637647 216.11668083 -73.72265625 217.734375 C-75.6237793 218.16674805 -75.6237793 218.16674805 -77.734375 218.24609375 C-78.87036133 218.29926758 -78.87036133 218.29926758 -80.02929688 218.35351562 C-80.81498047 218.37607422 -81.60066406 218.39863281 -82.41015625 218.421875 C-83.60608398 218.47311523 -83.60608398 218.47311523 -84.82617188 218.52539062 C-86.79117529 218.60775604 -88.75689321 218.67274567 -90.72265625 218.734375 C-91.09292233 227.20935409 -91.13965631 232.76326682 -85.41015625 239.421875 C-80.21124224 243.89535914 -75.66947774 245.19196539 -68.91015625 245.1328125 C-67.81223755 245.13711777 -67.81223755 245.13711777 -66.69213867 245.14151001 C-65.15249859 245.14354147 -63.61283215 245.13807612 -62.07324219 245.12548828 C-59.72922541 245.10942003 -57.38693251 245.12536677 -55.04296875 245.14453125 C-53.54036081 245.14254865 -52.03775394 245.13870463 -50.53515625 245.1328125 C-49.84123779 245.13888519 -49.14731934 245.14495789 -48.43237305 245.1512146 C-42.39461771 245.06482163 -38.51766325 243.32066026 -34.03515625 239.359375 C-29.76997495 234.51781785 -28.33732365 231.45035088 -28.53515625 224.921875 C-28.56222656 223.76042969 -28.58929688 222.59898437 -28.6171875 221.40234375 C-28.66939453 220.08169922 -28.66939453 220.08169922 -28.72265625 218.734375 C-29.9034375 218.70859375 -31.08421875 218.6828125 -32.30078125 218.65625 C-33.85810948 218.59996103 -35.41539972 218.54261386 -36.97265625 218.484375 C-37.74996094 218.47019531 -38.52726562 218.45601562 -39.328125 218.44140625 C-43.10339913 218.28006975 -45.13827176 218.16406948 -48.24609375 215.87890625 C-50.23543712 212.98962183 -50.1615271 211.17219665 -49.72265625 207.734375 C-47.72265625 204.734375 -47.72265625 204.734375 -44.72265625 203.734375 C-42.35186679 203.62924382 -39.97849906 203.57914523 -37.60546875 203.55859375 C-36.17967274 203.53539553 -34.75389143 203.51127819 -33.328125 203.48632812 C-31.08762754 203.451236 -28.84767232 203.4218751 -26.60693359 203.40844727 C-24.43911668 203.39292533 -22.27286843 203.35269809 -20.10546875 203.30859375 C-18.81012207 203.29401123 -17.51477539 203.27942871 -16.18017578 203.2644043 C-12.19432174 202.65338261 -10.53685625 201.56917628 -7.72265625 198.734375 C-6.56055406 196.34086005 -6.56055406 196.34086005 -6.72265625 193.734375 C-8.10823412 190.89723936 -9.49267329 188.96435796 -11.72265625 186.734375 C-14.7443552 186.52492618 -17.67511485 186.44074821 -20.69873047 186.44384766 C-21.62894012 186.43713043 -22.55914978 186.43041321 -23.51754761 186.42349243 C-26.6042001 186.40443588 -29.69063603 186.40058431 -32.77734375 186.3984375 C-34.91724743 186.39201462 -37.05715021 186.38528665 -39.197052 186.37826538 C-43.68786658 186.36627325 -48.17860413 186.36258652 -52.66943359 186.36376953 C-58.42889842 186.36397277 -64.18787004 186.33667432 -69.94721794 186.30222511 C-74.36868567 186.28000556 -78.79003381 186.27593048 -83.21155167 186.27698898 C-85.33507105 186.27462542 -87.45859335 186.26575965 -89.58205795 186.25032425 C-92.55098905 186.23076551 -95.51884519 186.23646275 -98.48779297 186.24853516 C-99.36794067 186.23729614 -100.24808838 186.22605713 -101.15490723 186.21447754 C-106.0373328 186.26502075 -108.73274374 186.45162391 -111.72265625 190.734375 Z " fill="#091337" transform="translate(315.72265625,20.265625)"/>
<path d="M0 0 C1.14662109 0.00193359 1.14662109 0.00193359 2.31640625 0.00390625 C4.92375517 0.53690023 5.81068202 1.36655073 7.4375 3.4375 C8.40561095 6.26736278 8.5983941 7.88320589 7.76171875 10.765625 C6.12276976 14.07253092 4.02830974 16.18488898 1.4375 18.8125 C-19.05384276 40.41084244 -31.21536441 70.8005171 -32.5625 100.4375 C-32.61535156 101.51773438 -32.66820313 102.59796875 -32.72265625 103.7109375 C-33.32820295 127.98546193 -27.30640101 151.28418541 -15.5625 172.4375 C-15.08167969 173.3346875 -14.60085937 174.231875 -14.10546875 175.15625 C-8.91688092 184.36711485 -1.95148525 192.68447309 5.0625 200.5625 C7.27155185 203.2366154 7.93052952 204.18390465 8.4375 207.4375 C7.65983404 210.33607312 6.75738172 212.08207587 4.75 214.3125 C1.3367242 215.97301255 -0.91077342 215.26548506 -4.5625 214.4375 C-28.07703362 197.79985829 -42.52115784 161.78466699 -47.3125 134.5625 C-47.75870559 131.85722788 -48.16575816 129.15088127 -48.5625 126.4375 C-48.69527344 125.54804687 -48.82804687 124.65859375 -48.96484375 123.7421875 C-53.58122526 86.43170678 -42.41330471 47.09209633 -19.5625 17.4375 C-16.01804479 12.998316 -12.34624177 8.67409905 -8.5625 4.4375 C-7.55316406 3.27734375 -7.55316406 3.27734375 -6.5234375 2.09375 C-4.17185306 0.10755119 -3.03993949 -0.07715582 0 0 Z " fill="#091337" transform="translate(75.5625,-0.4375)"/>
<path d="M0 0 C3.87915121 0.14161981 5.81462216 0.88965129 8.625 3.5625 C10.08266539 5.21471436 11.49227821 6.90957552 12.875 8.625 C13.59478027 9.49487549 13.59478027 9.49487549 14.32910156 10.38232422 C32.89443949 32.94555839 45.25282989 59.47916612 48.875 88.625 C48.98585938 89.47578125 49.09671875 90.3265625 49.2109375 91.203125 C53.41442768 129.14814447 42.72160784 168.800331 19.21484375 198.96972656 C8.52002932 212.18234352 8.52002932 212.18234352 2.875 215.625 C-0.58187503 215.50370614 -3.08867732 215.31588179 -6 213.375 C-7.52398926 211.00435004 -7.99319981 209.45870413 -8.125 206.625 C-6.20906335 202.07308516 -3.78634055 198.91347126 -0.375 195.375 C19.26359887 174.20169152 31.82831354 144.61366412 32.875 115.625 C32.91496094 114.52542969 32.95492187 113.42585938 32.99609375 112.29296875 C33.64891122 75.61998732 20.59960543 42.53229511 -4.125 15.625 C-4.71796875 15.05136719 -5.3109375 14.47773438 -5.921875 13.88671875 C-7.78289203 11.93506777 -7.93578684 10.27398426 -8.125 7.625 C-6.6727621 2.82144386 -5.17217544 0.34240883 0 0 Z " fill="#091337" transform="translate(436.125,-0.625)"/>
<path d="M0 0 C15.85845163 11.7797974 25.17722195 33.42111242 30 52 C30.34998047 53.31677734 30.34998047 53.31677734 30.70703125 54.66015625 C36.92241234 81.44442441 31.18940486 110.64218936 16.87255859 133.82568359 C5.02566517 152.28738796 5.02566517 152.28738796 -2 155 C-5.35205511 154.82357605 -7.97391301 154.56269287 -10.9375 152.9375 C-12.67794579 149.76374591 -12.57613054 146.48565075 -12 143 C-10.38204055 140.61469948 -8.98590337 138.88328614 -7 136.875 C8.57772923 119.81786373 16.661821 97.02022511 15.93457031 73.921875 C14.77091592 51.80249582 6.52551639 30.93193186 -9.03125 15.0390625 C-11.65651644 12.32003654 -11.96585569 11.46094816 -12.25 7.625 C-11.99015512 3.85724926 -11.67186361 2.5729057 -9 0 C-5.41003154 -1.19665615 -3.64052852 -0.95270468 0 0 Z " fill="#091337" transform="translate(411,30)"/>
<path d="M0 0 C1.9375 1.0625 1.9375 1.0625 3 3 C3.72366002 6.37708009 3.92151424 7.77203683 3 11 C0.32821922 14.95164044 -2.8542761 18.42211594 -6 22 C-22.15918587 42.5072399 -26.358878 67.12446913 -23.73193359 92.59960938 C-21.02642221 110.55471462 -11.83771761 126.73706575 0.5625 139.75 C2.7033333 142.19581235 3.46032176 143.92928578 3.6875 147.1875 C3 151 3 151 0.9375 153.5625 C-2.96490496 155.47218753 -4.86369834 155.255663 -9 154 C-11.4375 152 -11.4375 152 -14 149 C-14.57234375 148.42765625 -15.1446875 147.8553125 -15.734375 147.265625 C-34.84277669 127.54575446 -41.62481074 100.16287157 -41.47827148 73.48120117 C-40.97424827 47.10506684 -31.04870211 22.17224755 -12.5 3.1875 C-8.13421591 -1.00830479 -6.07922266 -1.27983635 0 0 Z " fill="#091337" transform="translate(110,30)"/>
<path d="M0 0 C4.23595516 1.36155702 5.65554842 2.71165811 8.5 6.125 C9.056875 6.76695313 9.61375 7.40890625 10.1875 8.0703125 C22.21031211 22.52878051 25.06281709 39.83561696 23.5 58.125 C21.58158626 72.25091981 14.83743996 85.33413733 4.5 95.125 C1.64675563 96.55162219 -0.33454549 96.43533868 -3.5 96.125 C-6.375 94.5625 -6.375 94.5625 -8.5 92.125 C-9.09277388 87.67380708 -8.79221879 85.60961475 -6.453125 81.73046875 C-5.56516809 80.5809187 -4.66353044 79.44183384 -3.75 78.3125 C5.49180124 66.19831263 7.86375515 54.18684719 6.5 39.125 C4.71526706 30.17401796 0.8305905 23.34730833 -5.19677734 16.64916992 C-7.65908139 13.81030557 -8.48970697 12.21506399 -8.921875 8.43359375 C-8.5 5.125 -8.5 5.125 -6.4375 2.125 C-3.5 0.125 -3.5 0.125 0 0 Z " fill="#091337" transform="translate(377.5,58.875)"/>
<path d="M0 0 C2.62468522 2.20134889 2.95232457 3.78329348 3.6875 7.125 C2.79038242 12.18148091 0.39623689 14.5503781 -2.89453125 18.3828125 C-11.7886247 29.43855019 -13.20032842 42.33283348 -12 56 C-10.16681072 65.70382826 -5.12817843 74.09640344 1.18359375 81.59375 C3 84 3 84 3.5625 87.5625 C3 91 3 91 0.875 93.4375 C-2.60595691 95.32932441 -4.10050995 95.77989801 -8 95 C-18.41734692 89.05754113 -24.48777471 75.01152539 -27.56640625 63.96826172 C-31.71195746 47.03442531 -29.59342512 28.63777406 -20.7109375 13.578125 C-10.00919118 -2.54779412 -10.00919118 -2.54779412 0 0 Z " fill="#091337" transform="translate(140,60)"/>
</svg>
