<?xml version="1.0" encoding="UTF-8"?>
<svg version="1.1" xmlns="http://www.w3.org/2000/svg" width="1894" height="1930">
<path d="M0 0 C9.24843791 7.16753938 16.567694 14.9945012 22.25 25.25 C22.64960937 25.96542969 23.04921875 26.68085937 23.4609375 27.41796875 C29.7814396 40.08273424 30.4024624 56.38240216 32.39648438 70.23046875 C32.70209682 72.33168446 33.00806602 74.43284831 33.31435776 76.53396511 C34.15161836 82.28445325 34.98391992 88.03564969 35.81542301 93.78697276 C36.71874823 100.02858712 37.62682929 106.26950971 38.53436279 112.51051331 C40.11300966 123.37091597 41.68886596 134.23171993 43.26281738 145.09280396 C45.66526348 161.67056619 48.07297273 178.24756145 50.48191363 194.82438101 C51.34930216 200.79328598 52.21659082 206.76220547 53.08388165 212.73112465 C53.30364942 214.24361922 53.5234196 215.75611344 53.74319217 217.26860731 C55.3156468 228.09044235 56.88744439 238.91237265 58.4587613 249.73437294 C67.69800163 313.36668328 76.96804773 376.99449454 86.24436951 440.62140846 C86.36253192 441.43189285 86.48069434 442.24237723 86.60243744 443.07742175 C86.72040918 443.8865977 86.83838092 444.69577365 86.95992756 445.52947009 C87.19765038 447.16002757 87.43537309 448.79058507 87.6730957 450.42114258 C87.79044772 451.22606747 87.90779973 452.03099237 88.02870786 452.86030893 C90.0100265 466.45041663 91.99063509 480.04062772 93.97092247 493.63088572 C95.09296957 501.33121565 96.21508524 509.03153556 97.33746338 516.73181725 C97.44625867 517.4782282 97.55505397 518.22463914 97.66714609 518.99366861 C98.10223769 521.97867439 98.53733371 524.96367953 98.97244477 527.94868247 C100.13136358 535.89926457 101.29004676 543.84988081 102.44790649 551.80061722 C107.82097808 588.72256131 107.82097808 588.72256131 113.27467394 625.6326586 C113.65294855 628.17238129 114.03056377 630.7122011 114.40795517 633.25205517 C114.6437543 634.83844506 114.87957448 636.42483183 115.11541748 638.01121521 C115.22735372 638.76416121 115.33928997 639.5171072 115.45461822 640.29286975 C115.97736069 643.80522445 116.50256193 647.31717345 117.03403473 650.82821846 C121.17065429 678.17662781 124.2638892 701.3140211 107.4765625 725.36328125 C95.837927 740.45267009 79.18941389 750.55915431 60.25 753.25 C40.58657218 755.08480023 23.05373938 749.62819733 7.3125 737.75 C-2.85139929 729.15502476 -12.06785893 719.31543383 -20.75 709.25 C-28.0976569 700.94549389 -35.83972674 693.03299065 -43.65362549 685.1701355 C-44.74393588 684.07242372 -45.83264999 682.97312367 -46.9196167 681.87210083 C-53.86019683 674.85024331 -60.99646974 668.38501855 -68.75 662.25 C-69.98258621 661.22676146 -71.2122033 660.19992509 -72.4375 659.16796875 C-81.98021169 651.24897613 -92.10945264 644.59837766 -102.75 638.25 C-103.48057617 637.80914063 -104.21115234 637.36828125 -104.96386719 636.9140625 C-139.12274019 616.46521336 -178.54384256 606.2362361 -217.75 601.25 C-218.86455566 601.09901855 -219.97911133 600.94803711 -221.12744141 600.79248047 C-241.46185589 598.1281692 -261.77919427 597.98217177 -282.25 598 C-282.91832981 598.00026688 -283.58665962 598.00053375 -284.27524185 598.00080872 C-310.47127258 597.4953279 -310.47127258 597.4953279 -336.33203125 600.84765625 C-340.2003966 601.49134224 -344.03485029 601.26252086 -347.9453125 601.1875 C-355.58300535 601.31296518 -363.17030971 602.35356356 -370.75 603.25 C-368.34876837 607.53676251 -365.47224202 611.21191586 -362.375 615 C-357.92695308 620.4944859 -353.58180174 626.05313498 -349.3125 631.6875 C-344.4904197 638.03869115 -339.53885787 644.26557311 -334.48901367 650.43676758 C-329.60764766 656.40501466 -324.83822903 662.45568628 -320.09277344 668.53222656 C-317.81766067 671.44271628 -315.5333163 674.34594496 -313.25 677.25 C-312.33329022 678.41663279 -311.41662352 679.58329944 -310.5 680.75 C-310.04625 681.3275 -309.5925 681.905 -309.125 682.5 C-294 701.75 -294 701.75 -292.62524414 703.49975586 C-291.70784991 704.6673041 -290.79036933 705.83478449 -289.87280273 707.00219727 C-287.59155755 709.9048279 -285.31178786 712.80859274 -283.03515625 715.71484375 C-278.83999658 721.06695098 -274.6317142 726.40642325 -270.36914062 731.70507812 C-265.59763294 737.63671709 -260.91472522 743.62344019 -256.3125 749.6875 C-251.49111198 756.03667076 -246.54048074 762.26154711 -241.4934082 768.43237305 C-214.47047719 801.48497732 -214.47047719 801.48497732 -214.4375 810.125 C-214.42074219 811.13304687 -214.40398438 812.14109375 -214.38671875 813.1796875 C-215.39234897 821.67888487 -221.43545942 826.24730891 -227.75 831.25 C-240.69315499 841.19641273 -254.37353143 850.17285059 -267.89013672 859.30957031 C-271.09920093 861.48693435 -274.29216786 863.68646878 -277.47998047 865.89477539 C-280.56035579 868.02737247 -283.65172039 870.14351364 -286.75 872.25 C-287.62325928 872.84433838 -287.62325928 872.84433838 -288.51416016 873.45068359 C-314.41794764 890.95285322 -343.71362285 902.50750486 -375.34790039 896.73046875 C-400.78475244 891.52269743 -417.5454424 874.71085599 -433.3671875 855.16796875 C-435.95755848 851.99582593 -438.59682867 848.86956706 -441.25 845.75 C-445.37124182 840.90060094 -449.41991814 835.99838629 -453.4375 831.0625 C-456.01146392 827.93200334 -458.62569086 824.83827539 -461.25 821.75 C-465.37101634 816.90040619 -469.41991354 811.99839194 -473.4375 807.0625 C-476.01146392 803.93200334 -478.62569086 800.83827539 -481.25 797.75 C-485.37101634 792.90040619 -489.41991354 787.99839194 -493.4375 783.0625 C-496.01146392 779.93200334 -498.62569086 776.83827539 -501.25 773.75 C-505.37101634 768.90040619 -509.41991354 763.99839194 -513.4375 759.0625 C-516.01146545 755.93200149 -518.62576903 752.83834366 -521.25 749.75 C-526.89857944 743.09966349 -532.41823508 736.34878994 -537.921875 729.578125 C-542.44411815 724.02955717 -547.02883279 718.54085205 -551.66357422 713.08642578 C-555.30954932 708.78888375 -558.8797728 704.43342199 -562.4375 700.0625 C-565.01146392 696.93200334 -567.62569086 693.83827539 -570.25 690.75 C-574.37101634 685.90040619 -578.41991354 680.99839194 -582.4375 676.0625 C-585.01146697 672.93199964 -587.62584726 669.83841197 -590.25 666.75 C-593.69634067 662.69055077 -597.1203277 658.61538327 -600.5 654.5 C-601.23863281 653.62472656 -601.97726562 652.74945312 -602.73828125 651.84765625 C-604.75 649.25 -604.75 649.25 -606.23046875 646.49609375 C-607.84866023 643.65449746 -608.99631425 642.03316244 -611.75 640.25 C-616.87812048 639.86703651 -621.64016921 640.79424026 -626.67626953 641.71923828 C-632.30129787 642.69054977 -637.96637018 643.3823201 -643.62744141 644.10684204 C-645.64387327 644.36932111 -647.65785117 644.64621748 -649.671875 644.92651367 C-683.45354837 649.47223656 -718.4098529 640.82459743 -745.97094727 620.59301758 C-748.63130864 618.55703922 -751.20842425 616.43087697 -753.75 614.25 C-754.30026855 613.77804199 -754.85053711 613.30608398 -755.41748047 612.81982422 C-773.01942885 597.5284784 -786.17130998 578.43756473 -795.75 557.25 C-796.0795166 556.53295898 -796.4090332 555.81591797 -796.74853516 555.07714844 C-807.06528469 532.43062506 -813.97427358 507.99779236 -816.75 483.25 C-816.86214844 482.25097656 -816.97429688 481.25195312 -817.08984375 480.22265625 C-821.43611362 432.05645997 -813.80486434 380.9589777 -782.33129883 342.73193359 C-773.10534575 331.83163539 -762.71590475 322.9952038 -750.75 315.25 C-749.84121094 314.64414063 -748.93242188 314.03828125 -747.99609375 313.4140625 C-682.33500422 272.13070322 -567.43760343 276.11540327 -492.46058083 266.05946732 C-400.35554057 253.70099072 -301.20359617 237.74510974 -186.75 156.25 C-185.80954834 155.35039551 -185.80954834 155.35039551 -184.85009766 154.43261719 C-176.19457083 146.11007579 -168.16194768 137.63246845 -161.02685547 127.96679688 C-159.76156713 126.26555259 -158.4652111 124.59273697 -157.16015625 122.921875 C-140.31239583 101.05530134 -127.6714786 75.95403191 -115.85546875 51.109375 C-115.52765411 50.42243561 -115.19983948 49.73549622 -114.86209106 49.02774048 C-113.27853407 45.7068589 -111.70749477 42.38130135 -110.16210938 39.04248047 C-99.88181915 17.11828894 -84.89611486 -1.02060811 -61.75 -9.75 C-40.55335846 -16.13539824 -18.23122913 -12.69262788 0 0 Z M-62.75 37.25 C-69.38391167 45.006481 -73.74021859 53.73551463 -78.04568481 62.89306641 C-79.15033253 65.24135249 -80.26937328 67.58229592 -81.39233398 69.921875 C-83.52095955 74.36013201 -85.63653007 78.80451145 -87.75 83.25 C-101.48959293 112.10808583 -118.10623725 138.82260825 -138.75 163.25 C-139.81541016 164.51457031 -139.81541016 164.51457031 -140.90234375 165.8046875 C-152.0410065 178.55349358 -164.20901172 191.06093006 -177.75 201.25 C-178.9575626 202.18551245 -180.16455061 203.12176685 -181.37109375 204.05859375 C-231.7481985 242.8472152 -291.44201928 264.91337077 -352.24853516 281.27368164 C-355.16696543 282.08743165 -358.06787788 282.93791999 -360.96884155 283.8110199 C-362.31363618 284.21546153 -362.31363618 284.21546153 -363.68559837 284.62807369 C-364.36685091 284.83330937 -365.04810345 285.03854506 -365.75 285.25 C-361.12775642 318.6294693 -356.33983022 351.98165163 -351.40951395 385.31695294 C-350.87352078 388.9417439 -350.33807148 392.5666148 -349.8027916 396.19151115 C-347.92973468 408.87560477 -346.05470629 421.55940506 -344.17773438 434.24291992 C-342.62882392 444.70992462 -341.08305338 455.1773885 -339.54003906 465.64526367 C-337.84234519 477.16233687 -336.1418272 488.67898813 -334.43748367 500.19507927 C-333.54078407 506.25438113 -332.64538819 512.31386862 -331.75323868 518.37384224 C-330.9212506 524.02445375 -330.08533992 529.67447064 -329.24630165 535.32403946 C-328.93886851 537.39880704 -328.63287478 539.47378847 -328.32838631 541.54899025 C-327.91473535 544.3666631 -327.49602804 547.18353748 -327.07595825 550.0002594 C-326.95524464 550.83092204 -326.83453102 551.66158468 -326.71015942 552.51741892 C-326.44496955 556.19190295 -326.44496955 556.19190295 -324.75 559.25 C-322.50126934 559.32869693 -320.25002062 559.33566707 -318 559.31591797 C-317.29208313 559.31124512 -316.58416626 559.30657227 -315.85479736 559.30175781 C-314.3057303 559.29121298 -312.75667667 559.27853689 -311.2076416 559.26403427 C-308.72013094 559.24192198 -306.23269812 559.22788896 -303.74511719 559.21633911 C-296.66655843 559.18291853 -289.58811742 559.14294385 -282.50976562 559.07861328 C-253.28401091 558.82195609 -224.4847146 559.86857471 -195.625 564.9375 C-194.89837158 565.06150177 -194.17174316 565.18550354 -193.4230957 565.31326294 C-141.68689446 574.19369935 -92.20184241 593.59097265 -50.75 626.25 C-49.94046875 626.8790625 -49.1309375 627.508125 -48.296875 628.15625 C-35.90410452 637.91055967 -24.35286612 648.33363518 -13.26098633 659.53320312 C-11.29505282 661.51761113 -9.3210152 663.4936814 -7.34570312 665.46875 C-1.81504491 671.01491571 3.68906967 676.54343919 8.76586914 682.51416016 C11.49372266 685.70465835 14.38156681 688.74878286 17.25 691.8125 C17.8275 692.43318359 18.405 693.05386719 19 693.69335938 C28.43756395 703.79450204 37.02183399 712.95444238 51.5 714.625 C59.88250405 713.78674959 67.70785495 710.74816507 73.25 704.25 C84.26307655 688.82659418 80.16310243 673.87749465 77.55834961 656.34057617 C77.27709647 654.42790684 76.99617274 652.51518905 76.71554756 650.60242748 C75.94525454 645.35870393 75.17028668 640.1156805 74.39453435 634.8727622 C73.55412647 629.18719112 72.71806848 623.50098019 71.88145447 617.81484985 C70.23305038 606.6160631 68.58062502 595.41787316 66.92692107 584.21986794 C65.57041714 575.03347775 64.21563666 565.84683469 62.86212158 556.66000366 C62.7653351 556.00308571 62.66854862 555.34616775 62.56882921 554.6693432 C62.17528227 551.99819494 61.78174547 549.3270452 61.38822199 546.65589349 C57.32596488 519.08227468 53.25835764 491.50944685 49.18870163 463.93691921 C48.75301717 460.98508667 48.31733435 458.03325388 47.88165283 455.0814209 C47.77348274 454.3485499 47.66531266 453.61567891 47.55386469 452.8605997 C45.12741359 436.42082528 42.70231904 419.98085081 40.27739911 403.54085048 C39.27930211 396.77417323 38.28117174 390.0075009 37.28303528 383.24082947 C37.17322476 382.4963904 37.06341425 381.75195134 36.95027614 380.98495352 C31.23597453 342.2461384 25.51993593 303.50757943 19.80076921 264.76948225 C19.39743352 262.03751822 18.99412563 259.30555008 18.59084284 256.57357824 C16.43490565 241.96857248 14.27760303 227.36377139 12.11665344 212.75950623 C11.35333444 207.59962148 10.59018119 202.43971224 9.82714844 197.27978516 C9.63967116 196.01209907 9.45219388 194.74441299 9.25903547 193.43831217 C6.58756191 175.36860088 3.93976053 157.2955653 1.30658849 139.22024405 C0.60852601 134.42952693 -0.09118111 129.63905231 -0.79205894 124.8487463 C-0.88940043 124.18343822 -0.98674192 123.51813015 -1.08703315 122.83266122 C-1.57222212 119.51696511 -2.05764459 116.20130333 -2.54322755 112.88566488 C-3.66123025 105.24799983 -4.77152621 97.60926751 -5.87592411 89.96962404 C-6.55267177 85.30124958 -7.23679263 80.63397797 -7.92300272 75.96698594 C-8.23809363 73.81338192 -8.55009004 71.65932249 -8.85873556 69.5047853 C-9.28039248 66.56410661 -9.71305081 63.62524634 -10.14840698 60.68656921 C-10.32626509 59.4174129 -10.32626509 59.4174129 -10.5077163 58.12261707 C-12.16059389 47.17705494 -16.30983776 39.48307259 -24.9375 32.4375 C-37.77773314 23.7798485 -52.22583424 27.14031337 -62.75 37.25 Z M-405.75 293.25 C-408.6382787 293.45494644 -408.6382787 293.45494644 -412.1015625 294.19262695 C-413.5431701 294.46015789 -414.98491124 294.72696984 -416.42675781 294.99320984 C-417.22166626 295.14375006 -418.01657471 295.29429028 -418.83557129 295.44939232 C-440.45411078 299.50496312 -462.21822824 302.53082184 -484 305.54296875 C-485.72155388 305.78154052 -487.44310128 306.02015907 -489.16464233 306.25882339 C-499.88593906 307.74438044 -510.60855207 309.22028813 -521.331604 310.69311523 C-565.50376522 316.76041636 -609.66965547 322.86390298 -653.78276443 329.34887528 C-656.40185821 329.73305319 -659.02129098 330.11483138 -661.64083862 330.49590111 C-707.92480184 336.65726642 -707.92480184 336.65726642 -746.75 361.25 C-747.38808594 361.83652344 -748.02617188 362.42304687 -748.68359375 363.02734375 C-770.53410769 383.70990149 -778.80976381 417.17171082 -779.8581543 446.24975586 C-780.70785207 490.20167399 -771.32142744 538.08495277 -741.75 572.25 C-740.73873047 573.47783203 -740.73873047 573.47783203 -739.70703125 574.73046875 C-726.18215623 590.62034924 -708.06496311 600.92954344 -687.75 605.25 C-686.67492187 605.48686523 -686.67492187 605.48686523 -685.578125 605.72851562 C-673.41405633 608.17642661 -661.64852336 606.87728187 -649.4921875 605.22265625 C-647.77841374 604.99574215 -646.06460661 604.76907995 -644.35076904 604.54264832 C-623.9528164 601.82013072 -603.61259068 598.69640985 -583.27412033 595.5657692 C-578.80311708 594.87852561 -574.33147925 594.19545701 -569.85986614 593.51219463 C-545.10518871 589.72845445 -520.35993833 585.88626143 -495.62298965 581.9883213 C-491.73936492 581.37640172 -487.85563978 580.76512286 -483.97189331 580.15397644 C-472.76568029 578.38995686 -461.55997887 576.62303158 -450.3568821 574.83931637 C-426.78233269 571.08999112 -403.22344112 567.48260788 -379.51353455 564.69197083 C-378.34168138 564.55322131 -378.34168138 564.55322131 -377.1461544 564.41166878 C-375.70605659 564.24229162 -374.26559031 564.07600514 -372.82470131 563.91349602 C-369.97717379 563.58123211 -367.48174829 563.16058276 -364.75 562.25 C-366.78666797 546.2314956 -369.01533122 530.24777964 -371.36352539 514.2722168 C-371.71553122 511.86817846 -372.06739984 509.46412002 -372.41914368 507.06004333 C-373.46115882 499.94279342 -374.50631608 492.82600684 -375.55226269 485.70933387 C-375.94726444 483.02139784 -376.34204993 480.33343006 -376.73683463 477.64546215 C-378.48084087 465.77126285 -380.2259673 453.8972287 -381.97422123 442.02365398 C-382.39859577 439.14134048 -382.82296311 436.25902591 -383.24731445 433.37670898 C-383.35275546 432.66053014 -383.45819647 431.94435129 -383.56683265 431.20647005 C-385.2845483 419.53802499 -386.9952254 407.86855906 -388.70309562 396.19866934 C-390.46205931 384.18046166 -392.22726518 372.16318399 -393.99864763 360.14680034 C-394.99101149 353.41389426 -395.98060754 346.68060654 -396.96318245 339.94626427 C-397.88397015 333.63552548 -398.81316745 327.32606221 -399.74821281 321.01741982 C-400.09055249 318.69820069 -400.43001276 316.37855453 -400.76644897 314.05847168 C-401.22430333 310.90410056 -401.69229109 307.75140035 -402.16297913 304.59892273 C-402.29518122 303.67104578 -402.42738332 302.74316883 -402.56359154 301.7871744 C-402.69112578 300.94742786 -402.81866002 300.10768132 -402.95005894 299.24248791 C-403.11051963 298.15050745 -403.11051963 298.15050745 -403.27422196 297.03646678 C-403.65344164 295.01234932 -403.65344164 295.01234932 -405.75 293.25 Z M-436.57983398 614.0859375 C-437.97980493 614.28339491 -439.37983615 614.48042542 -440.77992249 614.67706299 C-444.5651331 615.20990927 -448.34947638 615.74869763 -452.13368869 616.28858185 C-456.09433696 616.85259773 -460.0557611 617.41111029 -464.0171051 617.97021484 C-471.51144362 619.02881542 -479.00507448 620.09234123 -486.49846178 621.1576519 C-495.03238265 622.37064613 -503.56708073 623.57812697 -512.10184753 624.78515244 C-529.65210161 627.26731464 -547.20137102 629.75637581 -564.75 632.25 C-564.75 636.19646035 -563.4675803 637.13853044 -560.9375 640.125 C-559.70193359 641.59453125 -559.70193359 641.59453125 -558.44140625 643.09375 C-557.54437237 644.14591991 -556.64723543 645.19800196 -555.75 646.25 C-554.86256779 647.3014816 -553.97585135 648.3535677 -553.08984375 649.40625 C-550.31845914 652.69479254 -547.53515636 655.97311948 -544.75 659.25 C-538.7899173 666.26234558 -532.87241205 673.29960805 -527.0625 680.4375 C-524.0256723 684.1309391 -520.93039045 687.77298486 -517.83374023 691.41625977 C-514.9545468 694.80954109 -512.11795763 698.23267786 -509.3125 701.6875 C-505.85725849 705.93392382 -502.32302166 710.10296294 -498.75 714.25 C-494.43071044 719.26319488 -490.19902881 724.3353732 -486.02734375 729.47265625 C-483.46796028 732.59396267 -480.86410084 735.67453424 -478.25 738.75 C-474.89552873 742.69650481 -471.57778171 746.66642072 -468.3125 750.6875 C-464.85725849 754.93392382 -461.32302166 759.10296294 -457.75 763.25 C-453.43071044 768.26319488 -449.19902881 773.3353732 -445.02734375 778.47265625 C-442.46796028 781.59396267 -439.86410084 784.67453424 -437.25 787.75 C-433.89552873 791.69650481 -430.57778171 795.66642072 -427.3125 799.6875 C-423.85725849 803.93392382 -420.32302166 808.10296294 -416.75 812.25 C-412.43735261 817.25548563 -408.21156562 822.31935348 -404.046875 827.44921875 C-400.92709298 831.25344275 -397.74509171 835.00343296 -394.55444336 838.74829102 C-392.54325605 841.11253941 -390.56919051 843.48416868 -388.671875 845.94140625 C-382.00148043 853.95401437 -371.56750575 857.53194318 -361.44921875 858.59765625 C-343.40595764 859.09465626 -328.03750419 850.73984461 -313.66259766 840.59814453 C-311.33832821 838.95982236 -309.00329508 837.33736605 -306.66796875 835.71484375 C-303.74642109 833.68470083 -300.82588278 831.65320406 -297.90893555 829.61645508 C-289.87980926 824.01345194 -281.7951472 818.49544811 -273.66845703 813.03491211 C-272.80333496 812.4497583 -271.93821289 811.86460449 -271.046875 811.26171875 C-270.28729492 810.75084717 -269.52771484 810.23997559 -268.74511719 809.71362305 C-266.88692006 808.3504449 -265.32457188 806.92727493 -263.75 805.25 C-264.41644531 804.40179687 -265.08289063 803.55359375 -265.76953125 802.6796875 C-266.70052083 801.49479167 -267.63151042 800.30989583 -268.5625 799.125 C-269.05878906 798.49335937 -269.55507813 797.86171875 -270.06640625 797.2109375 C-277.54296875 787.6953125 -277.54296875 787.6953125 -278.89892578 785.96948242 C-279.80736836 784.81332755 -280.71589846 783.65724144 -281.62451172 782.5012207 C-283.9066515 779.59745028 -286.18731862 776.69254789 -288.46484375 773.78515625 C-293.19612756 767.7486907 -297.95218208 761.73376068 -302.75 755.75 C-308.00634643 749.19437 -313.2094206 742.59861504 -318.39111328 735.98388672 C-320.67453295 733.07033183 -322.96245445 730.16031584 -325.25 727.25 C-327.99048208 723.76343843 -330.73009622 720.27621854 -333.46484375 716.78515625 C-338.19612756 710.7486907 -342.95218208 704.73376068 -347.75 698.75 C-353.00634643 692.19437 -358.2094206 685.59861504 -363.39111328 678.98388672 C-365.67453303 676.07033173 -367.96250803 673.16035807 -370.25 670.25 C-371.16668823 669.08335027 -372.0833549 667.91668361 -373 666.75 C-373.45375 666.1725 -373.9075 665.595 -374.375 665 C-378.5 659.75 -378.5 659.75 -379.87475586 658.00024414 C-380.79215009 656.8326959 -381.70963067 655.66521551 -382.62719727 654.49780273 C-384.90844245 651.5951721 -387.18821214 648.69140726 -389.46484375 645.78515625 C-393.25714007 640.94696734 -397.05273755 636.11234499 -400.8984375 631.31640625 C-401.4229248 630.66220703 -401.94741211 630.00800781 -402.48779297 629.33398438 C-403.52575657 628.04272546 -404.56638858 626.75360633 -405.60986328 625.46679688 C-408.71769218 621.61754778 -411.61046017 617.71218687 -414.17578125 613.47265625 C-419.21533881 609.5585582 -430.85895492 613.26461267 -436.57983398 614.0859375 Z " fill="#091337" transform="translate(818.75,737.75)"/>
<path d="M0 0 C0.69320847 0.26526993 1.38641693 0.53053986 2.10063171 0.80384827 C8.9252709 3.44939699 15.61792574 6.37632278 22.29364014 9.37438965 C25.9915783 11.03418384 29.69725061 12.6765672 33.40234375 14.3203125 C34.54621552 14.82825851 34.54621552 14.82825851 35.7131958 15.34646606 C43.59232638 18.8392991 51.5108919 22.23770221 59.4375 25.62109375 C62.36338773 26.87084458 65.28915063 28.1208874 68.21484375 29.37109375 C68.9620166 29.69032303 69.70918945 30.00955231 70.47900391 30.3384552 C79.99677014 34.40768071 89.49809216 38.51500961 99 42.62109375 C99.92254578 43.01969604 100.84509155 43.41829834 101.79559326 43.82897949 C106.50300968 45.8629207 111.21028861 47.89717978 115.91748047 49.93164062 C124.21734939 53.51866434 132.51853549 57.10263755 140.81964111 60.6867981 C145.40975675 62.66869152 149.99980077 64.6507508 154.58984375 66.6328125 C155.49883423 67.025327 156.40782471 67.41784149 157.34436035 67.82225037 C162.77393665 70.16684287 168.20342562 72.51163746 173.63284302 74.8565979 C194.10735023 83.69950811 214.58367056 92.53819732 235.0625 101.37109375 C251.04302318 108.26378781 267.02260608 115.15864885 283 122.05859375 C283.89741913 122.44614838 284.79483826 122.833703 285.7194519 123.23300171 C292.89300014 126.3309801 300.06643713 129.42921605 307.23986816 132.52746582 C312.63012389 134.85553955 318.02042245 137.18351408 323.4107666 139.51138306 C325.21506616 140.29061569 327.01934687 141.06989197 328.8236084 141.84921265 C339.80994466 146.59457362 350.79827267 151.33527501 361.7890625 156.0703125 C365.17628092 157.5300098 368.5634705 158.98977397 371.95065308 160.44955444 C374.09985346 161.37554764 376.24919922 162.30120351 378.39871216 163.22647095 C379.41190521 163.66260712 380.42509827 164.09874329 381.46899414 164.5480957 C382.47149704 164.97959427 383.47399994 165.41109283 384.50688171 165.85566711 C387.49585148 167.14549655 390.48108003 168.44372716 393.46630859 169.7421875 C397.72306286 171.59000563 401.99863388 173.3845557 406.28759766 175.15625 C408.5108033 176.09230277 410.73394949 177.02849679 412.95703125 177.96484375 C413.97173996 178.37351685 414.98644867 178.78218994 416.03190613 179.20324707 C427.44049866 184.06091525 436.2965394 192.20095796 441.5546875 203.50390625 C446.89738877 216.88610086 444.54454536 229.60228487 439.09375 242.55859375 C438.09241095 244.83344451 437.08136872 247.10404007 436.0625 249.37109375 C435.49382462 250.65689023 434.92632189 251.94320585 434.35986328 253.22998047 C433.4371211 255.32559613 432.51358613 257.42083106 431.58670044 259.51461792 C427.88084905 267.88794305 424.26200942 276.29862041 420.63900757 284.70803833 C418.59899348 289.44181819 416.5550748 294.17391201 414.51171875 298.90625 C413.68146303 300.82958344 412.85122212 302.75292327 412.02099609 304.67626953 C409.6461215 310.17767396 407.27044587 315.67873217 404.89453125 321.1796875 C396.44578772 340.74144951 388.0016368 360.30518525 379.5625 379.87109375 C370.34375998 401.24449104 361.1183609 422.61500466 351.88916016 443.98388672 C348.34336475 452.19375967 344.79822371 460.40391518 341.25302124 468.61404419 C339.27287315 473.19973845 337.29268457 477.78541523 335.3125 482.37109375 C334.52083314 484.204427 333.72916647 486.03776033 332.9375 487.87109375 C309.1874999 542.87109398 309.1874999 542.87109398 308.00009155 545.62088013 C307.20811815 547.45492486 306.41614631 549.28897027 305.62417603 551.12301636 C303.64971516 555.69547073 301.67522753 560.26791354 299.70068359 564.84033203 C295.25384039 575.13790395 290.80772247 585.43578851 286.36238098 595.73400879 C283.18807209 603.08737992 280.01206503 610.44001654 276.83537292 617.7923584 C274.74231523 622.63734903 272.65175691 627.48340447 270.56408691 632.33071899 C269.36197817 635.1209729 268.15810082 637.91046125 266.95379639 640.69976807 C266.1572233 642.54639331 265.362986 644.39402561 264.56884766 646.24169922 C258.48250767 660.32758271 252.40849968 672.78494748 237.5625 679.37109375 C220.7061619 685.24290424 206.78159901 681.22869056 191.0625 673.93359375 C189.26901856 673.11927021 187.47551734 672.30498732 185.68092346 671.49311829 C184.45050704 670.93643942 183.22055853 670.37872523 181.99107361 669.81999207 C175.9071516 667.05909731 169.7721271 664.42495559 163.625 661.80859375 C161.28239177 660.80896935 158.93995232 659.80894936 156.59765625 658.80859375 C155.66773361 658.41152725 155.66773361 658.41152725 154.71902466 658.00643921 C145.65562633 654.1332538 136.61026497 650.21811697 127.5625 646.30859375 C125.6680525 645.49014751 123.77360261 644.67170679 121.87915039 643.85327148 C118.02614108 642.18862313 114.17320867 640.52379692 110.3203125 638.85888672 C101.98031086 635.25517145 93.63928628 631.6538253 85.29830933 628.05236816 C80.71055458 626.07145625 76.12285404 624.09041882 71.53515625 622.109375 C70.17161766 621.5205806 70.17161766 621.5205806 68.78053284 620.91989136 C63.35099235 618.57531363 57.92153882 616.23053468 52.49215698 613.8855896 C32.01764977 605.04267939 11.54132944 596.20399018 -8.9375 587.37109375 C-30.31089729 578.15235373 -51.68141091 568.92695465 -73.05029297 559.69775391 C-78.50348533 557.34255249 -83.95680328 554.987642 -89.41015625 552.6328125 C-90.31906616 552.24033325 -91.22797607 551.847854 -92.16442871 551.44348145 C-94.92211713 550.25268088 -97.67980806 549.06188615 -100.4375 547.87109375 C-121.49295691 538.77918694 -121.49295691 538.77918694 -130.50730896 534.88578796 C-132.30094484 534.11114079 -134.09461566 533.33657452 -135.88832092 532.56208801 C-140.38239433 530.62156287 -144.87594243 528.67984001 -149.3684082 526.7355957 C-158.46599821 522.80031159 -167.57074002 518.88305056 -176.69136047 515.00138855 C-181.36442638 513.01158945 -186.03458795 511.01502398 -190.70455933 509.01797485 C-192.96188173 508.05485519 -195.22058583 507.09496669 -197.48074341 506.13851929 C-200.64048233 504.80109752 -203.79522977 503.45247741 -206.94921875 502.1015625 C-207.87856232 501.71166138 -208.80790588 501.32176025 -209.76541138 500.92004395 C-224.10595891 494.73754839 -233.33319673 486.9005057 -239.4375 472.37109375 C-245.86142559 455.61970884 -237.56031115 439.08182136 -230.875 423.80859375 C-230.2164593 422.28991953 -229.55860209 420.77094877 -228.90136719 419.25170898 C-227.49154208 415.99540897 -226.07795667 412.74077808 -224.66162109 409.48730469 C-222.39532036 404.2786508 -220.14348207 399.06382075 -217.89453125 393.84765625 C-214.70869688 386.45965209 -211.52025769 379.07278525 -208.328125 371.6875 C-203.92355373 361.49662043 -199.52177784 351.304536 -195.12097168 341.11203003 C-193.14327682 336.53166222 -191.16537794 331.95138251 -189.1875 327.37109375 C-188.39583236 325.53776084 -187.60416569 323.7044275 -186.8125 321.87109375 C-106.06249998 134.87109369 -106.06249998 134.87109369 -104.87509155 132.12130737 C-104.08311815 130.28726264 -103.29114631 128.45321723 -102.49917603 126.61917114 C-100.52471516 122.04671677 -98.55022753 117.47427396 -96.57568359 112.90185547 C-92.12886425 102.60433881 -87.68259993 92.30658295 -83.23751831 82.00831604 C-81.21648731 77.3263134 -79.19475463 72.64461629 -77.17138672 67.96362305 C-76.39548828 66.16846547 -75.61960909 64.37329958 -74.84375 62.578125 C-74.46824005 61.70929184 -74.0927301 60.84045868 -73.70584106 59.94529724 C-71.61816062 55.11241606 -69.53727926 50.27670687 -67.46487427 45.43725586 C-66.27355659 42.65625553 -65.07888167 39.87670465 -63.88372803 37.09735107 C-63.09634925 35.26247469 -62.31393123 33.42547195 -61.53173828 31.58837891 C-55.37677081 17.28842887 -49.23381832 6.24544532 -34.47265625 -0.47265625 C-22.8954624 -4.88301581 -11.50397618 -4.47858278 0 0 Z M-19.3359375 37.87353516 C-22.05872063 41.10937059 -23.46233186 44.44504216 -25.0625 48.33203125 C-25.57120888 49.53309509 -25.57120888 49.53309509 -26.0901947 50.75842285 C-26.82664755 52.5000648 -27.55869021 54.24357668 -28.28683472 55.9887085 C-29.86515143 59.77089198 -31.46487562 63.54390264 -33.06321716 67.31765747 C-33.90623462 69.30863173 -34.74814464 71.30007522 -35.58900452 73.29196167 C-39.69888212 83.02101082 -43.90455411 92.7072898 -48.12789917 102.38751221 C-50.22338957 107.19075669 -52.31487717 111.99574282 -54.40625 116.80078125 C-54.82140366 117.75447601 -55.23655731 118.70817078 -55.66429138 119.69076538 C-60.25518192 130.24195389 -64.81665305 140.80581393 -69.375 151.37109375 C-69.77467987 152.29742615 -70.17435974 153.22375854 -70.58615112 154.17816162 C-70.98174225 155.09502747 -71.37733337 156.01189331 -71.78491211 156.95654297 C-72.56363525 158.76139499 -73.34236239 160.56624528 -74.12109375 162.37109375 C-74.68400368 163.67580124 -74.68400368 163.67580124 -75.25828552 165.00686646 C-78.47669864 172.46508368 -81.7051615 179.91890161 -84.9375 187.37109375 C-90.22076615 199.55323353 -95.4871579 211.74261819 -100.75 223.93359375 C-106.70458644 237.72688284 -112.66110685 251.51932576 -118.625 265.30859375 C-118.94941071 266.05867706 -119.27382141 266.80876038 -119.60806274 267.58157349 C-121.23391761 271.34070854 -122.85985869 275.09980629 -124.48583984 278.85888672 C-127.46921587 285.75622454 -130.4518096 292.65390067 -133.43447876 299.55154419 C-135.10212203 303.40807389 -136.76981339 307.26458279 -138.4375 311.12109375 C-139.1041669 312.66276032 -139.77083356 314.20442698 -140.4375 315.74609375 C-150.4375 338.87109375 -150.4375 338.87109375 -160.4375 361.99609375 C-160.76747482 362.75916336 -161.09744965 363.52223297 -161.43742371 364.3084259 C-162.10433635 365.85065566 -162.77125733 367.39288182 -163.43818665 368.93510437 C-165.10115819 372.78062621 -166.76398643 376.62620988 -168.42651367 380.47192383 C-171.81888199 388.31861879 -175.2138361 396.16418062 -178.61328125 404.0078125 C-181.63527784 410.98059721 -184.65034744 417.95633491 -187.65846252 424.93511963 C-189.4578431 429.10795316 -191.26623296 433.27669249 -193.08345032 437.44178772 C-193.89599339 439.30775169 -194.70423312 441.17550521 -195.51049805 443.04418945 C-196.47594322 445.28159795 -197.44834055 447.51602445 -198.42895508 449.74682617 C-198.84556396 450.7185376 -199.26217285 451.69024902 -199.69140625 452.69140625 C-200.05564697 453.52945801 -200.4198877 454.36750977 -200.79516602 455.23095703 C-201.70677502 457.52259554 -201.70677502 457.52259554 -200.4375 460.37109375 C-197.65023956 461.9663932 -197.65023956 461.9663932 -194.1328125 463.41796875 C-193.47539566 463.70560593 -192.81797882 463.9932431 -192.14064026 464.28959656 C-189.95228919 465.24384318 -187.75758009 466.18244133 -185.5625 467.12109375 C-184.01760633 467.79087523 -182.47309708 468.46154404 -180.92895508 469.13305664 C-176.89624424 470.88317733 -172.85780936 472.61962447 -168.81707764 474.35113525 C-166.54149411 475.32651875 -164.26688888 476.30414094 -161.99267578 477.28271484 C-154.77286789 480.38870912 -147.54825577 483.48330213 -140.3203125 486.5703125 C-131.36884273 490.39435978 -122.43290909 494.25392295 -113.5 498.12109375 C-111.96387005 498.78597667 -110.42773722 499.45085292 -108.89160156 500.11572266 C-106.53163869 501.13718532 -104.17168366 502.15866606 -101.81176758 503.18023682 C-92.16877869 507.35404238 -82.52183908 511.51869682 -72.875 515.68359375 C-71.01505376 516.48664999 -69.1551091 517.2897099 -67.29516602 518.09277344 C-63.54689176 519.71113908 -59.79859774 521.32945895 -56.05029297 522.94775391 C-47.76017394 526.52697705 -39.47032099 530.10681637 -31.18045044 533.68661499 C-26.5994781 535.66480036 -22.01848815 537.64294497 -17.4375 539.62109375 C-15.60416658 540.41276022 -13.77083325 541.20442689 -11.9375 541.99609375 C-11.03 542.38796875 -10.1225 542.77984375 -9.1875 543.18359375 C-0.93750016 546.74609368 -0.93750016 546.74609368 1.81239319 547.93354797 C3.64608222 548.72536801 5.4797716 549.51718726 7.3134613 550.30900574 C11.89135516 552.2858195 16.4692432 554.26264672 21.04711914 556.23950195 C29.36203086 559.83009823 37.67698795 563.42058926 45.99215698 567.0105896 C64.76767766 575.11676283 83.5421332 583.22537064 102.31219482 591.34417725 C119.53719283 598.79450041 136.76687893 606.23395646 153.99688721 613.67268372 C160.87975994 616.64431886 167.76220936 619.61693312 174.64453125 622.58984375 C177.61774066 623.87406861 180.59095792 625.15827528 183.56417847 626.44247437 C185.4492376 627.25671788 187.33426867 628.07102638 189.2192688 628.88540649 C190.11185394 629.27102753 191.00443909 629.65664856 191.92407227 630.05395508 C192.7933284 630.42961105 193.66258453 630.80526703 194.55818176 631.19230652 C196.23810546 631.91742829 197.91857977 632.641276 199.59965515 633.36372375 C203.35093028 634.97652364 207.09381848 636.60290977 210.81738281 638.27880859 C211.46699982 638.56765427 212.11661682 638.85649994 212.78591919 639.15409851 C214.49840834 639.91670924 216.20667108 640.68879146 217.91455078 641.46166992 C220.61828559 642.68985027 220.61828559 642.68985027 223.5625 641.37109375 C224.81338405 639.38378315 224.81338405 639.38378315 225.84765625 636.84375 C226.2856958 635.84746582 226.72373535 634.85118164 227.17504883 633.82470703 C227.65353271 632.70563965 228.1320166 631.58657227 228.625 630.43359375 C229.14537842 629.23976074 229.66575684 628.04592773 230.2019043 626.81591797 C232.00491673 622.67454153 233.78374455 618.52293194 235.5625 614.37109375 C236.21273896 612.85686846 236.86313246 611.34270952 237.51367188 609.82861328 C240.40134405 603.10519575 243.28441484 596.37982615 246.15917969 589.65087891 C252.34348562 575.17971224 258.5999382 560.74060663 264.875 546.30859375 C272.3831798 529.03803215 279.84556595 511.7488871 287.25 494.43359375 C294.83167657 476.70521583 302.48286045 459.00841093 310.18212891 441.33081055 C315.85194731 428.31210278 321.49900443 415.28380007 327.125 402.24609375 C327.71042572 400.88948135 327.71042572 400.88948135 328.30767822 399.50546265 C330.27334168 394.95008253 332.23857731 390.39451801 334.20361328 385.83886719 C337.75795233 377.5992212 341.31613427 369.36123458 344.87399292 361.12310791 C346.85364949 356.53916978 348.83306253 351.9551265 350.8125 347.37109375 C351.6041655 345.53775991 352.39583216 343.70442658 353.1875 341.87109375 C353.7753125 340.50984375 353.7753125 340.50984375 354.375 339.12109375 C355.5625 336.37109375 356.75 333.62109375 357.9375 330.87109375 C358.52525208 329.50997971 358.52525208 329.50997971 359.12487793 328.12136841 C359.9169437 326.28711618 360.70901728 324.45286732 361.50109863 322.61862183 C363.47422277 318.04937507 365.44721352 313.48007081 367.41992188 308.91064453 C371.89293623 298.55016677 376.36949347 288.19123205 380.85015869 277.83406067 C384.03626667 270.46757809 387.21279377 263.09699653 390.38616943 255.72502136 C392.36549623 251.13146694 394.35880325 246.54457368 396.37365723 241.9664917 C397.20009678 240.08581721 398.02112495 238.20289421 398.83984375 236.31884766 C399.78509339 234.14596445 400.74000555 231.97724467 401.70703125 229.81396484 C402.10792969 228.88535645 402.50882813 227.95674805 402.921875 227 C403.26702148 226.2169751 403.61216797 225.4339502 403.96777344 224.62719727 C404.75770828 221.63056843 404.82345023 220.23717559 403.5625 217.37109375 C401.00385159 215.82960099 398.71192744 214.70072881 395.97265625 213.578125 C395.17900665 213.23493225 394.38535706 212.8917395 393.56765747 212.53814697 C390.92751577 211.40170152 388.27663922 210.29291662 385.625 209.18359375 C383.76071694 208.38710638 381.89720235 207.58881814 380.03442383 206.78881836 C376.14941601 205.12404592 372.25992614 203.47047436 368.36621094 201.82617188 C362.91479768 199.52342168 357.47499678 197.19448785 352.0390625 194.85546875 C345.10384659 191.87306648 338.16492081 188.89955073 331.22265625 185.93359375 C320.36615208 181.29340701 309.52527485 176.6173294 298.6875 171.93359375 C297.32134048 171.34325851 297.32134048 171.34325851 295.92758179 170.74099731 C291.31648151 168.74841075 286.70555483 166.75542292 282.09472656 164.76220703 C273.83499878 161.19185546 265.57364228 157.62527568 257.31240845 154.05841064 C252.71993197 152.07553557 248.12754441 150.0924546 243.53515625 148.109375 C242.1717234 147.52062592 242.1717234 147.52062592 240.78074646 146.91998291 C235.35113435 144.57537563 229.92160994 142.2305654 224.49215698 139.8855896 C204.01764977 131.04267939 183.54132944 122.20399018 163.0625 113.37109375 C141.68910271 104.15235373 120.31858909 94.92695465 98.94970703 85.69775391 C93.49651467 83.34255249 88.04319622 80.98764316 82.58984375 78.6328125 C81.67957428 78.23974411 80.76930481 77.84667572 79.83145142 77.44169617 C75.25809689 75.46686267 70.68472305 73.49207391 66.11132812 71.51733398 C57.64883575 67.86327177 49.18649832 64.20885221 40.72476196 60.55303955 C36.80070486 58.8577166 32.87655193 57.16261555 28.95239258 55.4675293 C27.11217589 54.67255442 25.27200425 53.87747524 23.43188477 53.08227539 C19.18997502 51.24916581 14.9474993 49.41739721 10.70361328 47.58886719 C7.02730627 46.00477975 3.35463028 44.4125208 -0.31689453 42.81738281 C-2.2437689 41.98361718 -4.17068825 41.14995548 -6.09765625 40.31640625 C-7.00317734 39.92137909 -7.90869843 39.52635193 -8.84165955 39.11935425 C-9.6764534 38.75915192 -10.51124725 38.39894958 -11.37133789 38.02783203 C-12.10977432 37.70726837 -12.84821075 37.38670471 -13.60902405 37.056427 C-16.32738395 36.03755528 -17.01751691 36.03871516 -19.3359375 37.87353516 Z " fill="#091337" transform="translate(1449.4375,1247.62890625)"/>
<path d="M0 0 C0.85318817 0.26309967 1.70637634 0.52619934 2.5854187 0.79727173 C5.50633886 1.70392209 8.42161743 2.62704602 11.3359375 3.5546875 C12.40577881 3.89487915 13.47562012 4.2350708 14.57788086 4.58557129 C22.54504597 7.12627237 30.50139476 9.70009111 38.45598602 12.2798233 C43.98113484 14.07068779 49.50813436 15.85584158 55.03476334 17.64213181 C57.13104639 18.31974162 59.22725349 18.99758604 61.32345581 19.67544556 C73.77791475 23.70201967 86.24256517 27.6964117 98.7109375 31.6796875 C116.13267944 37.24728698 133.54916787 42.83097526 150.9609375 48.4296875 C152.71020538 48.99215179 152.71020538 48.99215179 154.49481201 49.565979 C160.40969014 51.46794421 166.32449098 53.37014966 172.23925781 55.27246094 C179.27906593 57.53652591 186.31917138 59.79966519 193.359375 62.0625 C194.5131665 62.43334717 195.66695801 62.80419434 196.85571289 63.1862793 C200.34911601 64.30909786 203.84252548 65.43189665 207.3359375 66.5546875 C220.22090864 70.69594758 233.10586922 74.83723912 245.99002075 78.98104858 C251.89692091 80.88081909 257.8039062 82.78032479 263.7109375 84.6796875 C265.46093048 85.24239349 265.46093048 85.24239349 267.24627686 85.81646729 C282.46962582 90.71095758 297.69713707 95.592219 312.92886353 100.46057129 C335.66815759 107.72853991 358.3916223 115.04497526 381.10986328 122.37841797 C382.33566101 122.77400909 383.56145874 123.16960022 384.82440186 123.57717896 C387.26620285 124.3658582 389.70765355 125.15562284 392.14874268 125.94650269 C397.96308671 127.82886834 403.78018553 129.69963506 409.61003017 131.53335381 C412.42099222 132.41825226 415.23000306 133.30925664 418.03890419 134.20067215 C419.37178196 134.62180812 420.70558481 135.04003002 422.04039574 135.45499802 C436.25905575 139.87694528 448.36498889 144.65802302 456.2109375 158.0546875 C456.94768841 159.54093587 457.65753371 161.04091591 458.3359375 162.5546875 C458.65433594 163.21597656 458.97273438 163.87726563 459.30078125 164.55859375 C463.23122967 174.10396848 462.35406294 185.11894187 459.38671875 194.77734375 C459.17038284 195.48685684 458.95404694 196.19636993 458.7311554 196.92738342 C457.94715134 199.47454843 457.1436804 202.01495039 456.3359375 204.5546875 C456.0137323 205.56948181 455.6915271 206.58427612 455.35955811 207.62982178 C452.82610627 215.58430465 450.25586647 223.52675577 447.67987061 231.4675293 C445.87644744 237.02988664 444.07897881 242.59417422 442.28030777 248.15806961 C441.59768298 250.26944859 440.914802 252.38074459 440.23190308 254.49203491 C436.23963607 266.83765782 432.28255418 279.1943989 428.3359375 291.5546875 C422.37005936 310.2324093 416.36099802 328.89599671 410.3359375 347.5546875 C404.27052533 366.33878599 398.22025825 385.12754842 392.2109375 403.9296875 C386.64274796 421.35124148 381.05965014 438.76791664 375.4609375 456.1796875 C375.0859613 457.34586609 374.71098511 458.51204468 374.324646 459.71356201 C372.42268079 465.62844014 370.52047534 471.54324098 368.61816406 477.45800781 C365.60430059 486.82921439 362.59213192 496.20096555 359.58007812 505.57275391 C358.08697016 510.2183845 356.59345597 514.86388421 355.09960938 519.50927734 C351.26860296 531.42349632 347.4426726 543.33931382 343.625 555.2578125 C339.54191355 568.00315668 335.44087293 580.74263163 331.32800293 593.47839355 C330.37644723 596.42907094 329.42837996 599.38084466 328.48144531 602.33300781 C327.11002292 606.60574855 325.72640178 610.87432071 324.33172607 615.13952637 C323.84537548 616.6330076 323.36311974 618.1278304 322.88555908 619.62414551 C318.19197154 634.31137096 312.42934576 645.87458305 298.3984375 653.4296875 C281.3099408 661.29834412 265.92147866 655.54008573 249.046875 650.01171875 C247.67711521 649.56638754 246.30722856 649.12144639 244.93722534 648.67686462 C242.03444209 647.73412214 239.13244637 646.78901015 236.2310791 645.84191895 C231.64338024 644.34448383 227.05384044 642.85275173 222.46386719 641.36230469 C221.69579239 641.11288683 220.92771759 640.86346897 220.1363678 640.606493 C218.58494172 640.10271065 217.03350944 639.59894744 215.48207092 639.0952034 C213.15569348 638.33966301 210.82947793 637.58362595 208.5032959 636.82748413 C195.54283906 632.61556387 182.56834808 628.44845021 169.5859375 624.3046875 C165.58325846 623.026276 161.58068113 621.74754626 157.578125 620.46875 C156.09345734 619.99448326 156.09345734 619.99448326 154.57879639 619.51063538 C142.28470259 615.58196013 129.99784749 611.63076065 117.7109375 607.6796875 C115.96085388 607.11695129 115.96085388 607.11695129 114.17541504 606.54284668 C108.26108706 604.64106198 102.34683231 602.73904968 96.43261719 600.83691406 C89.39280907 598.57284909 82.35270362 596.30970981 75.3125 594.046875 C74.1587085 593.67602783 73.00491699 593.30518066 71.81616211 592.9230957 C68.32275899 591.80027714 64.82934952 590.67747835 61.3359375 589.5546875 C48.45098167 585.41343234 35.56603681 581.27214445 22.68190002 577.12834167 C-1.7113487 569.2830091 -26.1075202 561.44715942 -50.51495361 553.64605713 C-62.87017547 549.69665415 -75.22118438 545.73446551 -87.56640625 541.75390625 C-88.84406507 541.34201471 -90.12172417 540.93012405 -91.39938354 540.51823425 C-97.75016222 538.47067644 -104.10043076 536.42155078 -110.45019531 534.37084961 C-121.45142408 530.82095567 -132.45633248 527.28781683 -143.49609375 523.859375 C-144.38801422 523.58158203 -145.27993469 523.30378906 -146.19888306 523.01757812 C-150.2214399 521.76530601 -154.24603191 520.5209531 -158.27636719 519.29394531 C-171.31611916 515.2799132 -183.95144686 510.63113673 -191.5546875 498.55078125 C-198.03584996 485.98173075 -199.84902628 473.17013084 -195.9609375 459.515625 C-195.134405 456.97634762 -194.28543842 454.45311158 -193.4140625 451.9296875 C-192.93007019 450.46769219 -192.44866359 449.00483903 -191.96948242 447.54125977 C-190.86384283 444.173447 -189.74551949 440.81015207 -188.62060547 437.44873047 C-186.38049099 430.7298277 -184.21086042 423.9885842 -182.04296875 417.24609375 C-181.6311096 415.96535714 -181.21924944 414.68462086 -180.80738831 413.40388489 C-180.17579276 411.43967021 -179.54425507 409.47543702 -178.91289234 407.5111475 C-176.74052719 400.75398575 -174.55728383 394.00035005 -172.37417793 387.2466526 C-167.75724754 372.96180953 -163.16995514 358.66762981 -158.6015625 344.3671875 C-152.41131256 324.99250402 -146.18426525 305.62985333 -139.94451904 286.27105713 C-134.51821115 269.43455587 -129.11051815 252.59227768 -123.7265625 235.7421875 C-117.73866774 217.00235079 -111.70924565 198.27610018 -105.6640625 179.5546875 C-99.59870393 160.77057065 -93.54867192 141.98173511 -87.5390625 123.1796875 C-82.12915064 106.25666019 -76.71378776 89.3354077 -71.28204346 72.41937256 C-70.51025298 70.01525379 -69.73887344 67.61100304 -68.96795654 65.206604 C-66.87106221 58.66719396 -64.76223479 52.1318312 -62.64324951 45.59954834 C-61.67717599 42.59546494 -60.73351067 39.58506708 -59.79345703 36.57275391 C-59.19989716 34.70854646 -58.60600226 32.84444564 -58.01171875 30.98046875 C-57.63496254 29.74202461 -57.63496254 29.74202461 -57.25059509 28.4785614 C-53.61047624 17.20680309 -46.50860151 8.12169599 -36.2265625 2.2421875 C-24.31828919 -3.80876438 -12.63942952 -4.00136984 0 0 Z M-19.6640625 39.5546875 C-20.79778049 41.99880887 -20.79778049 41.99880887 -21.6784668 44.95507812 C-22.23226013 46.66775124 -22.23226013 46.66775124 -22.79724121 48.4150238 C-23.38680603 50.29400108 -23.38680603 50.29400108 -23.98828125 52.2109375 C-24.40983676 53.52801302 -24.83234262 54.8447847 -25.2557373 56.16127014 C-26.39563409 59.7145629 -27.52243039 63.27188849 -28.64696884 66.83006668 C-29.82823471 70.55968959 -31.02172853 74.28539418 -32.21411133 78.01147461 C-34.13987966 84.0341545 -36.05905655 90.05889227 -37.97265625 96.08544922 C-40.29628942 103.40295149 -42.63223763 110.71644087 -44.9765625 118.02734375 C-45.63177247 120.07112056 -46.28696485 122.11490301 -46.94213867 124.15869141 C-47.2579892 125.14395813 -47.57383972 126.12922485 -47.89926147 127.14434814 C-49.5073296 132.16432405 -51.11073993 137.18578751 -52.71484375 142.20703125 C-56.97427119 155.53617167 -61.2554678 168.85829739 -65.5390625 182.1796875 C-65.91412933 183.346138 -66.28919617 184.5125885 -66.67562866 185.71438599 C-68.57750362 191.62898904 -70.47961249 197.54351683 -72.38183594 203.45800781 C-74.64590091 210.49781593 -76.90904019 217.53792138 -79.171875 224.578125 C-79.54272217 225.7319165 -79.91356934 226.88570801 -80.2956543 228.07446289 C-81.41847286 231.56786601 -82.54127165 235.06127548 -83.6640625 238.5546875 C-87.80532258 251.43965864 -91.94661412 264.32461922 -96.09042358 277.20877075 C-97.99019409 283.11567091 -99.88969979 289.0226562 -101.7890625 294.9296875 C-102.35176849 296.67968048 -102.35176849 296.67968048 -102.92584229 298.46502686 C-108.4689774 315.70585788 -113.99280568 332.95278401 -119.50531006 350.20343018 C-124.62563711 366.22372788 -129.78321153 382.2318166 -134.95417309 398.23581982 C-136.46372617 402.90860136 -137.97102108 407.58210662 -139.47680664 412.25610352 C-139.68498048 412.90225648 -139.89315432 413.54840944 -140.10763645 414.2141428 C-141.13633066 417.40732537 -142.16479168 420.60058283 -143.19306946 423.79389954 C-145.35353383 430.50013897 -147.52349589 437.20313801 -149.70651245 443.90206909 C-150.87453394 447.49281262 -152.03346943 451.08643466 -153.1895752 454.68103027 C-153.70757709 456.28453016 -154.22968794 457.88670943 -154.75622559 459.48742676 C-155.46152757 461.63285001 -156.15247643 463.78237027 -156.83984375 465.93359375 C-157.41085815 467.69038452 -157.41085815 467.69038452 -157.9934082 469.48266602 C-158.67911815 472.6236519 -158.56309475 474.50012266 -157.6640625 477.5546875 C-115.76668746 491.70763029 -73.62812497 505.12850141 -31.44348145 518.39624023 C-10.83541017 524.88166443 9.72480025 531.50880701 30.2734375 538.1796875 C31.03493229 538.42688034 31.79642708 538.67407318 32.58099747 538.92875671 C34.87928046 539.6748184 37.17755556 540.42090441 39.47583008 541.16699219 C42.4812662 542.14262852 45.48671953 543.1182118 48.4921875 544.09375 C49.22626516 544.33204025 49.96034283 544.57033051 50.71666527 544.81584167 C63.89260104 549.09236662 77.07809188 553.33839214 90.2734375 557.5546875 C91.23464508 557.86184692 92.19585266 558.16900635 93.18618774 558.48547363 C99.37378272 560.46221932 105.5621066 562.43667677 111.75054932 564.4107666 C123.26066635 568.08307842 134.7696592 571.7589141 146.27874756 575.43444824 C149.39235409 576.42879849 152.50600403 577.42301262 155.61968994 578.41711426 C175.1318999 584.64691874 194.63770152 590.89602481 214.13464355 597.17346191 C238.01059684 604.86022287 238.01059684 604.86022287 261.91586304 612.4552002 C263.42447141 612.93142336 264.93280139 613.40852949 266.44082642 613.88659668 C268.4440028 614.52112666 270.44832099 615.15188464 272.453125 615.78125 C273.55253418 616.12752441 274.65194336 616.47379883 275.78466797 616.83056641 C278.21459777 617.64570178 278.21459777 617.64570178 280.3359375 617.5546875 C283.61192792 608.80021963 286.54021543 599.94315641 289.4140625 591.05078125 C289.90227563 589.54489883 290.39064205 588.0390661 290.87915039 586.53327942 C292.18083213 582.51903137 293.47993461 578.50395323 294.77839661 574.48866272 C295.59153788 571.97487419 296.40544016 569.46133334 297.21960449 566.94787598 C304.34231934 544.95876013 311.43052765 522.95896697 318.45800781 500.93920898 C323.50266387 485.1352143 328.59061345 469.34536814 333.68880463 453.55858612 C339.97053213 434.10671528 346.23792125 414.65044333 352.4609375 395.1796875 C358.02912704 377.75813352 363.61222486 360.34145836 369.2109375 342.9296875 C369.5859137 341.76350891 369.96088989 340.59733032 370.347229 339.39581299 C372.24919421 333.48093486 374.15139966 327.56613402 376.05371094 321.65136719 C378.31777591 314.61155907 380.58091518 307.57145362 382.84375 300.53125 C383.40063255 298.79865936 383.40063255 298.79865936 383.96876526 297.03106689 C385.46230557 292.38424478 386.95580781 287.73741044 388.4493103 283.09057617 C392.29616343 271.12169714 396.14331843 259.15291566 399.99240112 247.18475342 C401.61337598 242.14455373 403.23405164 237.10425784 404.85473633 232.06396484 C405.61828577 229.68957651 406.38195254 227.3152259 407.14575195 224.94091797 C407.50564209 223.82217285 407.86553223 222.70342773 408.23632812 221.55078125 C408.58897736 220.4550177 408.94162659 219.35925415 409.30496216 218.23028564 C409.99146432 216.09320183 410.67598531 213.95548041 411.35836792 211.81707764 C413.02558356 206.59593503 414.72244076 201.38812003 416.47900391 196.19628906 C416.98461601 194.67758713 416.98461601 194.67758713 417.5004425 193.12820435 C418.13695116 191.21827207 418.78491323 189.31210487 419.44621277 187.41061401 C419.86499443 186.14219162 419.86499443 186.14219162 420.29223633 184.84814453 C420.54306473 184.11209991 420.79389313 183.3760553 421.05232239 182.6177063 C421.47724629 180.52512268 421.47724629 180.52512268 420.75590515 178.42507935 C418.74390828 175.77486225 416.81767097 175.33577494 413.66015625 174.33496094 C412.45824646 173.94580002 411.25633667 173.5566391 410.01800537 173.15568542 C408.686571 172.74152729 407.35504557 172.32766182 406.0234375 171.9140625 C404.63956917 171.47209822 403.25613386 171.02877603 401.87310791 170.58418274 C398.14376092 169.38941068 394.40876725 168.21328672 390.67250061 167.04036331 C386.75046332 165.8054949 382.83399022 164.55323174 378.91699219 163.30249023 C372.62380117 161.29509993 366.32779573 159.29682353 360.02929688 157.30615234 C352.7559747 155.00704814 345.48881844 152.68932591 338.2265625 150.35546875 C336.26351526 149.7248344 334.30046197 149.09421884 332.33740234 148.46362305 C331.38871277 148.15887054 330.44002319 147.85411804 329.46258545 147.54013062 C324.50270598 145.94880394 319.54043898 144.36496566 314.578125 142.78125 C313.54906036 142.45281601 312.51999573 142.12438202 311.45974731 141.78599548 C309.27016385 141.08718275 307.08057841 140.38837623 304.89099121 139.6895752 C298.91598536 137.7821608 292.94151899 135.87305819 286.96702576 133.96403885 C274.03553709 129.83208216 261.10382749 125.7008173 248.171875 121.5703125 C247.39742538 121.32294971 246.62297577 121.07558693 245.82505798 120.8207283 C235.65892922 117.57366837 225.49249522 114.32756577 215.32582092 111.08221436 C208.42197311 108.87839295 201.51825151 106.6741763 194.61458969 104.46977234 C193.09492411 103.98453565 191.57525299 103.49931635 190.05557632 103.01411438 C168.35497243 96.08549551 146.66460991 89.12593284 124.98184204 82.1416626 C106.51531966 76.19569609 88.02238915 70.33633865 69.51660156 64.51382446 C55.56335333 60.12287148 41.6231074 55.69439599 27.703125 51.19921875 C27.01587908 50.97736719 26.32863316 50.75551563 25.6205616 50.5269413 C18.91092936 48.36076543 12.20229983 46.19155505 5.49653244 44.01344204 C2.476186 43.03304829 -0.54524128 42.05599299 -3.56640625 41.078125 C-4.66554352 40.71971024 -5.76468079 40.36129547 -6.89712524 39.99201965 C-8.39618912 39.5074958 -8.39618912 39.5074958 -9.92553711 39.01318359 C-10.79730087 38.72994232 -11.66906464 38.44670105 -12.56724548 38.15487671 C-16.07714989 37.15020785 -16.43959748 37.40504415 -19.6640625 39.5546875 Z " fill="#091337" transform="translate(1424.6640625,211.4453125)"/>
<path d="M0 0 C1.051875 0.721875 2.10375 1.44375 3.1875 2.1875 C15.07128226 14.07128226 16.42381286 28.21309116 17.23852539 44.15209961 C17.33872266 45.93557356 17.44000761 47.71898667 17.54225731 49.50234413 C17.76595853 53.44467444 17.98203069 57.38732833 18.19253349 61.33038521 C18.54577302 67.94414948 18.91579525 74.55692022 19.28761292 81.16966248 C19.7115189 88.72651382 20.13369151 96.28345392 20.55003643 103.8407259 C21.74428742 125.51197883 22.97478147 147.18105443 24.21656415 168.84963253 C24.69996268 177.28536353 25.18285587 185.72112348 25.6656189 194.15689087 C25.71999426 195.10696958 25.77436963 196.05704829 25.83039273 197.03591727 C27.29745731 222.67438949 28.74736832 248.31383214 30.19629713 273.95333467 C30.48163868 279.00250298 30.76704711 284.05166751 31.05249023 289.10083008 C31.10918619 290.10380058 31.16588215 291.10677107 31.22429617 292.14013462 C32.15679294 308.6332487 33.09622469 325.12596117 34.03807401 341.61854351 C35.01783377 358.77734725 35.99085244 375.93652335 36.9574514 393.09607357 C37.54797901 403.57589735 38.14356149 414.05540705 38.74594624 424.53455608 C39.15475254 431.65512572 39.5569535 438.77604942 39.95397639 445.89728571 C40.18228727 449.9890241 40.41342193 454.08054893 40.65244675 458.17167664 C40.87144675 461.92116987 41.08204193 465.67104231 41.28626657 469.42136847 C41.39609614 471.39972759 41.5146257 473.37759801 41.63359159 475.35542876 C42.49514877 491.57535643 41.83379246 506.00656055 31.015625 518.96484375 C22.34166377 527.72285499 12.16865159 531.79819176 0.0206604 532.49867249 C-0.69236248 532.54082085 -1.40538537 532.58296922 -2.14001501 532.62639481 C-4.57019366 532.76903794 -7.0006561 532.90609459 -9.43115234 533.04321289 C-11.22161218 533.14701068 -13.01205374 533.25112406 -14.80247879 533.35552025 C-19.8505007 533.64873557 -24.89880479 533.93682413 -29.94717073 534.22404742 C-34.38498877 534.47710384 -38.82264756 534.73289716 -43.26031291 534.98861486 C-58.50978964 535.86713851 -73.75983946 536.73550438 -89.00997681 537.60246263 C-94.62905473 537.92193798 -100.24810426 538.24190964 -105.86714172 538.56209564 C-151.846525 541.18202382 -197.82686775 543.78453885 -243.80836868 546.36704063 C-247.87566511 546.5954997 -251.94296008 546.82398486 -256.01025391 547.05249023 C-257.01946509 547.10918548 -258.02867627 547.16588073 -259.06846961 547.22429402 C-275.66572024 548.15686803 -292.26257821 549.09626595 -308.85930713 550.03807401 C-326.12321172 551.01761272 -343.38747353 551.9906495 -360.65209615 552.9574514 C-370.2595162 553.4956294 -379.86675745 554.03664368 -389.47359085 554.58520317 C-397.57641674 555.0478815 -405.67954363 555.50474546 -413.78312667 555.95397639 C-417.90105805 556.18243984 -422.01878564 556.41364061 -426.13613129 556.65244675 C-429.90840963 556.87117613 -433.68105365 557.08181142 -437.45413177 557.28626657 C-439.44713467 557.39629535 -441.43966754 557.51474116 -443.43216383 557.63359159 C-460.06900039 558.51365811 -473.73018301 557.35704247 -486.80859375 546.16796875 C-495.41271991 537.65586533 -498.75409894 526.96922408 -499.42142868 515.10481644 C-499.49000415 513.91662536 -499.55857961 512.72843428 -499.62923312 511.50423741 C-499.70072865 510.20211458 -499.77222417 508.89999175 -499.84588623 507.55841064 C-499.92537662 506.15732834 -500.00518132 504.75626384 -500.08527303 503.35521579 C-500.30460946 499.50235657 -500.51947881 495.64925915 -500.73363018 491.79610872 C-500.9656155 487.63616343 -501.20173292 483.47645246 -501.43734741 479.31671143 C-501.84618291 472.08870525 -502.25238475 464.86055488 -502.6568222 457.63230133 C-503.24699778 447.08456826 -503.84116281 436.5370628 -504.43625274 425.98960599 C-505.40887584 408.74876184 -506.37828643 391.50773859 -507.34570312 374.26660156 C-508.27308028 357.73916416 -509.20189692 341.2118088 -510.1328125 324.68457031 C-510.18946267 323.67880838 -510.24611284 322.67304644 -510.30447969 321.63680688 C-510.58941184 316.57830786 -510.87437259 311.51981046 -511.15934515 306.46131372 C-512.52688409 282.18580039 -513.89374782 257.91024897 -515.25776008 233.63453719 C-515.4096194 230.93216234 -515.56154246 228.22979107 -515.71347404 225.52742028 C-516.16066714 217.57159458 -516.60730473 209.61573941 -517.05122279 201.65973021 C-517.29499714 197.29091596 -517.5391791 192.92212456 -517.78356934 188.55334473 C-517.83201769 187.68709999 -517.88046604 186.82085525 -517.93038252 185.92836067 C-518.62037021 173.60617949 -519.33071065 161.28528931 -520.05367064 148.96500039 C-520.46941206 141.87820996 -520.87980912 134.79111242 -521.28907956 127.70394562 C-521.56821193 122.87728925 -521.85023904 118.05084301 -522.1397109 113.22479486 C-524.18259334 79.11544765 -524.18259334 79.11544765 -524.38739014 62.13262939 C-524.41263047 61.04579007 -524.43787081 59.95895074 -524.46387601 58.83917689 C-524.47939434 46.99305558 -520.22264733 36.7833694 -512.22265625 28.0625 C-498.28490057 14.83730852 -478.33598808 15.7953412 -460.30744934 14.81039429 C-458.47146772 14.70601116 -456.63551325 14.6011494 -454.79958361 14.49585593 C-449.79880008 14.21043313 -444.79766029 13.93176736 -439.79643023 13.65429401 C-434.3858269 13.35290226 -428.97558437 13.04515596 -423.56529236 12.73823547 C-412.98480993 12.13902453 -402.40400746 11.54566024 -391.82308082 10.9543507 C-379.49128939 10.26500022 -367.15981558 9.57004718 -354.82834776 8.87493606 C-332.822426 7.63470039 -310.8162037 6.39987912 -288.80981445 5.16796875 C-267.47264867 3.97351941 -246.13573371 2.77471412 -224.79907227 1.57128906 C-201.54056186 0.25947494 -178.28192531 -1.05005932 -155.02305716 -2.35551679 C-152.54177103 -2.49478637 -150.06048492 -2.63405639 -147.57919884 -2.77332687 C-145.74812499 -2.87609605 -145.74812499 -2.87609605 -143.88005975 -2.98094136 C-135.29078297 -3.46315151 -126.70159452 -3.94691562 -118.11243629 -4.43123245 C-107.64309306 -5.02149629 -97.17360273 -5.60906886 -86.70391945 -6.19327118 C-81.36551613 -6.49120906 -76.0271834 -6.79028613 -70.68902206 -7.0925312 C-65.79725112 -7.36946442 -60.90530199 -7.64299686 -56.01319238 -7.91387956 C-54.24891182 -8.01215214 -52.4846981 -8.1116342 -50.72056315 -8.21248694 C-14.7034972 -10.26869015 -14.7034972 -10.26869015 0 0 Z M-54.31678772 31.94236755 C-56.16052673 32.04505782 -58.00428202 32.14745612 -59.84805197 32.2495895 C-64.88902033 32.52968248 -69.92974637 32.81394006 -74.97044075 33.0989157 C-80.41601122 33.40605099 -85.86179746 33.70931574 -91.30755615 34.01309204 C-101.96318643 34.60812353 -112.6186089 35.20680012 -123.27395893 35.80682712 C-131.930144 36.29422269 -140.58639871 36.78036306 -149.24270439 37.26561165 C-151.09151995 37.36925461 -151.09151995 37.36925461 -152.97768531 37.47499137 C-155.4815546 37.61535262 -157.985424 37.75571188 -160.48929351 37.89606918 C-183.28280078 39.17394704 -206.0760873 40.45572783 -228.86928746 41.73907012 C-249.68210175 42.91088121 -270.49513418 44.07874439 -291.30834961 45.2434082 C-314.70111809 46.55242863 -338.09373156 47.86417566 -361.48611349 49.18008763 C-363.97795457 49.32025387 -366.4697959 49.46041554 -368.9616375 49.60057259 C-370.18770458 49.66953463 -371.41377166 49.73849668 -372.67699229 49.80954848 C-381.33037566 50.29607346 -389.98386887 50.78061342 -398.6374073 51.26437187 C-409.17152313 51.85330183 -419.70547125 52.44512916 -430.23921133 53.0407434 C-435.61663448 53.34472363 -440.99412495 53.64735091 -446.37182426 53.94640923 C-451.28828157 54.21985364 -456.20451004 54.49708031 -461.12057965 54.7774061 C-462.90483782 54.87846913 -464.68917694 54.97811443 -466.47359873 55.07624619 C-468.88751489 55.20920198 -471.30109065 55.34719351 -473.71464634 55.48651791 C-474.41726885 55.52399953 -475.11989136 55.56148115 -475.84380546 55.60009858 C-478.78191522 55.77450953 -481.18929834 56.06309945 -484 57 C-485.07851854 61.2387767 -484.99914981 65.19402876 -484.73540688 69.51862526 C-484.69465097 70.27073684 -484.65389507 71.02284841 -484.61190414 71.79775125 C-484.47329723 74.3266141 -484.3255604 76.85486079 -484.17788696 79.38320923 C-484.07579829 81.21106592 -483.97426969 83.03895397 -483.87325418 84.86687028 C-483.593639 89.89697169 -483.30603549 94.92658968 -483.01714993 99.95616603 C-482.70712165 105.37803018 -482.40444925 110.80030548 -482.10087585 116.22253418 C-481.50475765 126.84919486 -480.90184371 137.47545973 -480.29670312 148.10161002 C-479.59231838 160.47531202 -478.89482297 172.84939942 -478.19767289 185.22351079 C-476.95333856 207.30603825 -475.70302812 229.38822353 -474.44921875 251.47021484 C-473.23268487 272.895773 -472.01988814 294.32153812 -470.81152344 315.74755859 C-470.77432358 316.40714809 -470.73712372 317.06673759 -470.69879659 317.74631465 C-470.5114238 321.06862434 -470.32405639 324.39093434 -470.13668903 327.71324434 C-470.06278231 329.0237196 -469.98887558 330.33419486 -469.91272926 331.68438148 C-469.83901064 332.99155295 -469.76529202 334.29872441 -469.6893395 335.64550713 C-468.53786517 356.06114457 -467.38342525 376.47661446 -466.22849614 396.89205671 C-465.87963943 403.05896185 -465.53093106 409.2258753 -465.18255281 415.39280748 C-464.44973932 428.36478578 -463.71594088 441.33670665 -462.97876979 454.30843814 C-462.67394105 459.67268983 -462.36968411 465.03697218 -462.06704903 470.40134811 C-461.78979793 475.31530792 -461.51078573 480.2291645 -461.23038118 485.14294533 C-461.12941442 486.91750554 -461.02907325 488.69210147 -460.92943259 490.46673663 C-461.5502731 505.27959103 -461.5502731 505.27959103 -458 518 C-455.51278846 518.10130755 -453.05945181 518.13594725 -450.57212257 518.11902523 C-449.80845858 518.11591498 -449.04479459 518.11280474 -448.25798927 518.10960024 C-439.77218078 518.04076635 -431.31602191 517.5862535 -422.84603882 517.09559631 C-421.08079009 516.99690904 -419.31551792 516.89864047 -417.5502249 516.80074877 C-412.74887417 516.5333018 -407.94787356 516.25998645 -403.14691353 515.98562729 C-397.95007095 515.68970347 -392.75291743 515.39933553 -387.55580139 515.10826111 C-377.39474986 514.53831526 -367.23398832 513.9633508 -357.07331441 513.38671643 C-345.22747355 512.71466839 -333.38133637 512.04791575 -321.53518124 511.38143402 C-300.39237995 510.19175597 -279.2498272 508.99771815 -258.10742188 507.80102539 C-237.61570763 506.64117011 -217.12385819 505.48374686 -196.63183594 504.3293457 C-195.36933617 504.25822321 -194.10683641 504.18710072 -192.80607907 504.113823 C-187.73054665 503.82790164 -182.65501371 503.54198964 -177.57947996 503.2560919 C-155.65549746 502.02109461 -133.73161522 500.78431906 -111.80775791 499.54710159 C-108.26677128 499.34728007 -104.72578312 499.14748563 -101.1847949 498.94769216 C-87.72948446 498.18843766 -74.27422802 497.428236 -60.81904411 496.66674232 C-56.74557924 496.43623048 -52.67209521 496.20606204 -48.59859276 495.97621536 C-43.89837373 495.710991 -39.19819634 495.44504054 -34.49805029 495.1785261 C-32.80585449 495.08268999 -31.11364463 494.98710173 -29.42141871 494.89179898 C-24.97944888 494.64155166 -20.5377914 494.38687122 -16.09658024 494.12348397 C-14.66315295 494.03905825 -13.22963114 493.9562264 -11.79603222 493.87476699 C-9.67830474 493.75376517 -7.56102561 493.62668209 -5.44375038 493.49803829 C-4.22468392 493.42613401 -3.00561746 493.35422974 -1.74960959 493.28014654 C0.90876615 493.30183111 0.90876615 493.30183111 2 492 C2.10129525 489.51186109 2.13594968 487.05758415 2.11902523 484.56932926 C2.11591498 483.80559571 2.11280474 483.04186215 2.10960024 482.25498516 C2.04088646 473.78498303 1.58673722 465.34484757 1.09559631 456.89073181 C0.99690779 455.13032071 0.89863927 453.36988603 0.80074877 451.60943037 C0.53331212 446.82141053 0.25999262 442.03374269 -0.01437271 437.24611557 C-0.31030742 432.06357007 -0.60067001 426.88071188 -0.89173889 421.69789124 C-1.46168539 411.56457761 -2.03665509 401.43155502 -2.61328357 391.29861968 C-3.28538028 379.48401827 -3.9521171 367.66911619 -4.61856598 355.85419507 C-5.80825842 334.76578201 -7.00227851 313.6776163 -8.19897461 292.58959961 C-9.35868395 272.15321611 -10.51612298 251.716706 -11.6706543 231.2800293 C-11.77733803 229.39160825 -11.77733803 229.39160825 -11.886177 227.46503728 C-12.17210224 222.40369739 -12.45801427 217.34235676 -12.7439081 212.28101509 C-14.93665366 173.46238436 -17.13144726 134.64386807 -19.33325768 95.82575035 C-19.5636352 91.76398592 -19.79380701 87.70220992 -20.02378464 83.64042282 C-20.28926201 78.95188517 -20.55519182 74.2633734 -20.8214739 69.57488138 C-20.91720762 67.88804557 -21.01279131 66.20120124 -21.10820102 64.51434707 C-21.3602633 60.05885526 -21.61617767 55.60361699 -21.87651603 51.14860122 C-22.00574498 48.90003825 -22.12842984 46.65116698 -22.25097001 44.40223038 C-22.33444847 42.93517876 -22.41810529 41.46813728 -22.50196171 40.00110722 C-22.57386599 38.70157236 -22.64577026 37.40203751 -22.71985346 36.06312281 C-22.80467809 33.08740006 -22.80467809 33.08740006 -24 31 C-34.13806775 30.83045596 -44.2011525 31.36538194 -54.31678772 31.94236755 Z " fill="#091337" transform="translate(822,10)"/>
<path d="M0 0 C2.01409026 0.88139122 4.02841927 1.76223703 6.04296875 2.64257812 C9.22092617 4.03147357 12.39869624 5.42078514 15.57571411 6.81182861 C26.57302048 11.62689602 37.586655 16.40407782 48.6015625 21.17871094 C54.16083801 23.58892377 59.71903869 26.00161274 65.27734375 28.4140625 C71.83060107 31.25815794 78.38399145 34.101945 84.93798828 36.94433594 C90.14700295 39.20347766 95.35543587 41.46395571 100.56347656 43.7253418 C102.47651733 44.55573636 104.38975622 45.38567468 106.30322266 46.21508789 C111.49973643 48.4677201 116.69218282 50.7292535 121.87872314 53.00476074 C123.63013126 53.77153184 125.38292915 54.53513416 127.13690186 55.29602051 C129.82288072 56.46241696 132.50362664 57.64017936 135.18359375 58.8203125 C136.38049583 59.33608353 136.38049583 59.33608353 137.60157776 59.86227417 C152.0126171 66.25830586 162.24749924 75.37844486 168.25561523 90.13427734 C170.34343159 95.79226587 170.92692848 100.870179 170.875 106.875 C170.89498047 107.679375 170.91496094 108.48375 170.93554688 109.3125 C170.9262084 121.19103931 165.87476844 131.95696503 161 142.5625 C159.92575861 144.93950593 158.8528917 147.31713341 157.78125 149.6953125 C157.50608047 150.30391617 157.23091095 150.91251984 156.94740295 151.53956604 C154.17053315 157.68937124 151.4811941 163.87599123 148.80639648 170.07073975 C147.9995021 171.93865261 147.19043018 173.80560903 146.38085938 175.67236328 C143.83830759 181.53988579 141.31041306 187.41306752 138.81654358 193.3014679 C137.66102816 196.02715564 136.49877797 198.74994733 135.33590698 201.47250366 C134.7878659 202.76080337 134.24308866 204.05049748 133.70193481 205.34170532 C130.5699215 212.81308152 127.21129935 219.57123319 122.4375 226.125 C121.86 226.99125 121.2825 227.8575 120.6875 228.75 C112.29581158 237.60789333 100.41663515 243.81396086 88.17578125 244.4609375 C86.70065084 244.48445597 85.22531559 244.4974049 83.75 244.5 C83.03650391 244.52449219 82.32300781 244.54898437 81.58789062 244.57421875 C68.66451826 244.64229622 56.60332845 238.22094919 45.0567627 233.04824829 C41.42993874 231.42368233 37.79579618 229.81577822 34.16217041 228.20649719 C32.29083057 227.37748358 30.41985963 226.54763677 28.54925537 225.71696472 C19.95272037 221.90088405 11.3251748 218.15930317 2.6875 214.4375 C-0.33875127 213.1319959 -3.36470985 211.82581421 -6.390625 210.51953125 C-7.57060059 210.01025589 -7.57060059 210.01025589 -8.77441406 209.49069214 C-15.63952041 206.52648431 -22.49990617 203.5514459 -29.359375 200.57421875 C-30.47593475 200.08968231 -31.59249451 199.60514587 -32.7428894 199.10592651 C-38.46469109 196.62245261 -44.18549916 194.13672309 -49.90478516 191.64746094 C-60.18024477 187.17774017 -70.46236317 182.72909652 -80.7890625 178.37890625 C-83.30557835 177.31293022 -85.82168025 176.24598346 -88.33764648 175.17871094 C-90.59921516 174.22474015 -92.86666147 173.28595462 -95.13476562 172.34765625 C-110.66770189 165.81662294 -121.74876733 157.47817054 -129.30078125 142.25 C-131.93014262 135.73764985 -132.94388344 129.56459974 -133 122.5625 C-133.03287109 121.86576172 -133.06574219 121.16902344 -133.09960938 120.45117188 C-133.22194205 107.89539133 -126.59337863 95.4151698 -121.51791382 84.17788696 C-120.19033031 81.23847706 -118.87854668 78.29209067 -117.56547546 75.34617615 C-116.88927292 73.82951746 -116.21228156 72.31321022 -115.53450012 70.79725647 C-112.49263148 63.98978629 -109.51525042 57.15543262 -106.55941772 50.3102417 C-105.75436741 48.44760484 -104.94653488 46.58619795 -104.13793945 44.72509766 C-101.658049 39.00901357 -99.20407303 33.28488945 -96.8125 27.53125 C-89.1967404 9.32170026 -81.48442992 -3.83317978 -62.5625 -11.875 C-40.11973342 -19.61388503 -20.26465213 -8.91129491 0 0 Z M5.4375 63.125 C-2.90403418 81.70183482 -11.01642803 100.36964971 -18.99211121 119.1061554 C-20.42855526 122.47946192 -21.87446414 125.84807129 -23.34082031 129.20849609 C-23.62176544 129.85505661 -23.90271057 130.50161713 -24.19216919 131.16777039 C-24.95906935 132.93090618 -25.72965446 134.69243785 -26.50048828 136.45385742 C-27.68565231 138.95566244 -27.68565231 138.95566244 -27.5625 141.125 C-19.63237291 140.50839965 -11.7023037 139.89106151 -3.77230072 139.2728672 C-0.0871591 138.98560839 3.59799953 138.69857215 7.28320312 138.41210938 C8.71484444 138.30079012 10.14648507 138.18946203 11.578125 138.078125 C12.28455643 138.02319759 12.99098785 137.96827019 13.71882629 137.91167831 C17.25047423 137.63673069 20.78197779 137.36009566 24.31323242 137.08013916 C25.00177811 137.02555416 25.69032379 136.97096916 26.3997345 136.91473007 C27.76756805 136.80626727 29.13539649 136.69773998 30.5032196 136.58914566 C34.93985848 136.23851731 39.37767075 135.90783548 43.81640625 135.58496094 C46.01302901 135.41872779 48.20964411 135.25239346 50.40625 135.0859375 C51.40515259 135.01742584 52.40405518 134.94891418 53.43322754 134.87832642 C54.33633667 134.80810272 55.2394458 134.73787903 56.16992188 134.66552734 C56.951698 134.60891937 57.73347412 134.5523114 58.53894043 134.49398804 C60.67231201 134.26299857 60.67231201 134.26299857 62.4375 132.125 C62.08147705 131.69380859 61.7254541 131.26261719 61.35864258 130.81835938 C53.2152816 120.95203877 45.11092541 111.05563281 37.05517578 101.11767578 C35.4135329 99.09547699 33.76788484 97.07660162 32.12109375 95.05859375 C26.38865324 88.02941938 20.69841667 80.97333393 15.12646484 73.81591797 C12.29853626 70.18915197 9.44576768 66.6033095 6.4375 63.125 C6.1075 63.125 5.7775 63.125 5.4375 63.125 Z " fill="#091337" transform="translate(1529.5625,1464.875)"/>
<path d="M0 0 C0.36351562 1.17175781 0.72703125 2.34351563 1.1015625 3.55078125 C3.95308835 12.55054993 6.86240045 21.00817848 12 29 C12.66128906 30.04929687 13.32257813 31.09859375 14.00390625 32.1796875 C31.63407514 58.99681216 59.13188671 76.3567157 88 89 C88.20753906 88.12859375 88.41507813 87.2571875 88.62890625 86.359375 C92.75296814 70.41530309 100.84828178 57.47991049 115.0625 48.5625 C129.72005613 40.55278035 144.87623749 38.11151639 161.265625 41.71875 C174.2261022 45.65439229 187.33077076 53.53085495 194.4453125 65.4140625 C194.81398438 66.12304688 195.18265625 66.83203125 195.5625 67.5625 C196.8619095 69.7874538 197.60569281 70.80083873 199.91796875 71.96875 C211.5075872 74.91954063 225.51631767 72.27903522 237 70 C232.40376916 82.46940404 220.50024179 88.6903139 209 94 C217.44287765 96.56957146 227.372456 95.09061504 236 94 C228.93833431 103.28331333 217.23070106 109.10666685 206 112 C204.68 112 203.36 112 202 112 C201.690625 113.7634375 201.690625 113.7634375 201.375 115.5625 C193.21340029 151.83627651 165.58647919 186.05913025 135 206 C110.25198209 221.51393105 82.2419989 230.7863243 53 232 C52.09894531 232.04125 51.19789063 232.0825 50.26953125 232.125 C8.54792152 233.06653139 -32.69093456 217.67073758 -63 189 C-64.39125154 187.80713534 -65.78688296 186.61935399 -67.1875 185.4375 C-71.1927524 181.9624745 -74.61530521 178.07221092 -78 174 C-77.505 173.01 -77.505 173.01 -77 172 C-76.27039062 172.31453125 -75.54078125 172.6290625 -74.7890625 172.953125 C-62.54076189 177.97341611 -49.28121095 181.4624805 -36 182 C-35.14277344 182.0515625 -34.28554687 182.103125 -33.40234375 182.15625 C-20.6589473 182.57693984 -6.98848538 180.34544072 5 176 C4.39414063 175.67128906 3.78828125 175.34257813 3.1640625 175.00390625 C-12.23995495 166.25916404 -22.55186009 154.5259569 -27.75 137.55078125 C-29.06636064 132.31276286 -29.17100846 127.38676638 -29 122 C-26.16509016 123.11678266 -23.39166961 124.28163444 -20.625 125.5625 C-17.00578975 126.99770406 -13.84349381 127.51841665 -10 128 C-10.85722656 127.20078125 -11.71445313 126.4015625 -12.59765625 125.578125 C-24.95156898 113.81283776 -33.5948451 101.01827233 -34.25 83.5 C-34.19685986 76.52801392 -33.14126376 68.28252751 -30 62 C-29.34 62 -28.68 62 -28 62 C-26.31171563 63.87992746 -24.78855926 65.86166985 -23.2421875 67.859375 C-20.20924511 70.75493672 -16.79697177 72.29279878 -13 74 C-13.48210937 72.88882813 -13.96421875 71.77765625 -14.4609375 70.6328125 C-21.42754191 54.3376699 -24.59324407 40.44152828 -19 23 C-16.61856611 17.09501596 -7.56232009 0 0 0 Z " fill="#091337" transform="translate(1478,411)"/>
<path d="M0 0 C1.05363421 4.45327239 1.30813941 8.89534322 1.53515625 13.44921875 C1.57813339 14.26187698 1.62111053 15.07453522 1.66539001 15.91181946 C1.75534075 17.62886529 1.84348276 19.34600672 1.92993164 21.06323242 C2.06118988 23.66156541 2.19908074 26.2594826 2.33789062 28.85742188 C2.75902993 36.91254668 3.12465173 44.93087804 3 53 C1.92363281 53.09796875 0.84726562 53.1959375 -0.26171875 53.296875 C-15.20063759 54.77599288 -30.73279567 57.43830487 -41.43359375 68.93359375 C-51.57264315 82.30904794 -50.28984469 99.13434732 -50 115 C-49.030625 114.84660156 -48.06125 114.69320312 -47.0625 114.53515625 C-42.71851628 113.91692363 -38.37996653 113.65558033 -34 113.4375 C-33.17781982 113.3950415 -32.35563965 113.35258301 -31.50854492 113.30883789 C-24.00082333 112.94849626 -16.51506732 112.89890044 -9 113 C-7.00156781 137.12954147 -7.00156781 137.12954147 -6.375 147.25 C-6.26285156 149.05210937 -6.26285156 149.05210937 -6.1484375 150.890625 C-5.88012366 156.58852555 -5.97076204 162.29751522 -6 168 C-10.39226339 168.28854565 -14.78475652 168.57321946 -19.17749023 168.85449219 C-20.66811701 168.95046427 -22.1586791 169.04744704 -23.64916992 169.14550781 C-31.43832365 169.65729934 -39.18895174 170.14089828 -47 170 C-46.67 170.99 -46.34 171.98 -46 173 C-45.81639958 174.92918725 -45.68269467 176.86326632 -45.57603455 178.79823303 C-45.50734665 180.00795776 -45.43865875 181.2176825 -45.3678894 182.46406555 C-45.29587831 183.8068499 -45.22395121 185.14963875 -45.15209961 186.49243164 C-45.07348476 187.90522171 -44.99451173 189.3179919 -44.91520691 190.73074341 C-44.70068511 194.57181878 -44.4913958 198.41316319 -44.28317332 202.25458455 C-44.06428598 206.27928016 -43.84111722 210.30373859 -43.61854553 214.32823181 C-43.24500612 221.0945603 -42.8747843 227.86106412 -42.5065918 234.62768555 C-42.08183784 242.43318006 -41.65224174 250.23839617 -41.21992487 258.04347521 C-40.80352443 265.56272569 -40.39026188 273.08214536 -39.97851753 280.60165215 C-39.80363552 283.79481707 -39.6277325 286.98792327 -39.45100212 290.1809864 C-39.24242875 293.95238645 -39.03663986 297.72392889 -38.83291817 301.49559402 C-38.72261076 303.52623968 -38.60964768 305.55674055 -38.49658203 307.5872345 C-38.13159872 314.39984714 -37.89749815 321.17743735 -38 328 C-68.12483803 329.99843219 -68.12483803 329.99843219 -80.125 330.625 C-80.84848633 330.66488037 -81.57197266 330.70476074 -82.31738281 330.74584961 C-86.80908556 330.9689918 -91.28726273 331.01599042 -95.78466797 331.00927734 C-96.95013153 331.00793793 -98.11559509 331.00659851 -99.31637573 331.00521851 C-100.20197174 331.0034964 -101.08756775 331.00177429 -102 331 C-102.56515862 321.52099064 -103.12730309 312.04180373 -103.6875 302.5625 C-103.73072891 301.83103256 -103.77395782 301.09956512 -103.8184967 300.34593201 C-105.51342109 271.6501526 -107.14201891 242.95077147 -108.75 214.25 C-108.80636501 213.24396351 -108.86273003 212.23792702 -108.92080307 211.20140457 C-109.61541512 198.80102267 -110.30847496 186.40055442 -111 174 C-112.01312256 174.06058594 -113.02624512 174.12117187 -114.07006836 174.18359375 C-117.86629972 174.40990311 -121.6627308 174.63269977 -125.45922852 174.85449219 C-127.09535185 174.9505546 -128.73142122 175.04754115 -130.36743164 175.14550781 C-132.73309604 175.2870001 -135.0989413 175.4250525 -137.46484375 175.5625 C-138.18397446 175.60624756 -138.90310516 175.64999512 -139.64402771 175.69506836 C-144.76981318 175.98825481 -149.865761 176.03539329 -155 176 C-155.43216765 169.9354772 -155.85921962 163.87062263 -156.28173828 157.80541992 C-156.42587422 155.74640416 -156.57135574 153.68748209 -156.71826172 151.62866211 C-156.93038636 148.65242345 -157.13750965 145.67587028 -157.34375 142.69921875 C-157.40937134 141.7935466 -157.47499268 140.88787445 -157.54260254 139.95475769 C-157.97436924 133.62815201 -158.0720556 127.34036878 -158 121 C-152.73712861 120.16805797 -147.54202278 119.73030457 -142.22265625 119.46484375 C-141.00563271 119.40037804 -141.00563271 119.40037804 -139.76402283 119.33460999 C-137.19699219 119.19930441 -134.62976209 119.06833278 -132.0625 118.9375 C-130.31183391 118.84599049 -128.56118268 118.75419645 -126.81054688 118.66210938 C-122.54052922 118.43811598 -118.27032732 118.2180066 -114 118 C-114.07001221 117.14494873 -114.14002441 116.28989746 -114.2121582 115.40893555 C-116.72882862 83.876012 -113.36863519 51.98760296 -92.48828125 26.83203125 C-75.78190951 7.81771491 -55.03233186 3.04099913 -30.77734375 1.4375 C-7.44867434 -0.06704734 -7.44867434 -0.06704734 0 0 Z " fill="#091337" transform="translate(736,113)"/>
<path d="M0 0 C2.85202855 1.54129088 5.56403268 3.22867135 8.296875 4.97265625 C9.47083984 5.66159177 10.64810483 6.3449259 11.828125 7.0234375 C33.64087454 19.64123035 54.8668346 35.7402099 72.296875 53.97265625 C75.09347409 56.78884623 77.91404061 59.57905098 80.75 62.35546875 C88.08659665 69.56505809 94.98713626 76.83173296 101.296875 84.97265625 C102.36191892 86.29927195 103.42844469 87.62469874 104.49609375 88.94921875 C136.19777735 128.5796435 159.23933605 175.71116379 171.296875 224.97265625 C171.56338867 226.05804687 171.82990234 227.1434375 172.10449219 228.26171875 C191.20383428 307.7002369 184.14709582 392.84017566 149.296875 466.97265625 C148.60271484 468.45161377 148.60271484 468.45161377 147.89453125 469.96044922 C138.49517151 489.78125356 127.44592736 508.41189238 114.296875 525.97265625 C113.89936035 526.50761719 113.5018457 527.04257813 113.09228516 527.59375 C106.98669292 535.79023116 100.4967444 543.61927352 93.75634766 551.30029297 C92.34267016 552.92018103 90.94957053 554.55592897 89.55859375 556.1953125 C80.8698084 566.20257818 80.8698084 566.20257818 73.1484375 567.26953125 C67.44925742 567.61965153 62.8729591 566.43356019 58.296875 562.97265625 C53.03377764 557.38919644 50.93228657 552.79582348 51.08984375 545.046875 C51.91351152 536.79465641 57.92340809 531.57014245 63.296875 525.83984375 C108.45120485 476.8673169 136.17813371 410.18390727 141.296875 343.97265625 C141.40644531 342.709375 141.51601562 341.44609375 141.62890625 340.14453125 C144.98759958 295.8993445 138.89891039 250.84460259 124.296875 208.97265625 C124.01650391 208.16473633 123.73613281 207.35681641 123.44726562 206.52441406 C113.30763521 177.72831136 99.06366266 150.74957727 81.296875 125.97265625 C80.77802734 125.24739746 80.25917969 124.52213867 79.72460938 123.77490234 C73.83251871 115.59373072 67.66188377 107.90010144 60.7421875 100.56640625 C58.71279587 98.41382471 56.77230838 96.22751492 54.859375 93.97265625 C47.59988711 85.63897206 39.70957879 78.03907507 31.0546875 71.171875 C28.2023686 68.89729208 25.44193741 66.53395632 22.671875 64.16015625 C11.2515126 54.66275975 -0.95937343 46.48005584 -13.92773438 39.24462891 C-20.22040936 35.63079916 -25.01006648 31.66660212 -28.078125 24.97265625 C-29.43029037 18.48226249 -29.04900971 12.74021275 -25.703125 6.97265625 C-18.75588508 -0.6290338 -10.04545643 -3.8178541 0 0 Z " fill="#091337" transform="translate(1087.703125,776.02734375)"/>
<path d="M0 0 C1.98012602 1.41679712 3.94359696 2.85431203 5.90429688 4.29785156 C6.90565674 5.02319092 6.90565674 5.02319092 7.92724609 5.76318359 C12.65331857 9.19012461 17.29984401 12.70942763 21.90429688 16.29785156 C22.92394531 17.08933594 23.94359375 17.88082031 24.99414062 18.69628906 C42.20856834 32.67594258 58.28382398 49.05956026 70.90429688 67.29785156 C71.34483398 67.92030762 71.78537109 68.54276367 72.23925781 69.18408203 C92.90705328 98.44937309 105.43741708 130.91683936 110.90429688 166.29785156 C111.07119019 167.35697754 111.07119019 167.35697754 111.24145508 168.4375 C119.15612744 227.41068203 98.71809071 289.81551458 63.16210938 336.65478516 C62.74703125 337.19699707 62.33195312 337.73920898 61.90429688 338.29785156 C61.453125 338.89033691 61.00195312 339.48282227 60.53710938 340.09326172 C43.47729716 362.40179379 43.47729716 362.40179379 36.90429688 364.29785156 C29.44737427 365.11133403 23.91399197 364.95843143 17.90429688 360.29785156 C13.22388918 355.84270413 11.25132015 351.36322385 10.52929688 344.98535156 C11.39750828 336.44793942 15.76191167 331.05883261 21.27832031 324.79052734 C53.65781056 287.50858321 74.88950584 234.82580215 71.76806641 185.12890625 C68.30334809 139.37106836 48.43125827 100.12833156 16.90429688 67.29785156 C16.17339844 66.52610596 16.17339844 66.52610596 15.42773438 65.73876953 C7.84660377 57.75476468 -0.27355297 50.87190424 -9.09570312 44.29785156 C-9.72976074 43.82428223 -10.36381836 43.35071289 -11.01708984 42.86279297 C-17.1809723 38.27345599 -23.36194401 33.772116 -29.78320312 29.54785156 C-33.83991568 26.67912804 -36.7846642 24.20963121 -38.09570312 19.29785156 C-39.05858924 11.88157979 -38.61098957 5.43210585 -34.09570312 -0.70214844 C-23.71480719 -11.67623842 -10.90344172 -7.58330465 0 0 Z " fill="#091337" transform="translate(995.095703125,888.7021484375)"/>
<path d="M0 0 C4.11025568 3.64772051 6.09756096 7.58536578 7 13 C7.08123412 19.38703239 6.26941324 24.01901789 2 29 C-1.98443373 32.58599036 -5.67266483 34.97884556 -11.00151062 35.76959229 C-11.78917313 35.88988297 -12.57683563 36.01017365 -13.3883667 36.1341095 C-14.67278656 36.31957588 -14.67278656 36.31957588 -15.9831543 36.50878906 C-16.89323746 36.64574692 -17.80332062 36.78270477 -18.74098206 36.92381287 C-21.76779157 37.377623 -24.79595387 37.82163894 -27.82421875 38.265625 C-29.96239248 38.58411445 -32.10047796 38.9031968 -34.23847961 39.22283936 C-39.90510393 40.06832774 -45.57292799 40.90549677 -51.24102783 41.74102783 C-56.84308681 42.56833528 -62.44394792 43.40366555 -68.04492188 44.23828125 C-77.88051039 45.702942 -87.717818 47.15564874 -97.55592155 48.60330963 C-103.74777731 49.51585078 -109.93765242 50.44047645 -116.12583065 51.37762833 C-119.91198077 51.95040823 -123.69892728 52.51780382 -127.48600197 53.08443451 C-129.23069633 53.34690065 -130.97501513 53.61187812 -132.71890831 53.87961578 C-156.74254247 57.56546776 -156.74254247 57.56546776 -164.17578125 53.34375 C-168.25311824 50.34031547 -171.39497902 46.81506293 -173 42 C-173.66517474 34.54131935 -173.66431104 29.01450634 -169 23 C-159.75091759 12.00109119 -134.29880769 12.83472809 -121.0273459 10.85916543 C-118.93971431 10.5482018 -116.85223716 10.23622116 -114.76480675 9.92391014 C-107.45715037 8.83066674 -100.14889885 7.7415026 -92.84008789 6.65600586 C-86.06500743 5.64965944 -79.2913754 4.63394484 -72.51833326 3.61397868 C-66.66488828 2.73294823 -60.81045271 1.85871936 -54.95522517 0.98961514 C-51.47463748 0.47285793 -47.994501 -0.04655712 -44.51535988 -0.57297325 C-40.63643004 -1.15961836 -36.75547949 -1.73210543 -32.87426758 -2.3034668 C-31.74408203 -2.47641769 -30.61389648 -2.64936859 -29.44946289 -2.82756042 C-7.93821944 -5.94906005 -7.93821944 -5.94906005 0 0 Z " fill="#091337" transform="translate(297,1210)"/>
<path d="M0 0 C4.35098296 3.75812385 6.29061047 7.96547263 6.9296875 13.5390625 C7.18392385 20.97882105 5.1105587 25.739391 0.19140625 31.2734375 C-7.28140287 36.87427818 -19.3056927 37.23220349 -28.2746582 38.5456543 C-30.128461 38.82428818 -30.128461 38.82428818 -32.01971436 39.10855103 C-35.37255564 39.61093136 -38.72609498 40.10794543 -42.08020043 40.60177207 C-44.89808361 41.01722417 -47.71545363 41.43610326 -50.53285187 41.85482913 C-57.18927915 42.84390197 -63.84665906 43.82636787 -70.50463867 44.80493164 C-77.3328175 45.80865578 -84.15906339 46.82482739 -90.98450881 47.84695882 C-96.88187793 48.72957471 -102.78046888 49.60367791 -108.68005913 50.47132236 C-112.1871854 50.9872338 -115.69376447 51.50630321 -119.19915199 52.03391075 C-156.36392964 57.61806898 -156.36392964 57.61806898 -165.30859375 52.4609375 C-167.13671875 50.77734375 -167.13671875 50.77734375 -168.55859375 49.0234375 C-169.27789062 48.15912109 -169.27789062 48.15912109 -170.01171875 47.27734375 C-173.85194279 41.89871671 -174.18843915 36.95204187 -173.30859375 30.4609375 C-170.92941363 24.53264984 -166.87525112 20.07780132 -161.0226469 17.42465496 C-158.12450562 16.39557071 -155.4245305 15.87222918 -152.38374329 15.41645813 C-151.19651169 15.23556641 -150.00928009 15.05467468 -148.78607178 14.86830139 C-147.49195374 14.67755539 -146.19783569 14.48680939 -144.86450195 14.2902832 C-143.48091846 14.08196379 -142.09741094 13.87313929 -140.713974 13.66384888 C-136.96253462 13.09811928 -133.20995173 12.54036361 -129.4570086 11.98470712 C-126.31840128 11.51947317 -123.180303 11.05085237 -120.04217499 10.58239812 C-112.63291649 9.47662329 -105.22264279 8.3778413 -97.81176758 7.28295898 C-90.18312683 6.15574033 -82.55659914 5.01495944 -74.93094379 3.86773425 C-68.37151367 2.88151729 -61.81072287 1.90473709 -55.24880666 0.93520039 C-51.33529841 0.35681738 -47.42242984 -0.22525335 -43.51088905 -0.8168087 C-39.82786877 -1.37346196 -36.14328088 -1.91826801 -32.45720863 -2.45432663 C-30.47318538 -2.74579026 -28.49092445 -3.04917388 -26.50875854 -3.35301208 C-16.98190872 -4.7204425 -8.22302083 -5.7478085 0 0 Z " fill="#091337" transform="translate(283.30859375,1116.5390625)"/>
</svg>
