<?xml version="1.0" encoding="utf-8"?>
<!-- Generator: Adobe Illustrator 22.0.1, SVG Export Plug-In . SVG Version: 6.00 Build 0)  -->
<svg version="1.1" id="Layer_1" xmlns="http://www.w3.org/2000/svg" xmlns:xlink="http://www.w3.org/1999/xlink" x="0px" y="0px"
	 viewBox="0 0 1600 692" style="enable-background:new 0 0 1600 692;" xml:space="preserve">
<style type="text/css">
	.st0{fill:#D7E9F2;}
	.st1{fill:#D7E8F2;}
	.st2{fill:#EDF5FB;}
	.st3{fill:#34C0E8;}
	.st4{opacity:0.87;fill:#227CAD;enable-background:new    ;}
	.st5{opacity:0.67;fill:#34C0E8;enable-background:new    ;}
	.st6{fill:#40F2DD;}
</style>
<path class="st0" d="M30.9,37.9c1.6,0,1.6,0,3.1,0c3.4,0,6.7,0,10.1,0c2.4,0,4.8,0,7.2,0c5,0,10,0,14.9,0c5,0,10.1,0,15.1,0
	c98.5-0.3,98.5-0.3,140.7,15.2c0.1-0.6,0.3-1.3,0.4-1.9C223,49,223,49,224,48c2.4-0.3,2.4-0.3,5,0c2,3,2,3,1.6,5.7
	c-0.2,0.8-0.4,1.5-0.6,2.3c1.7,0.8,1.7,0.8,3.4,1.7C253.8,67.9,253.8,67.9,258,79c0.9,3.5,1.1,6.7,1,10.4c0,1,0,2-0.1,3.1
	c-0.1,2.1-0.1,4.2-0.2,6.3c-0.1,8.8,1.3,17,7.1,23.9c0.7,0.8,1.5,1.5,2.3,2.3c0.5-1.2,0.5-1.2,0.9-2.4c1.1-2.6,1.1-2.6,2.1-3.6
	c2.4-0.3,2.4-0.3,5,0c2,3,2,3,1.9,5.6c-0.9,2.4-0.9,2.4-2.9,3.6c-0.6,0.3-1.3,0.6-1.9,0.8c15.5,8.5,31,10.4,48.5,10.3
	c0.7,0,1.5,0,2.3,0c18.3,0,36.4-1.8,54.6-3.6c8.7-0.9,17.5-1.7,26.2-2.5c1.9-0.2,3.9-0.4,5.8-0.5c32.4-3,64.6-4.9,97.1-5
	c1.1,0,2.2,0,3.3,0c20.4,0,41,0.7,61.1,4.1c1,0.2,2,0.3,3.1,0.5c19.8,3.5,39.3,8.4,55,21.7c1.1,0.9,1.1,0.9,2.2,1.9
	c9.4,8.5,12.1,18.7,14.2,30.8c2.7,14.3,9.5,23.7,21.1,32.1c36.1,24.3,88,22.8,129.7,22.6c2.7,0,5.3,0,8,0
	c31.3-0.1,62.4-1.2,93.7-3.4c0.9-0.1,1.8-0.1,2.7-0.2c6.1-0.4,12.3-0.9,18.4-1.3c3.3-0.2,6.6-0.5,9.9-0.7c2.2-0.2,4.5-0.3,6.7-0.5
	c1.1-0.1,2.2-0.2,3.4-0.2c6.6-0.5,13.2-0.9,19.7-1.4c23.5-1.7,46.9-3.1,70.4-3.4c33.3-0.4,74.2-4.1,98.7-29.3
	c8.5-9.2,10.5-19.7,11-31.9c0.8-14,2.8-25.9,12.3-36.8c47.3-41.8,148.3-29.1,207.7-30.4c0.7,0,1.4,0,2.1,0
	c38.9-0.9,77.9-1.1,116.8-1.1c3.3,0,6.7,0,10,0c21.5,0,43,0,64.4,0.5c1.1,0,1.1,0,2.3,0c14.8,0.3,29.5,1.5,44.4,2.6
	c0,194,0,388.1,0,588c-528,0-1056,0-1600,0C0,476.5,0,261,0,39C21.8,37.9,21.8,37.9,30.9,37.9z"/>
<path class="st1" d="M30.9,37.9c1.6,0,1.6,0,3.1,0c3.4,0,6.7,0,10.1,0c2.4,0,4.8,0,7.2,0c5,0,10,0,14.9,0c5,0,10.1,0,15.1,0
	c98.5-0.3,98.5-0.3,140.7,15.2c0.1-0.6,0.3-1.3,0.4-1.9C223,49,223,49,224,48c2.4-0.3,2.4-0.3,5,0c2,3,2,3,1.6,5.7
	c-0.2,0.8-0.4,1.5-0.6,2.3c1.7,0.8,1.7,0.8,3.4,1.7C253.8,67.9,253.8,67.9,258,79c0.9,3.5,1.1,6.7,1,10.4c0,1,0,2-0.1,3.1
	c-0.1,2.1-0.1,4.2-0.2,6.3c-0.1,8.8,1.3,17,7.1,23.9c0.7,0.8,1.5,1.5,2.3,2.3c0.5-1.2,0.5-1.2,0.9-2.4c1.1-2.6,1.1-2.6,2.1-3.6
	c2.4-0.3,2.4-0.3,5,0c2,3,2,3,1.9,5.6c-0.9,2.4-0.9,2.4-2.9,3.6c-0.6,0.3-1.3,0.6-1.9,0.8c15.5,8.5,31,10.4,48.5,10.3
	c0.7,0,1.5,0,2.3,0c18.3,0,36.4-1.8,54.6-3.6c8.7-0.9,17.5-1.7,26.2-2.5c1.9-0.2,3.9-0.4,5.8-0.5c32.4-3,64.6-4.9,97.1-5
	c1.1,0,2.2,0,3.3,0c20.4,0,41,0.7,61.1,4.1c1.5,0.3,1.5,0.3,3.1,0.5c14.7,2.6,28.5,6.3,42,12.7c-1.7,4.1-4.7,7.1-7.7,10.3
	c-1.1,1.2-2.2,2.3-3.3,3.5c-0.5,0.6-1.1,1.1-1.6,1.7c-3.8,4.1-7.5,8.4-11.1,12.7c-5.6,6.5-11.2,12.9-17,19.2
	c-3,3.3-5.9,6.6-8.7,10.1c-4.8,6-10.1,11.6-15.4,17.2c-4,4.2-7.7,8.5-11.5,12.9c-1.5,1.7-3,3.5-4.4,5.2c-0.5,0.6-1,1.2-1.6,1.8
	c-4,4.7-8.2,9.3-12.5,13.8c-3,3.3-5.9,6.6-8.7,10.1c-4.8,6-10.1,11.6-15.4,17.2c-4,4.2-7.7,8.5-11.5,12.9c-1.5,1.7-3,3.5-4.4,5.2
	c-0.8,0.9-0.8,0.9-1.6,1.8c-4,4.7-8.2,9.3-12.5,13.8c-3.1,3.3-6,6.7-8.8,10.2c-18.5,22.8-43.4,38.8-72.7,43.1
	c-4.2,0.4-8.2,0.3-12.4,0.1c-0.7,0-1.5-0.1-2.3-0.1c-3.1-0.1-6.1-0.2-9.2-0.4c-9.4-0.8-9.4-0.8-17.8,3c-2.3,2.8-4.2,5.7-6.1,8.8
	c-1.1,1.3-2.2,2.6-3.3,3.9c-0.7,0.9-0.7,0.9-1.5,1.7c-0.5,0.6-1,1.1-1.5,1.7c-1.1,1.3-2.2,2.6-3.4,3.9c-0.8,1-0.8,1-1.7,1.9
	c-2.6,3-5.1,6-7.7,9c-0.5,0.6-1,1.1-1.5,1.7c-1,1.2-2,2.3-3,3.5c-1.5,1.8-3,3.5-4.5,5.3c-4.8,5.6-9.7,11.3-14.5,17
	c-5.3,6.3-10.6,12.5-16,18.7c-2.5,2.9-5,5.8-7.5,8.8c-3,3.5-6,7-9,10.5c-4.8,5.6-9.7,11.3-14.5,17c-5.3,6.3-10.6,12.5-16,18.7
	c-3,3.5-6,7-9,10.5c-2.5,3-5.1,5.9-7.6,8.9c-4.6,5.3-9.2,10.7-13.6,16.1c-3.6,4.4-7.3,8.6-11.1,12.7c-2.2,2.5-4.4,5.1-6.5,7.7
	c-5.2,6.4-10.7,12.7-16.1,18.9c-2.6,3-5.1,6-7.7,9c-0.5,0.6-1,1.1-1.5,1.7c-1,1.2-2,2.3-3,3.5c-1.5,1.8-3,3.5-4.5,5.3
	c-4.8,5.6-9.7,11.3-14.5,17c-5.3,6.3-10.6,12.5-16,18.7c-3,3.5-6,7-9,10.5c-2.5,3-5.1,5.9-7.6,8.9c-4.6,5.3-9.2,10.7-13.6,16.1
	c-3.5,4.3-7.2,8.5-11,12.6c-3.3,3.8-6.3,7.7-9.3,11.7c-23.8,0-47.5,0-72,0C0,476.5,0,261,0,39C21.8,37.9,21.8,37.9,30.9,37.9z"/>
<path class="st0" d="M617,146c5.6,2,9.5,5.2,14,9c0.6,0.5,1.3,1.1,1.9,1.6c9,8.2,11.5,18.5,13.5,30c2.7,14.3,9.5,23.7,21.1,32.1
	c36.6,24.7,89.2,22.8,131.4,22.5c3.5,0,7,0,10.5,0c20.8,0,41.7-0.4,62.5-1.2c-0.9,1.3-1.9,2.5-2.8,3.8c-0.5,0.7-1,1.4-1.6,2.1
	c-2.3,3-4.7,5.9-7.2,8.7c-1.1,1.2-2.1,2.4-3.2,3.7c-0.5,0.6-1.1,1.2-1.6,1.9c-2.6,3-5.2,6-7.8,9c-0.8,0.9-0.8,0.9-1.5,1.8
	c-3,3.6-6,7.2-9,10.8c-3.5,4.4-7.3,8.6-11.1,12.7c-2.3,2.6-4.5,5.3-6.8,8c-2.9,3.6-5.9,7.1-9,10.5c-3,3.3-5.9,6.7-8.8,10.2
	c-3.6,4.5-7.3,8.8-11.1,13.1c-0.6,0.6-1.1,1.3-1.7,1.9c-1.1,1.3-2.2,2.6-3.4,3.9c-6.2,7.1-12.4,14.3-18.3,21.7
	c-3.6,4.4-7.3,8.6-11.1,12.7c-2.2,2.5-4.4,5.1-6.5,7.7c-5.2,6.4-10.7,12.7-16.1,18.9c-4.1,4.7-8.1,9.4-12.1,14.1
	c-1.5,1.8-3.1,3.6-4.6,5.3c-4.6,5.3-9.2,10.7-13.6,16.1c-3.6,4.4-7.3,8.6-11.1,12.7c-2.2,2.5-4.4,5.1-6.5,7.7
	c-5.2,6.4-10.7,12.7-16.1,18.9c-2.6,3-5.1,6-7.7,9c-0.5,0.6-1,1.1-1.5,1.7c-1,1.2-2,2.3-3,3.5c-1.5,1.8-3,3.5-4.5,5.3
	c-4.8,5.6-9.7,11.3-14.5,17c-3.8,4.5-7.6,9-11.4,13.4c-0.5,0.6-1,1.2-1.5,1.8c-2.6,3-5.1,5.9-7.7,8.9c-4.6,5.3-9.1,10.7-13.6,16.1
	c-3.6,4.4-7.3,8.6-11.1,12.7c-2.2,2.5-4.4,5.1-6.5,7.7c-5.2,6.4-10.7,12.7-16.1,18.9c-4.1,4.7-8.1,9.4-12.1,14.1
	c-1.5,1.8-3.1,3.6-4.6,5.3c-4.6,5.3-9.2,10.7-13.6,16.1c-3.6,4.4-7.3,8.6-11.1,12.7c-2.2,2.5-4.4,5.1-6.5,7.7
	c-4.7,5.8-9.5,11.4-14.4,17c-3.3,3.8-6.5,7.6-9.8,11.4c-0.7,0.8-0.7,0.8-1.4,1.7c-0.5,0.5-0.9,1.1-1.4,1.6c-0.4,0.5-0.9,1-1.3,1.5
	c-1.5,1.7-1.5,1.7-2.4,3.6c-1.5,2.3-2.7,3.6-5,5.2c-5.5,1.1-10.9,0.9-16.5,0.8c-1.7,0-3.4,0-5.2,0c-4.7,0-9.4,0-14.2,0
	c-5.1,0-10.2,0-15.3,0c-8.8,0-17.6,0-26.4-0.1c-12.7-0.1-25.5-0.1-38.2-0.1c-20.7,0-41.4-0.1-62-0.1c-20.1-0.1-40.2-0.1-60.3-0.1
	c-1.2,0-2.5,0-3.8,0c-6.2,0-12.4,0-18.6,0c-51.5-0.1-103.1-0.2-154.6-0.4c1.6-3.4,3.5-5.8,6.1-8.6c3.2-3.5,6.2-7,9.2-10.6
	c5.2-6.4,10.7-12.7,16.1-18.9c2.6-3,5.1-6,7.7-9c0.5-0.6,1-1.1,1.5-1.7c1-1.2,2-2.3,3-3.5c2-2.3,4-4.7,6-7c1-1.2,2-2.3,3-3.5
	c2.5-3,5.1-5.9,7.6-8.9c4.6-5.3,9.2-10.7,13.6-16.1c3.6-4.4,7.3-8.6,11.1-12.7c2.2-2.5,4.4-5.1,6.5-7.7c5.2-6.4,10.7-12.7,16.1-18.9
	c2.6-3,5.1-6,7.7-9c0.5-0.6,1-1.1,1.5-1.7c1-1.2,2-2.3,3-3.5c1.5-1.8,3-3.5,4.5-5.3c4.8-5.6,9.7-11.3,14.5-17
	c5.3-6.3,10.6-12.5,16-18.7c3-3.5,6-7,9-10.5c2.5-3,5.1-5.9,7.6-8.9c4.6-5.3,9.2-10.7,13.6-16.1c3.5-4.4,7.3-8.6,11.1-12.7
	c2.3-2.6,4.5-5.3,6.8-8c2.9-3.6,5.9-7.1,9-10.5c3-3.3,5.9-6.7,8.8-10.2c5.2-6.4,10.7-12.7,16.1-18.9c4.1-4.7,8.1-9.4,12.1-14.1
	c1.5-1.8,3.1-3.6,4.6-5.3c5.4-6.2,10.7-12.5,15.9-18.9c0.7-0.8,1.3-1.6,2-2.5c0.7-1,1.4-2.1,2.2-3.1c2.2-2.7,2.7-2.8,6.4-3.5
	c1.4,0,2.7,0.1,4.1,0.2c1.1,0,1.1,0,2.2,0c2.3,0.1,4.7,0.1,7,0.2c14.8,0.5,28.7-0.3,42.8-5.5c1-0.4,1-0.4,2.1-0.8
	c21.2-8,37.7-21.8,51.8-39.5c3-3.7,6.3-7.1,9.5-10.6c4-4.2,7.9-8.5,11.5-13c4.8-6,10-11.5,15.3-17.1c4-4.2,7.7-8.5,11.5-12.9
	c1.5-1.7,3-3.5,4.4-5.2c0.5-0.6,1-1.2,1.6-1.8c4-4.7,8.2-9.3,12.5-13.8c3-3.3,5.9-6.6,8.7-10.1c4.8-6,10.1-11.6,15.4-17.2
	c4-4.2,7.7-8.5,11.5-12.9c1.5-1.7,3-3.5,4.4-5.2c0.8-0.9,0.8-0.9,1.6-1.8c4-4.7,8.2-9.3,12.5-13.8c3-3.3,5.9-6.6,8.7-10.1
	c4.8-6,10.1-11.5,15.4-17.1c3.1-3.3,6.2-6.7,9.1-10.2C616,147,616,147,617,146z"/>
<path class="st2" d="M1291.1,468.8c0.8,0,1.7,0,2.5,0c29.9,0,58.9,4.8,87.3,14.3c1.3,0.4,1.3,0.4,2.7,0.9
	c30.2,10.2,57.4,25.3,82.3,45.1c0.9,0.7,1.9,1.5,2.8,2.2c5.2,4.2,10.3,8.6,15.3,13.1c0.6,0.5,1.1,1,1.7,1.5c2.1,1.9,3.9,3.7,5.3,6.2
	c-0.3,3.4-2.8,5.3-5,7.6c-1,1.1-2.1,2.1-3.1,3.2c-0.5,0.5-1,1.1-1.6,1.6c-2.1,2.3-4.1,4.7-6,7.1c-3.8,4.7-7.9,9.2-12,13.7
	c-2.4,2.7-4.7,5.4-6.9,8.2c-3.7,4.5-7.5,8.8-11.5,13.1c-3.8,4.1-7.3,8.4-10.8,12.8c-3.1,3.8-6.5,7.4-9.8,11
	c-2.4,2.7-4.7,5.4-6.9,8.2c-3.7,4.5-7.5,8.8-11.5,13.1c-3.8,4.1-7.3,8.4-10.8,12.8c-3.1,3.8-6.4,7.3-9.8,10.9
	c-3.3,3.7-6.5,7.6-9.6,11.5c-0.6,0.8-1.3,1.5-1.9,2.3c-0.4,0.5-0.8,1.1-1.2,1.6c-2.7,2.1-5,1.8-8.4,1.7c-0.7,0-1.4,0-2.1,0
	c-2.3,0-4.6,0-6.9,0c-1.7,0-3.3,0-5,0c-4.6,0-9.1,0-13.7,0c-4.9,0-9.8,0-14.8,0c-8.5,0-17.1,0-25.6,0c-12.3,0-24.7,0-37,0
	c-20,0-40,0-60-0.1c-19.4,0-38.9,0-58.3-0.1c-1.2,0-2.4,0-3.6,0c-6,0-12,0-18,0c-49.8,0-99.7-0.1-149.5-0.2c1-1.3,1.9-2.6,2.9-3.8
	c0.5-0.7,1.1-1.4,1.6-2.2c1.8-2.4,3.8-4.6,5.8-6.8c3.1-3.4,6.1-6.9,9.1-10.6c3.7-4.6,7.6-8.9,11.5-13.1c3.8-4.1,7.3-8.4,10.8-12.8
	c3.1-3.8,6.5-7.4,9.8-11c2.4-2.7,4.7-5.4,6.9-8.2c3.7-4.5,7.5-8.8,11.5-13.1c3.8-4.1,7.3-8.4,10.8-12.8c3.1-3.8,6.5-7.4,9.8-11
	c2.4-2.6,4.6-5.3,6.8-8.1c4.1-5.1,8.5-9.9,13-14.7c2.8-2.9,5.5-5.9,8-9c9-10.4,19.9-19.4,30.9-27.7c1.7-1.3,3.4-2.6,5.1-3.9
	C1171.6,487,1232,468.8,1291.1,468.8z"/>
<path class="st3" d="M507.5,127.7c1.1,0,2.2,0,3.3,0c20.4,0,41,0.7,61.1,4.1c1.5,0.3,1.5,0.3,3.1,0.5c14.7,2.6,28.5,6.3,42,12.7
	c-1.7,4.1-4.7,7.1-7.7,10.3c-1.1,1.2-2.2,2.3-3.3,3.5c-0.5,0.6-1.1,1.1-1.6,1.7c-3.8,4.1-7.5,8.4-11.1,12.7
	c-5.6,6.5-11.2,12.9-17,19.2c-3,3.3-5.9,6.6-8.7,10.1c-4.8,6-10.1,11.6-15.4,17.2c-4,4.2-7.7,8.5-11.5,12.9c-1.5,1.7-3,3.5-4.4,5.2
	c-0.5,0.6-1,1.2-1.6,1.8c-4,4.7-8.2,9.3-12.5,13.8c-3,3.3-5.9,6.6-8.7,10.1c-4.8,6-10.1,11.6-15.4,17.2c-4,4.2-7.7,8.5-11.5,12.9
	c-1.5,1.7-3,3.5-4.4,5.2c-0.5,0.6-1,1.2-1.6,1.8c-4,4.7-8.2,9.3-12.5,13.8c-3.1,3.3-6,6.7-8.8,10.2c-19.4,24-45.6,39.9-76.5,43.4
	c-34.7,2.3-62.6-6.4-89.1-29.3c-20.8-19.2-33-45.5-35.1-73.7c-1.3-35.4,11-63.7,34.9-89.5c2.6-2.8,5.1-5.6,7.5-8.5
	c2-2.3,4.1-4.6,6.1-6.8c4-4.5,7.8-9.1,11.6-13.7c0.7-0.8,1.3-1.6,2-2.4c0.6-0.7,1.2-1.4,1.7-2.1c2.9-2.4,4.6-2.5,8.4-2.7
	c1.3-0.1,2.6-0.2,4-0.3c0.7,0,1.4-0.1,2.2-0.1c4.1-0.2,8.2-0.5,12.4-0.8c0.9-0.1,1.9-0.1,2.8-0.2c8.4-0.6,16.7-1.3,25.1-2.1
	c0.7-0.1,1.4-0.1,2.1-0.2c1.4-0.1,2.8-0.3,4.2-0.4c0.7-0.1,1.4-0.1,2.1-0.2c1.1-0.1,1.1-0.1,2.1-0.2
	C427.9,130.9,467.6,127.8,507.5,127.7z"/>
<path class="st4" d="M1599,428c0.3,0,0.7,0,1,0c0,87.1,0,174.2,0,264c-75.6,0-151.1,0-229,0c3.7-5,7.1-9.4,11.3-13.8
	c4.4-4.7,8.4-9.5,12.4-14.5c2.3-2.8,4.8-5.5,7.2-8.2c3.3-3.6,6.4-7.2,9.5-11c3.8-4.8,7.9-9.3,12-13.8c2.4-2.7,4.7-5.4,6.9-8.2
	c3.7-4.5,7.5-8.8,11.5-13.1c3.8-4.1,7.3-8.4,10.8-12.8c3.1-3.8,6.5-7.4,9.8-11c2.4-2.7,4.7-5.4,6.9-8.2c3.7-4.5,7.5-8.8,11.5-13.1
	c3.8-4.1,7.3-8.4,10.8-12.8c2.3-2.8,4.8-5.5,7.2-8.2c3.3-3.6,6.4-7.2,9.5-11c3.8-4.8,7.9-9.3,12-13.8c2.4-2.7,4.7-5.4,6.9-8.2
	c3.7-4.5,7.5-8.8,11.5-13.1c3.8-4.1,7.3-8.4,10.8-12.8c2.3-2.8,4.8-5.5,7.2-8.2c3.3-3.6,6.4-7.2,9.5-11s6.2-7.4,9.5-11
	c4.1-4.5,7.9-9.1,11.8-13.8C1591.4,436.4,1595.1,432.1,1599,428z"/>
<path class="st3" d="M943,102c2,1,2,1,2.7,2.8c0.2,0.8,0.4,1.6,0.6,2.4c0.2,0.9,0.5,1.8,0.7,2.7c0.3,1,0.5,1.9,0.8,2.9s0.5,2,0.8,3
	c0.6,2.1,1.1,4.2,1.7,6.3c0.8,3.2,1.7,6.4,2.6,9.7c0.5,2,1.1,4.1,1.6,6.1c0.3,1,0.5,1.9,0.8,2.9c0.2,0.9,0.5,1.8,0.7,2.7
	c0.2,0.8,0.4,1.6,0.6,2.4c0.4,2.1,0.4,2.1,0.4,5.1c-5.8-0.7-11.3-2-16.9-3.5c-1.4-0.4-1.4-0.4-2.8-0.7c-2.9-0.8-5.8-1.5-8.8-2.3
	c-2-0.5-4-1.1-6-1.6c-4.9-1.3-9.7-2.6-14.6-3.9c3.6-4.2,7.2-8.3,11.2-12.2c0.5-0.5,0.9-0.9,1.4-1.4c1.9-1.9,3.9-3.9,5.8-5.8
	C932.2,113.9,937.8,108.2,943,102z"/>
<path class="st5" d="M320.5,23.8C323,24,323,24,325,26c0.3,2.5,0.3,2.5,0,5c-2,2-2,2-4.5,2.3C318,33,318,33,316,31
	c-0.3-2.5-0.3-2.5,0-5C318,24,318,24,320.5,23.8z"/>
<path class="st5" d="M321.6,95.3C324,96,324,96,325,97c0.2,2.4,0.2,2.4,0,5c-2,2-2,2-4.5,2.3C318,104,318,104,316,102
	c-0.3-2.5-0.3-2.5,0-5C319,95,319,95,321.6,95.3z"/>
<path class="st5" d="M371,96c1,1,1,1,1.2,3.4C372,102,372,102,370,104c-2.5,0.3-2.5,0.3-5,0c-2-3-2-3-1.8-5.6
	c0.2-0.8,0.5-1.6,0.8-2.4C366.7,94.7,368.2,95.3,371,96z"/>
<path class="st5" d="M271,95c3.1,0.4,3.1,0.4,6,1c0.6,2.3,0.6,2.3,1,5c-1,1.5-1,1.5-2,3c-2.5,0.3-2.5,0.3-5,0c-2-2-2-2-2.3-4.5
	C269,97,269,97,271,95z"/>
<path class="st5" d="M273.5,47.8C276,48,276,48,278,50c-0.4,3.1-0.4,3.1-1,6c-2.3,0.6-2.3,0.6-5,1c-1-0.7-2-1.3-3-2
	c-0.3-2.5-0.3-2.5,0-5C271,48,271,48,273.5,47.8z"/>
<path class="st5" d="M271,24c3.1,0.4,3.1,0.4,6,1c0.6,2.3,0.6,2.3,1,5c-1,1.5-1,1.5-2,3c-2.5,0.3-2.5,0.3-5,0c-2-2-2-2-2.3-4.5
	C269,26,269,26,271,24z"/>
<path class="st5" d="M206,25c1,1,1,1,1.2,3.4C207,31,207,31,205,33c-2.5,0.3-2.5,0.3-5,0c-2-3-2-3-1.8-5.6c0.2-0.8,0.5-1.6,0.8-2.4
	C201.7,23.7,203.2,24.3,206,25z"/>
<path class="st5" d="M365,119c2.5-0.3,2.5-0.3,5,0c2,2,2,2,2.3,4.5c-0.2,1.2-0.2,1.2-0.3,2.5c-3,2-3,2-5.7,1.6
	c-0.8-0.2-1.5-0.4-2.3-0.6c-0.6-2.3-0.6-2.3-1-5C363.7,121,364.3,120,365,119z"/>
<path class="st5" d="M320.4,118.8c2.6,0.2,2.6,0.2,4.6,2.2c-0.4,3.1-0.4,3.1-1,6c-2.3,0.7-2.3,0.7-5,1c-1.9-1.1-1.9-1.1-3-3
	C316.6,119.1,316.6,119.1,320.4,118.8z"/>
<path class="st5" d="M273.5,118.7c1.2,0.2,1.2,0.2,2.5,0.3c2,3,2,3,1.6,5.7c-0.2,0.8-0.4,1.5-0.6,2.3c-2.3,0.6-2.3,0.6-5,1
	c-1-0.7-2-1.3-3-2c-0.3-2.5-0.3-2.5,0-5C271,119,271,119,273.5,118.7z"/>
<path class="st5" d="M320.4,47.8C323,48,323,48,325,50c-0.4,3.1-0.4,3.1-1,6c-2.3,0.7-2.3,0.7-5,1c-1.9-1.1-1.9-1.1-3-3
	C316.6,48.1,316.6,48.1,320.4,47.8z"/>
<path class="st5" d="M250.6,24.3C253,25,253,25,254,26c0.2,2.4,0.2,2.4,0,5c-0.7,0.7-1.3,1.3-2,2c-3.1-0.4-3.1-0.4-6-1
	c-0.7-2.3-0.7-2.3-1-5C246.7,24.2,247.4,23.9,250.6,24.3z"/>
<path class="st5" d="M224,24c3.1,0.4,3.1,0.4,6,1c0.7,2.3,0.7,2.3,1,5c-1.1,1.9-1.1,1.9-3,3c-4.4-0.4-4.4-0.4-6-2
	c-0.2-2.4-0.2-2.4,0-5C222.7,25.3,223.3,24.7,224,24z"/>
<path class="st5" d="M249.4,47.8C252,48,252,48,254,50c0.3,2.5,0.3,2.5,0,5c-3,2-3,2-5.1,1.8C247,56,247,56,245,54
	C245.7,48.1,245.7,48.1,249.4,47.8z"/>
<path class="st5" d="M249,0c2.5,1,2.5,1,5,2c0,2,0,4,0,6c-1,1-1,1-4.1,1.1C249,9,248,9,247,9c-0.7-1.7-1.3-3.3-2-5
	C246.3,2.7,247.6,1.4,249,0z"/>
<path class="st5" d="M347,119c1,1,1,1,1.2,3.9C348,126,348,126,346,128c-4.6-0.6-4.6-0.6-6-2c0-2,0-4,0-6
	C342.5,118.8,344.3,118.9,347,119z"/>
<path class="st5" d="M294,119c2.3,0.3,4.7,0.6,7,1c0.1,2.9,0.1,2.9,0,6c-0.7,0.7-1.3,1.3-2,2c-4.6-0.6-4.6-0.6-6-2c-0.1-3-0.1-3,0-6
	C293.3,119.7,293.7,119.3,294,119z"/>
<path class="st5" d="M272.9,71.8C276,72,276,72,278,74c-0.6,4.6-0.6,4.6-2,6c-2,0-4,0-6,0c-0.4-2.3-0.7-4.7-1-7
	C270,72,270,72,272.9,71.8z"/>
<path class="st5" d="M344,47.9c3,0.1,3,0.1,4,1.1c0.2,2.9,0.2,2.9,0,6c-0.7,0.7-1.3,1.3-2,2c-4.6-0.6-4.6-0.6-6-2c-0.1-3-0.1-3,0-6
	C341,48,341,48,344,47.9z"/>
<path class="st5" d="M297,47.9c3,0.1,3,0.1,4,1.1c0.3,2.9,0.3,2.9,0,6c-3,2-3,2-5.1,1.7C294,56,294,56,293,55c-0.1-3-0.1-3,0-6
	C294,48,294,48,297,47.9z"/>
<path class="st5" d="M228.2,0.6C230,2,230,2,230.9,3.9C231,6,231,6,229,9c-3.1,0.3-3.1,0.3-6,0c-1-1-1-1-1.1-4.1c0-1,0-1.9,0.1-2.9
	C224.4,0.5,225.4-0.2,228.2,0.6z"/>
<path class="st5" d="M368.1,71.9c1.5,0,1.5,0,2.9,0.1c1.1,5.8,1.1,5.8,0,8c-2.9,0.1-2.9,0.1-6,0c-0.7-0.7-1.3-1.3-2-2
	C363.7,72,363.7,72,368.1,71.9z"/>
<path class="st5" d="M317,72c2.3,0,4.6,0,7,0c0.6,2.9,0.6,2.9,1,6c-2,2-2,2-4.5,2.3C318,80,318,80,316,78
	C316.4,74.9,316.4,74.9,317,72z"/>
<path class="st5" d="M342,95c4.6,0.6,4.6,0.6,6,2c0,2,0,4,0,6c-2.9,0.6-2.9,0.6-6,1c-2-2-2-2-2.3-4.5C340,97,340,97,342,95z"/>
<path class="st5" d="M295,95c4.6,0.6,4.6,0.6,6,2c0.2,2.4,0.2,2.4,0,5c-0.7,0.7-1.3,1.3-2,2c-3.1-0.4-3.1-0.4-6-1
	c-0.1-2.9-0.1-2.9,0-6C293.7,96.3,294.3,95.7,295,95z"/>
<path class="st5" d="M295,24c4.6,0.6,4.6,0.6,6,2c0.2,2.4,0.2,2.4,0,5c-0.7,0.7-1.3,1.3-2,2c-3.1-0.4-3.1-0.4-6-1
	c-0.1-2.9-0.1-2.9,0-6C293.7,25.3,294.3,24.7,295,24z"/>
<path class="st5" d="M177,24c4.6,0.6,4.6,0.6,6,2c0,2,0,4,0,6c-2.9,0.6-2.9,0.6-6,1c-2-2-2-2-2.3-4.5C175,26,175,26,177,24z"/>
<path class="st5" d="M344,71.9c3,0.1,3,0.1,4,1.1c0.1,3,0.1,3,0,6c-1,1-1,1-4,1.1c-3-0.1-3-0.1-4-1.1c-0.1-3-0.1-3,0-6
	C341,72,341,72,344,71.9z"/>
<path class="st5" d="M297,71.9c3,0.1,3,0.1,4,1.1c0.1,3,0.1,3,0,6c-1,1-1,1-4,1.1c-3-0.1-3-0.1-4-1.1c-0.1-3-0.1-3,0-6
	C294,72,294,72,297,71.9z"/>
<path class="st5" d="M270,1c2.3,0.3,4.7,0.6,7,1c0.6,2.4,0.6,2.4,1,5c-2,2-2,2-4.5,2.3C271,9,271,9,269,7c-0.2-2.6-0.2-2.6,0-5
	C269.3,1.7,269.7,1.3,270,1z"/>
<path class="st5" d="M226.4,47.8c1.3,0.1,1.3,0.1,2.6,0.3c2,3,2,3,1.6,5.2c-0.2,0.6-0.4,1.2-0.6,1.8c-2.6,0.9-3.6,1.1-6.3,0.1
	c-0.6-0.4-1.2-0.7-1.8-1.1C223.1,48.1,223.1,48.1,226.4,47.8z"/>
<path class="st5" d="M389,119c1.3,0,2.6,0,4,0c1.4,2.7,1.1,5,1,8c-1.8,0.6-1.8,0.6-4,1c-1-0.7-2-1.3-3-2c-0.3-2.5-0.3-2.5,0-5
	C387.7,120.3,388.3,119.7,389,119z"/>
<path class="st5" d="M160,27c-0.9,4.9-0.9,4.9-2,6c-1.7,0-3.3,0-5,0C154.5,29.6,155.9,27,160,27z"/>
<path class="st5" d="M206,4c0.3,1,0.7,2,1,3c-2,2-2,2-4.6,2.1c-0.8,0-1.6-0.1-2.4-0.1c-0.3-1-0.7-2-1-3C201.3,5.3,203.6,4.7,206,4z"
	/>
<path class="st6" d="M293,7c2.5,0.5,2.5,0.5,5,1c-1.3,0.3-2.6,0.7-4,1C293.7,8.3,293.3,7.7,293,7z"/>
<path class="st6" d="M0,0"/>
<path class="st6" d="M0,0"/>
</svg>
