<?xml version="1.0" encoding="utf-8"?>
<!-- Generator: Adobe Illustrator 22.0.1, SVG Export Plug-In . SVG Version: 6.00 Build 0)  -->
<svg width="846" version="1.1" id="Layer_1" xmlns="http://www.w3.org/2000/svg" xmlns:xlink="http://www.w3.org/1999/xlink" x="0px" y="0px"
	 viewBox="0 0 846 899" style="enable-background:new 0 0 846 899;" xml:space="preserve">
<style type="text/css">
	.st0{opacity:7.000000e-02;fill:#227CAD;}
	.st1{opacity:0.57;fill:#B1EEFF;}
	.st2{fill:#7164F2;}
	.st3{fill:#EDF5FB;}
	.st4{fill:#FAFCFD;}
	.st5{fill:#FBFCFD;}
	.st6{fill:#FBFDFD;}
	.st7{fill:#FBFDFE;}
	.st8{fill:#FCFDFE;}
	.st9{fill:#FDFDFE;}
	.st10{fill:#F9FCFD;}
	.st11{fill:#F9FBFD;}
	.st12{fill:#FDFEFE;}
</style>
<path class="st0" d="M438.1,46c2.1,1.1,4.2,2.2,6.3,3.2C464,59.1,482.1,71.1,499,85c0.6,0.5,1.2,1,1.9,1.5
	c13.6,11.2,26.6,23.2,38.1,36.5c1.7,1.8,3.3,3.6,5,5.4c4.9,5.4,9.5,10.9,14,16.6c1,1.3,2.1,2.5,3.1,3.8c5,6.2,10,12.3,14.8,18.6
	c8.4,11,17.3,21.5,26.2,32c2.9,3.4,5.7,6.8,8.5,10.2c3.6,4.5,7.4,8.7,11.3,13c1.9,2.1,3.8,4.2,5.6,6.3c3.4,3.9,6.8,7.6,10.2,11.4
	c1.5,1.7,3,3.3,4.5,5c8.6,9.6,17.2,19.1,26.4,28.1c2,2,3.8,4,5.6,6.2c4.4,5,9.1,9.7,13.8,14.4c0.9,0.9,1.7,1.7,2.6,2.6
	c4.4,4.4,8.9,8.7,13.7,12.8c2.6,2.2,4.9,4.6,7.3,7.1c3.6,3.7,7.3,7.2,11.3,10.6c3.6,3.1,7,6.3,10.4,9.5c2.9,2.7,5.9,5.4,9,8
	C803.5,398,840.3,502.2,846,581c0.1,3.4,0.2,6.9,0.2,10.3c0,0.9,0,1.9,0,2.9c0.2,39.3,0.2,39.3-3.2,55.8c-0.3,1.5-0.3,1.5-0.6,3
	c-7.6,36.2-23,69-47.4,97c-0.8,0.9-0.8,0.9-1.5,1.7c-55.1,62.7-152.4,101.5-235.2,107c-2.8,0.1-5.5,0.2-8.3,0.3
	c-1.7,0.1-1.7,0.1-3.5,0.1c-33.3,0.9-66.2-2.4-99.1-7.4C372.7,840.2,295.4,833.6,220,841c-0.7,0.1-1.4,0.1-2.1,0.2
	c-44.5,4.3-88.2,12.1-129.2,30.6C60.9,884.3,30.4,895.2,0,899C0,606.6,0,314.2,0,13c3.9-0.6,7.4-1.2,11.3-1.4c1-0.1,2-0.1,3.1-0.2
	c1.1-0.1,2.2-0.1,3.4-0.2c2.5-0.1,4.9-0.3,7.4-0.4c1.3-0.1,2.6-0.2,4-0.2c24.5-1.5,48.9-3.2,73.3-5.3C183.8-1.5,265.3-3.9,438.1,46z
	"/>
<path class="st1" d="M438.1,46c2.1,1.1,4.2,2.2,6.3,3.2C464,59.1,482.1,71.1,499,85c0.6,0.5,1.2,1,1.9,1.5
	c7.3,6,14.3,12.4,21.3,18.9c0.7,0.7,1.4,1.3,2.2,2c3.8,3.6,7,7.1,9.7,11.6c-1,0.5-1,0.5-2,0.9c-24.8,11.6-47.6,24.9-69,42.1
	c-1,0.8-2.1,1.6-3.1,2.5c-15.6,12.8-31.1,27.7-43,44.1C415,211,415,211,412,213c-0.4,0.8-0.8,1.6-1.3,2.5c-2.4,4.9-5.6,9.1-8.8,13.5
	c-1.6-0.3-3.3-0.7-5-1c0,1,0,2,0,3c0.7,0.3,1.3,0.7,2,1c-1.3,3.4-2.8,6.4-4.7,9.5c-0.8,1.2-0.8,1.2-1.6,2.5
	c-0.5,0.9-1.1,1.7-1.6,2.6c-0.5,0.9-1.1,1.7-1.6,2.6c-2.3,3.6-4.4,6.8-7.4,9.8c-0.8,1.6-1.6,3.1-2.4,4.8c-2.2,4.5-4.6,8.3-7.6,12.3
	c-0.7-0.7-1.3-1.3-2-2c-1,0-2,0-3,0c0,1,0,2,0,3c1,0.3,2,0.7,3,1c-1.6,4.6-4.1,8.4-6.8,12.4c-1,1.5-2,3.1-3,4.6
	c-0.5,0.8-1.1,1.6-1.6,2.5c-2.8,4.3-5.6,8.7-8.3,13c-7.1,11.1-14.2,22.2-21.3,33.3c-3.3,5.2-6.7,10.4-10,15.7
	c-1.3,2.1-2.7,4.2-4,6.3c-0.7,1-1.3,2.1-2,3.1c-6,9.4-6,9.4-8,12.5c-1.3,2.1-2.7,4.2-4,6.2c-3.4,5.3-6.8,10.6-10.2,15.9
	c-20.3,31.3-36.4,63.3-45.1,99.8c-0.5,1.9-0.9,3.7-1.4,5.6c-2,7.5-3.3,14.9-4.4,22.5c-0.2,1.1-0.3,2.2-0.5,3.4
	c-10.8,73.7,9,154.2,53,214.4c1.2,1.6,2.4,3.2,3.7,4.8c0.4,0.6,0.9,1.1,1.3,1.7c5.9,7.9,12.3,15.3,19,22.4c2,2.2,4,4.4,5.9,6.7
	c2.6,3,5.4,5.6,8.5,8.1c1.6,1.4,3.2,2.9,4.8,4.3c10.9,10.3,23,19.5,35.5,27.6c-0.6,3.8-2.4,6.5-4.5,9.7c-0.6,1-1.3,1.9-1.9,2.9
	C363,840,363,840,362,841c-2.4-0.1-4.8-0.2-7.2-0.3c-1.6-0.1-3.2-0.2-4.8-0.3c-0.9-0.1-1.8-0.1-2.7-0.2c-42-2.4-85.4-3.3-127.3,0.8
	c-0.7,0.1-1.4,0.1-2.1,0.2c-44.5,4.3-88.2,12.1-129.2,30.6C60.9,884.3,30.4,895.2,0,899C0,606.6,0,314.2,0,13
	c3.9-0.6,7.4-1.2,11.3-1.4c1-0.1,2-0.1,3.1-0.2c1.1-0.1,2.2-0.1,3.4-0.2c2.5-0.1,4.9-0.3,7.4-0.4c1.3-0.1,2.6-0.2,4-0.2
	c24.5-1.5,48.9-3.2,73.3-5.3C183.8-1.5,265.3-3.9,438.1,46z"/>
<path class="st2" d="M98.9,372.7c0.9,0,1.9,0,2.9,0c63.3-0.1,120,21.2,173.3,54.3c-1.4,3.6-3,7.1-4.7,10.6
	c-10.5,21.3-19.1,42.6-24.6,65.7c-0.5,1.9-0.9,3.7-1.4,5.6c-2,7.5-3.3,14.9-4.4,22.5c-0.2,1.1-0.3,2.2-0.5,3.4
	c-10.8,73.7,9,154.2,53,214.4c1.2,1.6,2.4,3.2,3.7,4.8c0.4,0.6,0.9,1.1,1.3,1.7c5.9,7.9,12.3,15.3,19,22.4c2,2.2,4,4.4,5.9,6.7
	c2.6,3,5.4,5.6,8.5,8.1c1.6,1.4,3.2,2.9,4.8,4.3c10.9,10.3,23,19.5,35.5,27.6c-0.6,3.8-2.4,6.5-4.5,9.7c-0.6,1-1.3,1.9-1.9,2.9
	C363,840,363,840,362,841c-2.4-0.1-4.8-0.2-7.2-0.3c-1.6-0.1-3.2-0.2-4.8-0.3c-0.9-0.1-1.8-0.1-2.7-0.2c-42-2.4-85.4-3.3-127.3,0.8
	c-0.7,0.1-1.4,0.1-2.1,0.2c-44.5,4.3-88.2,12.1-129.2,30.6C60.9,884.3,30.4,895.2,0,899c0-168.3,0-336.6,0-510
	C33.5,378.8,64,372.8,98.9,372.7z"/>
</svg>
