<?xml version="1.0" encoding="utf-8"?>
<!-- Generator: Adobe Illustrator 22.0.1, SVG Export Plug-In . SVG Version: 6.00 Build 0)  -->
<svg width="1275" version="1.1" id="Layer_1" xmlns="http://www.w3.org/2000/svg" xmlns:xlink="http://www.w3.org/1999/xlink" x="0px" y="0px"
	 viewBox="0 0 1275 1405" style="enable-background:new 0 0 1275 1405;" xml:space="preserve">
<style type="text/css">
	.st0{fill:url(#SVGID_1_);}
	.st1{fill:url(#SVGID_2_);}
	.st2{fill:#D7E9F2;}
</style>
<linearGradient id="SVGID_1_" gradientUnits="userSpaceOnUse" x1="50.7027" y1="598.8427" x2="618.679" y2="30.8663">
	<stop  offset="0" style="stop-color:#7164F2"/>
	<stop  offset="4.914260e-02" style="stop-color:#6A6FF1"/>
	<stop  offset="0.2028" style="stop-color:#568CEE"/>
	<stop  offset="0.3663" style="stop-color:#47A3EB"/>
	<stop  offset="0.5421" style="stop-color:#3CB3E9"/>
	<stop  offset="0.739" style="stop-color:#36BDE8"/>
	<stop  offset="1" style="stop-color:#34C0E8"/>
</linearGradient>
<path class="st0" d="M598,18c1.1,0.6,2.2,1.2,3.3,1.8c7.2,4,13.5,8.8,19.7,14.2c0.8,0.7,1.6,1.4,2.4,2.1
	c25.3,21.8,40.4,54.1,44.6,86.9c2.7,52.1-19,88.5-44.5,132c-5.6,9.5-11.1,19.1-16.6,28.7c-3.1,5.4-6.3,10.9-9.4,16.3
	c-1.3,2.2-2.5,4.3-3.8,6.5c-22.5,39-45,78-67.5,117c-0.6,1.1-1.2,2.1-1.9,3.3c-1.2,2.2-2.5,4.3-3.7,6.5c-3.2,5.5-6.4,11-9.5,16.5
	c-21.4,37.3-21.4,37.3-30.1,47.2c-0.7,0.8-1.4,1.7-2.1,2.5c-13.3,15.2-28.6,26.2-46.9,34.5c-1.8,0.8-1.8,0.8-3.6,1.7
	c-33.7,14.6-72.7,13.7-106.7,0.5c-11.7-4.9-22.7-11.3-32.5-19.4c-2-1.9-2-1.9-4.2-1.7c-0.3,0.6-0.7,1.2-1,1.9
	c-6.6,12-13.3,23.9-20.3,35.7c-1,1.7-2,3.3-2.9,5C245.2,584,223.9,604.4,196,617c-1.8,0.8-1.8,0.8-3.6,1.7
	c-33.7,14.6-72.7,13.7-106.7,0.5c-34.5-14.3-61.4-42.2-76-76.4c-13.7-36.2-12.9-75.7,2.9-111c4.6-9.5,10-18.6,15.3-27.8
	c1.2-2,2.3-4,3.5-6c2.3-4,4.6-7.9,6.9-11.9c3.7-6.3,7.4-12.6,11-19c0.6-1.1,1.2-2.2,1.9-3.3c1.3-2.2,2.5-4.4,3.8-6.6
	c3.1-5.4,6.3-10.9,9.4-16.3c1.3-2.2,2.5-4.3,3.8-6.5c22.5-39,45-78,67.5-117c0.6-1.1,1.2-2.1,1.9-3.3c1.2-2.2,2.5-4.3,3.7-6.5
	c3.1-5.4,6.3-10.9,9.4-16.3c3.1-5.4,6.2-10.8,9.4-16.2c1.9-3.2,3.7-6.5,5.6-9.7c21.5-37.6,49-65.9,91.8-77.6
	c36.5-9.5,74.2-4.4,106.9,14.1c5.4,3.2,10.4,6.7,15.4,10.4c2,1.6,2,1.6,4.1,2.6c0.3-0.7,0.5-1.4,0.8-2.1c1.3-3.1,2.9-6,4.6-8.9
	c0.3-0.6,0.7-1.1,1-1.7c1.1-1.8,2.1-3.7,3.2-5.5c0.7-1.3,1.5-2.5,2.2-3.8c1.4-2.5,2.9-5,4.3-7.5c1.6-2.8,3.3-5.7,4.9-8.5
	c20.2-35.2,48.9-61.1,88.6-72C500,3.2,506.4,1.7,513,1c1-0.1,2.1-0.2,3.1-0.4C545-2.1,572.6,4.3,598,18z"/>
<linearGradient id="SVGID_2_" gradientUnits="userSpaceOnUse" x1="1115.3245" y1="1256.488" x2="794.0573" y2="935.2209">
	<stop  offset="0" style="stop-color:#7164F2"/>
	<stop  offset="4.914260e-02" style="stop-color:#6A6FF1"/>
	<stop  offset="0.2028" style="stop-color:#568CEE"/>
	<stop  offset="0.3663" style="stop-color:#47A3EB"/>
	<stop  offset="0.5421" style="stop-color:#3CB3E9"/>
	<stop  offset="0.739" style="stop-color:#36BDE8"/>
	<stop  offset="1" style="stop-color:#34C0E8"/>
</linearGradient>
<path class="st1" d="M1205,804c1.1,0.6,2.2,1.2,3.3,1.8c7.2,4,13.5,8.8,19.7,14.2c0.8,0.7,1.6,1.4,2.4,2.1
	c25.3,21.8,40.4,54.1,44.6,86.9c2.7,52.1-19,88.5-44.5,132c-5.6,9.5-11.1,19.1-16.6,28.7c-3.1,5.4-6.3,10.9-9.4,16.3
	c-1.3,2.2-2.5,4.3-3.8,6.5c-22.5,39-45,78-67.5,117c-0.6,1.1-1.2,2.1-1.9,3.3c-1.2,2.2-2.5,4.3-3.7,6.5c-3.2,5.5-6.4,11-9.5,16.5
	c-21.4,37.3-21.4,37.3-30.1,47.2c-0.7,0.8-1.4,1.7-2.1,2.5c-13.3,15.2-28.6,26.2-46.9,34.5c-1.8,0.8-1.8,0.8-3.6,1.7
	c-32.9,14.2-71.1,13.8-104.4,1.3c-8.3-3.4-16.2-7.5-24-12c-0.6,1-1.2,2-1.8,3.1c-2.7,4.6-5.5,9.3-8.2,13.9c-0.7,1.2-0.7,1.2-1.4,2.4
	c-5.3,9-10.6,17.7-17.6,25.6c-0.7,0.8-1.4,1.7-2.1,2.5c-13.3,15.2-28.6,26.2-46.9,34.5c-1.8,0.8-1.8,0.8-3.6,1.7
	c-33.7,14.6-72.7,13.7-106.7,0.5c-34.5-14.3-61.4-42.2-76-76.4c-13.7-36.2-12.9-75.7,2.9-111c4.6-9.5,10-18.6,15.3-27.8
	c1.2-2,2.3-4,3.5-6c2.3-4,4.6-7.9,6.9-11.9c3.7-6.3,7.4-12.6,11-19c0.6-1.1,1.2-2.2,1.9-3.3c1.3-2.2,2.5-4.4,3.8-6.6
	c3.1-5.4,6.3-10.9,9.4-16.3c1.3-2.2,2.5-4.3,3.8-6.5c22.5-39,45-78,67.5-117c0.6-1.1,1.2-2.1,1.9-3.3c1.2-2.2,2.5-4.3,3.7-6.5
	c3.1-5.4,6.3-10.9,9.4-16.3c3.1-5.4,6.2-10.8,9.4-16.2c1.9-3.2,3.7-6.5,5.6-9.7c21.5-37.6,49-65.9,91.8-77.6
	c39.6-10.4,75.7-2,111.4,16.1c0.4-0.6,0.7-1.3,1.1-2c23.7-41.2,49.6-74.1,97.5-87.2c6.4-1.7,12.8-3.1,19.4-3.8
	c1.5-0.2,1.5-0.2,3.1-0.4C1152,783.9,1179.6,790.3,1205,804z"/>
<path class="st2" d="M598,18c1.1,0.6,2.2,1.2,3.3,1.8c7.2,4,13.5,8.8,19.7,14.2c0.8,0.7,1.6,1.4,2.4,2.1
	c25.3,21.8,40.4,54.1,44.6,86.9c2.7,52.1-19,88.5-44.5,132c-5.6,9.5-11.1,19.1-16.6,28.7c-3.1,5.4-6.3,10.9-9.4,16.3
	c-1.3,2.2-2.5,4.3-3.8,6.5c-22.5,39-45,78-67.5,117c-0.6,1.1-1.2,2.1-1.9,3.3c-1.2,2.2-2.5,4.3-3.7,6.5c-3.2,5.5-6.4,11-9.5,16.5
	c-21.4,37.3-21.4,37.3-30.1,47.2c-0.7,0.8-1.4,1.7-2.1,2.5c-13.3,15.2-28.6,26.2-46.9,34.5c-1.8,0.8-1.8,0.8-3.6,1.7
	c-33.7,14.6-72.7,13.7-106.7,0.5c-13.1-5.4-24.9-12.9-35.7-22.1c0.6-4.1,2-7.1,4.1-10.7c0.6-1.1,1.3-2.2,1.9-3.4
	c0.7-1.2,1.4-2.4,2.1-3.6c0.7-1.3,1.5-2.5,2.2-3.8c1.5-2.6,3-5.2,4.5-7.8c2-3.5,4.1-7,6.1-10.6c6.6-11.4,13.2-22.8,19.8-34.2
	c6.2-10.6,12.3-21.2,18.4-31.8c3.1-5.4,6.3-10.9,9.4-16.3c1.3-2.2,2.5-4.3,3.8-6.5c22.5-39,22.5-39,24.4-42.3
	c1.2-2.2,2.5-4.3,3.7-6.5c3.2-5.5,6.4-11.1,9.6-16.6c3.1-5.4,6.3-10.9,9.4-16.3c1-1.8,2-3.5,3.1-5.3c18.9-32.8,29-69.9,19.6-107.5
	c-0.2-0.7-0.3-1.4-0.5-2.1c-6.9-27.2-21.9-54.7-44.5-71.9c1.4-3.6,3-7,4.9-10.4c0.6-1,1.1-2,1.7-3.1c0.6-1.1,1.2-2.2,1.9-3.3
	c0.6-1.1,1.3-2.2,1.9-3.4c23.6-41.8,49-77.4,97.5-91.3c7.3-2,14.5-3.7,22.1-4.6c1.5-0.2,1.5-0.2,3.1-0.4C545-2.1,572.6,4.3,598,18z"
	/>
<path class="st2" d="M1002,881c-1.3,4.1-2.8,7.7-4.9,11.4c-0.9,1.5-0.9,1.5-1.8,3.1c-0.6,1.1-1.3,2.2-1.9,3.3
	c-0.7,1.2-1.3,2.3-2,3.5c-1.4,2.4-2.8,4.8-4.2,7.2c-3.2,5.5-6.4,11-9.6,16.6c-1.2,2.2-2.5,4.3-3.8,6.5c-0.6,1.1-1.2,2.1-1.9,3.3
	c-80.6,139.8-80.6,139.8-82.5,143c-1.2,2.2-2.5,4.3-3.7,6.5c-3.2,5.5-6.4,11.1-9.6,16.6c-22.2,38.2-39.4,75.8-28,121.2
	c0.3,1.4,0.6,2.8,0.9,4.2c7.9,34,29.9,62,58.1,81.8c-13.3,35.3-41.7,67.5-76,83.1c-1,0.4-1,0.4-2,0.9c-1.8,0.8-1.8,0.8-3.6,1.7
	c-33.7,14.6-72.7,13.7-106.7,0.5c-34.5-14.3-61.4-42.2-76-76.4c-13.7-36.2-12.9-75.7,2.9-111c4.6-9.5,10-18.6,15.3-27.8
	c1.2-2,2.3-4,3.5-6c2.3-4,4.6-7.9,6.9-11.9c3.7-6.3,7.4-12.6,11-19c0.6-1.1,1.2-2.2,1.9-3.3c1.3-2.2,2.5-4.4,3.8-6.6
	c3.1-5.4,6.3-10.9,9.4-16.3c1.3-2.2,2.5-4.3,3.8-6.5c22.5-39,45-78,67.5-117c0.6-1.1,1.2-2.1,1.9-3.3c1.2-2.2,2.5-4.3,3.7-6.5
	c3.1-5.4,6.3-10.9,9.4-16.3c3.1-5.4,6.2-10.8,9.4-16.2c1.9-3.2,3.7-6.5,5.6-9.7c21.6-37.6,49-65.9,91.8-77.6
	c6.4-1.7,12.8-3.2,19.5-3.9c1.5-0.2,1.5-0.2,3.1-0.4C945.2,856.6,974.5,865.1,1002,881z"/>
</svg>
