<?xml version="1.0" encoding="utf-8"?>
<!-- Generator: Adobe Illustrator 22.0.1, SVG Export Plug-In . SVG Version: 6.00 Build 0)  -->
<svg width="625" version="1.1" id="Layer_1" xmlns="http://www.w3.org/2000/svg" xmlns:xlink="http://www.w3.org/1999/xlink" x="0px" y="0px"
	 viewBox="0 0 625 1063" style="enable-background:new 0 0 625 1063;" xml:space="preserve">
<style type="text/css">
	.st0{opacity:0.17;fill:#227CAD;}
	.st1{fill:url(#SVGID_1_);}
	.st2{fill:#EDF5FB;}
	.st3{fill:#FEFEFE;}
</style>
<path class="st0" d="M0,0c27.9,0,27.9,0,36.4,1.2c1,0.1,2,0.3,3.1,0.4C118.5,12.4,207.5,52,258,116.3c2,2.8,3.9,5.6,5.8,8.4
	c6.6,10.1,14.4,19.3,22,28.6c1.4,1.8,2.9,3.5,4.3,5.3c4.7,5.8,9.5,11.5,14.4,17.2c3.1,3.6,6.1,7.3,9.1,11c3.5,4.4,7.3,8.6,11.1,12.7
	c3.1,3.5,6,7.2,9,10.8c2.9,3.5,6,6.8,9,10.2c2.3,2.6,4.4,5.2,6.6,7.8c3.9,4.8,8,9.3,12.2,13.9c3.1,3.3,6.1,6.8,8.9,10.3
	c4.3,5.4,9,10.4,13.7,15.5c4.3,4.6,8.4,9.4,12.5,14.2c5.8,6.8,11.7,13.6,17.8,20.2c2.6,2.9,5.2,5.8,7.7,8.7c2.1,2.4,4.1,4.7,6.2,7
	c2.7,3,5.3,5.9,7.9,8.9c2.8,3.2,5.7,6.4,8.6,9.6c3.5,3.8,6.9,7.6,10.2,11.5c2.1,2.4,4.2,4.7,6.3,7c2.7,3,5.4,6,8,9
	c4.1,4.7,8.3,9.4,12.5,14c2.2,2.5,4.5,5,6.7,7.5c1.5,1.7,3.1,3.4,4.6,5.1c3.4,3.7,6.7,7.5,10.1,11.3c3.5,4,7,7.8,10.6,11.7
	c3.1,3.4,6.2,6.8,9.2,10.3c2.4,2.7,4.9,5.4,7.4,8.1c3.6,3.9,7.1,7.8,10.5,11.8c1.4,1.6,2.9,3.2,4.5,4.7c7.7,7.9,12.3,16,16.9,26
	c4.5,9.6,9.4,15.7,17.6,22.5c14.7,14.8,25.6,33.7,33,53c0.4,1.1,0.9,2.3,1.3,3.4c6.1,17,8,33.9,8,51.9c0,0.8,0,1.5,0,2.3
	c0,8.1-0.4,16-1.5,24.1c-1.1,8.1-0.4,15.6,0.9,23.7c0.4,2.5,0.8,5,1.1,7.6c0.2,1.1,0.4,2.2,0.5,3.3c1.3,9.4,1.7,18.8,1.7,28.3
	c0,1.2,0,2.3,0,3.5c0,2.5,0,4.9,0,7.4c0,3.7,0,7.3,0.1,11c0.3,73-24,145.3-69.3,202.7c-0.7,0.9-1.4,1.8-2.2,2.7
	c-8.5,10.6-17.8,20.3-27.4,30c-1.4,1.4-2.8,2.8-4.2,4.3c-6.1,6.1-12.5,11.6-19.2,17c-1.2,1-2.4,2-3.6,3
	c-57.9,47.9-132.8,73.9-206.4,84c-1.1,0.2-2.3,0.3-3.5,0.5c-39.5,5.5-83,5.1-122.5-0.5c-1.9-0.2-1.9-0.2-3.8-0.5
	c-56-7.5-112.6-23.2-163.2-48.5C0,677.4,0,343.7,0,0z"/>
<linearGradient id="SVGID_1_" gradientUnits="userSpaceOnUse" x1="47.8633" y1="468.8159" x2="579.8656" y2="468.8159">
	<stop  offset="0" style="stop-color:#7164F2"/>
	<stop  offset="1" style="stop-color:#34C0E8"/>
</linearGradient>
<path class="st1" d="M274,140c3.3,3.2,6.4,6.5,9.3,10.1c0.8,1,1.6,1.9,2.4,2.9c0.8,1,1.6,1.9,2.4,2.9c5.4,6.7,10.9,13.3,16.6,19.8
	c3.1,3.6,6.1,7.3,9.1,11c3.5,4.4,7.3,8.6,11.1,12.7c3.1,3.5,6,7.2,9,10.8c2.9,3.5,6,6.8,9,10.2c2.3,2.6,4.4,5.2,6.6,7.8
	c3.9,4.8,8,9.3,12.2,13.9c3.1,3.3,6.1,6.8,8.9,10.3c4.3,5.4,9,10.4,13.7,15.5c4.3,4.6,8.4,9.4,12.5,14.2
	c5.8,6.8,11.7,13.6,17.8,20.2c2.6,2.9,5.2,5.8,7.7,8.7c2.1,2.4,4.1,4.7,6.2,7c2.7,3,5.3,5.9,7.9,8.9c2.8,3.2,5.7,6.4,8.6,9.6
	c3.5,3.8,6.9,7.6,10.2,11.5c2.1,2.4,4.2,4.7,6.3,7c2.7,3,5.4,6,8,9c4.1,4.7,8.3,9.4,12.5,14c2.2,2.5,4.5,5,6.7,7.5
	c1.5,1.7,3.1,3.4,4.6,5.1c3.4,3.7,6.7,7.5,10.1,11.3c3.5,4,7,7.8,10.6,11.7c3.1,3.4,6.2,6.8,9.2,10.3c2.4,2.7,4.9,5.4,7.4,8.1
	c3.6,3.9,7.2,7.9,10.7,11.9c1.9,2.1,1.9,2.1,4.2,4.3c12.2,11.8,19.7,28.8,25.7,44.5c0.9,2.3,2,4.5,3.1,6.8c0.4,0.7,0.7,1.4,1.1,2.1
	c0.7,1.4,1.5,2.9,2.2,4.3c0.3,0.7,0.7,1.4,1,2.1c0.3,0.6,0.6,1.2,1,1.9c1,3.8,0.1,7.1-1.7,10.6c-0.5,0.8-1,1.6-1.6,2.5
	c-0.9,1.4-0.9,1.4-1.8,2.8c-0.6,1-1.3,2-2,3c-1.4,2.2-2.7,4.3-4.1,6.5c-0.4,0.6-0.7,1.1-1.1,1.7c-3.9,6.1-7.7,12.3-11.4,18.4
	c-5,8.2-10.1,16.3-15.2,24.4c-4.9,7.7-9.7,15.5-14.4,23.3c-5.2,8.5-10.4,16.9-15.7,25.3c-4,6.4-8,12.8-11.9,19.2
	c-6.5,10.6-13.1,21.1-19.7,31.6c-1.7,2.7-3.4,5.5-5.1,8.2c-14.3,23.1-31.2,43.8-52.7,60.7c-1.4,1.2-1.4,1.2-2.9,2.4
	C386.1,776,346.5,791,306,796c-0.8,0.1-1.5,0.2-2.3,0.3c-41.1,4.6-83.8-2.6-120.7-21.3c-1.3-0.6-2.6-1.2-3.8-1.8
	c-35.6-17.1-67.4-42.8-90.2-75.2c-0.7-1-1.5-2.1-2.3-3.2c-5.5-8-10.2-16.3-14.7-24.8c-0.6-1-1.1-2.1-1.7-3.1
	C63.6,653.9,59.1,640,55,626c-0.4-1.5-0.4-1.5-0.9-2.9c-5-18.3-6.3-37.8-6.3-56.6c0-1.2,0-2.5,0-3.7c0-44.4,15.9-84.6,39.1-121.7
	c1.2-2,2.5-3.9,3.7-5.9c1.9-3,3.7-5.9,5.6-8.9c4.6-7.4,9.2-14.8,13.7-22.2c5.7-9.3,11.5-18.7,17.4-28c4.6-7.3,9.1-14.7,13.6-22
	c5.8-9.5,11.7-18.9,17.6-28.3c4-6.4,8-12.8,11.9-19.2c4.6-7.4,9.2-14.8,13.8-22.2c6-9.5,11.8-19,17.7-28.6
	c5.1-8.3,10.2-16.5,15.3-24.7c4.6-7.3,9.1-14.7,13.6-22c5.7-9.3,11.5-18.6,17.3-27.9c5.5-8.8,11-17.7,16.4-26.5
	C267.7,149.6,270.8,144.8,274,140z"/>
<path class="st2" d="M0,374c4.6,1.5,7.8,2.9,11.9,5.3c1.7,1,1.7,1,3.4,2c1.2,0.7,2.4,1.4,3.5,2.1c0.6,0.4,1.2,0.7,1.8,1.1
	c10.1,6,19.9,12.4,29.4,19.5c0.6,0.5,1.2,0.9,1.9,1.4c8.3,6.2,16.1,12.9,23.6,20.1c1.6,1.5,3.2,3,4.9,4.5c1,1,2.1,1.9,3.1,2.9
	c0.9,0.9,1.8,1.7,2.8,2.6c1.9,2.5,1.9,2.5,2,4.8c-1.6,4-3.9,7.4-6.2,11c-15.8,25.3-26.6,53.1-30.4,82.8C51,538,51,538,50,541
	c-6.3,44.7,3.4,92.9,25,132.3c0.9,1.6,1.7,3.1,2.5,4.7c8.8,16.7,20.4,31.5,33.4,45c0.5,0.6,1.1,1.1,1.6,1.7
	c11.1,11.6,23.1,21.3,36.4,30.3c-2.2,7-4.9,13.5-8.1,20.1c-0.5,1-1,2-1.5,3.1c-4,8.2-8.4,16.1-13.4,23.8c-0.7,1.1-0.7,1.1-1.4,2.2
	c-2.7,4.2-5.4,8.3-8.1,12.5c-3.5,5.3-6.9,10.6-10.3,16c-5,7.9-10,15.8-15.1,23.6c-0.7,1-1.3,2.1-2,3.2c-1.4,2.1-2.7,4.2-4.1,6.4
	c-3.3,5.2-6.7,10.4-10,15.7c-1.3,2.1-2.7,4.2-4,6.3c-0.7,1-1.3,2.1-2,3.1c-22,34.4-22,34.4-24,37.5c-1.3,2.1-2.7,4.2-4,6.2
	c-3.4,5.3-6.7,10.5-10.1,15.8c-7,10.9-13.9,21.8-20.6,32.8c-2.9,4.7-5.9,9.4-9.2,13.8c-0.3,0-0.7,0-1,0C0,791.4,0,585.8,0,374z"/>
<path class="st3" d="M568,487c29,19.5,45.5,56,52.3,89.1c1.2,6.4,1.9,12.5,1.9,19c0,1.1,0,1.1,0,2.3c0,1.6,0,3.2,0,4.8
	c0,2.4,0,4.8,0,7.2c0,9.1-0.5,17.7-2.2,26.6c-0.7,0-1.3,0-2,0c-0.2-0.9-0.4-1.9-0.6-2.9c-10.5-49.1-25-97.9-48.6-142.5
	C568,489,568,489,568,487z"/>
</svg>
