<svg width="100" xmlns="http://www.w3.org/2000/svg" version="1.1" viewBox="578.75 704.66 2190.47 1346.52">
<path d="M0 0 C1.76923828 0.62648438 1.76923828 0.62648438 3.57421875 1.265625 C38.05605306 14.23825023 68.25438134 37.32038794 90 67 C90.41991211 67.56493164 90.83982422 68.12986328 91.27246094 68.71191406 C114.19181156 99.89726 124.65620226 139.53907119 119.27734375 177.94921875 C118.42836856 183.02947176 117.31304935 188.0206299 116 193 C115.82339844 193.67240723 115.64679688 194.34481445 115.46484375 195.03759766 C106.00019112 229.48718051 82.10266133 256.74688942 58.40234375 282.3828125 C56.46006928 284.49878632 54.56059299 286.63578845 52.6875 288.8125 C46.98538727 295.38144221 40.95148064 301.65815834 35 308 C33.76159886 309.32150224 32.52331693 310.64311621 31.28515625 311.96484375 C26.24010071 317.3492855 21.19212722 322.73098082 16.140625 328.109375 C1.82628363 343.23278812 1.82628363 343.23278812 -12.0546875 358.75 C-13.63149243 360.57377438 -15.22184504 362.38281244 -16.8203125 364.1875 C-37.70593657 387.86817829 -55.6049811 413.43933358 -71 441 C-71.4232959 441.7434668 -71.8465918 442.48693359 -72.28271484 443.25292969 C-92.1118213 477.87443518 -92.1118213 477.87443518 -101 516 C-78.02742762 524.62521576 -78.02742762 524.62521576 -54 529 C-52.81954102 529.10248047 -51.63908203 529.20496094 -50.42285156 529.31054688 C-32.58286673 530.80575368 -14.86936045 531.52672617 3 530 C3.98274902 529.91621094 4.96549805 529.83242187 5.97802734 529.74609375 C51.48229983 525.58603794 94.5214112 510.33955461 137.32958984 495.26391602 C172.82491693 482.76770155 208.60849588 471.22486494 246 466 C246.7748877 465.88285645 247.54977539 465.76571289 248.34814453 465.64501953 C274.4303424 461.78120285 303.1108401 462.28137846 329 467 C329.91990723 467.16097168 330.83981445 467.32194336 331.78759766 467.48779297 C387.84674171 477.57204542 441.41375921 508.24760769 476.71484375 553.36425781 C477.62485298 554.52251424 478.54228129 555.67495944 479.46484375 556.82324219 C488.40646521 567.95567239 495.96516784 579.58235618 503 592 C503.38526855 592.67272949 503.77053711 593.34545898 504.16748047 594.03857422 C525.35555477 631.26397774 535.65971429 674.4040447 537 717 C537.061875 718.57974609 537.061875 718.57974609 537.125 720.19140625 C538.27902044 775.51226093 517.57932709 832.09138373 480.07421875 872.73828125 C478.19878414 874.78324667 476.40967467 876.87619475 474.625 879 C458.34986858 897.58418896 436.25062245 911.78315054 415 924 C414.34402832 924.37946777 413.68805664 924.75893555 413.01220703 925.14990234 C335.76433449 969.627071 246.68195541 994.69463781 149.0625 995.1875 C147.60006866 995.18659363 147.60006866 995.18659363 146.10809326 995.18566895 C54.69607404 995.03302705 -36.92259169 971.17107072 -190 873 C-190.50450684 872.58041016 -191.00901367 872.16082031 -191.52880859 871.72851562 C-198.95449981 865.54983542 -206.20296961 859.20847836 -213.26611328 852.61621094 C-214.51984986 851.44756321 -215.77639352 850.28192449 -217.03466797 849.11816406 C-232.39778352 834.90771227 -232.39778352 834.90771227 -238.83984375 827.47265625 C-240.4688126 825.60803187 -242.11734296 823.79486866 -243.81640625 821.99609375 C-250.05018294 815.3911272 -255.81659847 808.58687347 -261.35546875 801.390625 C-263.78840332 798.23909092 -266.34724326 795.21153179 -268.9375 792.1875 C-275.11979514 784.80174395 -280.56862672 776.94733155 -286 769 C-286.61681641 768.10200684 -287.23363281 767.20401367 -287.86914062 766.27880859 C-342.52788951 686.45687197 -374.0007989 595.1473298 -381.203125 481.01171875 C-381.21018463 479.72222824 -381.21724426 478.43273773 -381.22451782 477.10417175 C-381.24403618 472.96527534 -381.24920998 468.82643813 -381.25 464.6875 C-381.25029457 463.98148903 -381.25058914 463.27547806 -381.25089264 462.54807281 C-381.2523297 441.22594521 -381.01807621 420.15343258 -378 399 C-377.85081116 397.93241455 -377.85081116 397.93241455 -377.6986084 396.84326172 C-370.21166488 343.3988911 -356.04010847 292.00774843 -333.36962891 242.96533203 C-332.13122634 240.2841132 -330.91253548 237.59497562 -329.69921875 234.90234375 C-324.31807733 223.0999264 -318.03488129 211.86203427 -311.52978516 200.64648438 C-310.1848215 198.31973588 -308.85958887 195.98347461 -307.54296875 193.640625 C-293.51404277 168.90894287 -276.34287517 145.69587386 -258 124 C-257.57364258 123.49017578 -257.14728516 122.98035156 -256.70800781 122.45507812 C-245.91595522 109.55929677 -234.4213443 97.35488584 -222.5625 85.4375 C-221.92473633 84.79506348 -221.28697266 84.15262695 -220.62988281 83.49072266 C-216.82868492 79.7023867 -212.90716081 76.10853277 -208.84594727 72.60083008 C-206.41369994 70.49155277 -204.05219807 68.30949557 -201.6875 66.125 C-196.28496465 61.20417219 -190.69693831 56.57391261 -185 52 C-183.85623062 51.06446215 -182.71302856 50.12823039 -181.5703125 49.19140625 C-172.35180897 41.67270725 -162.81872812 34.712605 -153 28 C-152.25282715 27.48904785 -151.5056543 26.9780957 -150.73583984 26.45166016 C-104.13299848 -5.28365078 -55.55216629 -20.1147354 0 0 Z " fill="#564EDF" transform="translate(960,1056)"/>
<path d="M0 0 C1.37986084 0.24145752 1.37986084 0.24145752 2.78759766 0.48779297 C58.84674171 10.57204542 112.41375921 41.24760769 147.71484375 86.36425781 C148.62485298 87.52251424 149.54228129 88.67495944 150.46484375 89.82324219 C159.40646521 100.95567239 166.96516784 112.58235618 174 125 C174.38526855 125.67272949 174.77053711 126.34545898 175.16748047 127.03857422 C196.35555477 164.26397774 206.65971429 207.4040447 208 250 C208.061875 251.57974609 208.061875 251.57974609 208.125 253.19140625 C209.27902044 308.51226093 188.57932709 365.09138373 151.07421875 405.73828125 C149.19878414 407.78324667 147.40967467 409.87619475 145.625 412 C129.34986858 430.58418896 107.25062245 444.78315054 86 457 C85.34402832 457.37946777 84.68805664 457.75893555 84.01220703 458.14990234 C36.95577499 485.24368234 -12.82329647 503.52760591 -65.5 516 C-66.77713867 516.30333252 -68.05427734 516.60666504 -69.37011719 516.91918945 C-70.55766602 517.19335693 -71.74521484 517.46752441 -72.96875 517.75 C-74.01482422 517.99234375 -75.06089844 518.2346875 -76.13867188 518.484375 C-78.83425965 518.9701328 -81.26917886 519.1004902 -84 519 C-84 518.34 -84 517.68 -84 517 C-84.54374268 516.94577881 -85.08748535 516.89155762 -85.64770508 516.83569336 C-174.34876452 507.64146105 -265.69991009 469.89061149 -331.15234375 403.84765625 C-332.74809579 402.25190421 -334.35802095 400.83539726 -336.125 399.4375 C-339.17620324 396.85061029 -341.6367986 394.06586795 -344.22265625 391.02734375 C-345.86880511 389.14964868 -347.57735116 387.41872302 -349.375 385.6875 C-353.12801008 381.99313071 -356.39856004 377.96479652 -359.6953125 373.86328125 C-361.15130226 372.05439905 -362.62333394 370.2582096 -364.1171875 368.48046875 C-396.7708862 329.54721261 -418.02130183 284.20228068 -433 236 C-433.46043701 234.51862549 -433.46043701 234.51862549 -433.93017578 233.00732422 C-447.16955323 189.33181542 -449.65139419 137.99870756 -442 93 C-441.81775879 91.91106445 -441.63551758 90.82212891 -441.44775391 89.70019531 C-439.08369362 75.90293118 -436.06691528 62.3948614 -432 49 C-425.84724921 50.48174044 -419.91928832 52.36644368 -413.99047852 54.56347656 C-386.45935822 64.66287194 -355.00963013 65.47853087 -326 63 C-324.52587646 62.87431641 -324.52587646 62.87431641 -323.02197266 62.74609375 C-277.51770017 58.58603794 -234.4785888 43.33955461 -191.67041016 28.26391602 C-156.17508307 15.76770155 -120.39150412 4.22486494 -83 -1 C-82.2251123 -1.11714355 -81.45022461 -1.23428711 -80.65185547 -1.35498047 C-54.5696576 -5.21879715 -25.8891599 -4.71862154 0 0 Z " fill="#35AFEC" transform="translate(1289,1523)"/>
<path d="M0 0 C2.04253917 1.71534208 4.07967247 3.43692069 6.1159668 5.15966797 C7.33206278 6.17925869 8.5482067 7.19879221 9.7644043 8.21826172 C22.35467982 18.82956367 34.21489657 30.1678502 45.89630127 41.76477051 C46.94177269 42.80219892 47.98871979 43.8381428 49.03729248 44.87243652 C55.10586569 50.866964 60.82536652 56.99983078 66.12866211 63.69873047 C68.16100607 66.21544142 70.29538019 68.59733926 72.4909668 70.97216797 C78.05444943 77.0948915 83.08867551 83.5962599 88.1159668 90.15966797 C88.61032227 90.80242676 89.10467773 91.44518555 89.61401367 92.10742188 C96.8520702 101.54158114 103.66853974 111.16991158 110.1159668 121.15966797 C110.80360107 122.21613525 110.80360107 122.21613525 111.50512695 123.29394531 C119.38909269 135.43071694 126.66985124 147.86188828 133.66430664 160.53076172 C134.55584252 162.14530231 135.4511464 163.75777765 136.3527832 165.36669922 C170.02264309 225.49666138 188.50586883 294.84076907 195.1159668 363.15966797 C195.20185059 363.99313751 195.28773438 364.82660706 195.3762207 365.68533325 C196.20495354 374.42480746 196.29750813 383.13268904 196.3190918 391.90185547 C196.32191917 392.69188084 196.32474655 393.4819062 196.32765961 394.29587173 C196.34256852 398.4931495 196.35184514 402.69039375 196.35620117 406.88769531 C196.36054695 410.28689538 196.37429764 413.68583606 196.3972168 417.08496094 C196.58050206 444.86227334 195.12193263 471.92611107 190.3034668 499.34716797 C190.1755777 500.09139008 190.0476886 500.83561218 189.91592407 501.60238647 C185.61465601 526.60826458 179.58173155 550.92512249 172.1159668 575.15966797 C171.77855469 576.29291504 171.44114258 577.42616211 171.09350586 578.59375 C170.76318359 579.65835449 170.43286133 580.72295898 170.0925293 581.81982422 C169.80716309 582.75576416 169.52179688 583.6917041 169.2277832 584.65600586 C167.94328459 587.54852524 166.54172395 589.14313986 164.1159668 591.15966797 C159.91015512 592.45376387 157.07163017 592.43818329 153.1159668 590.65966797 C146.52436458 586.94789196 142.15310277 582.05825604 139.1159668 575.15966797 C138.40266404 572.32890659 137.96642069 569.47535196 137.5378418 566.58935547 C137.26556881 564.88503508 136.99293044 563.18077303 136.7199707 561.4765625 C136.58117493 560.58857971 136.44237915 559.70059692 136.29937744 558.78570557 C126.83601571 498.71781328 106.5347248 443.35051816 66.1159668 397.15966797 C65.66995117 396.64903809 65.22393555 396.1384082 64.7644043 395.61230469 C45.72464475 373.96292897 22.96960748 357.52713338 -1.8840332 343.15966797 C-2.95911133 342.52673828 -4.03418945 341.89380859 -5.1418457 341.24169922 C-56.90107407 312.11962757 -118.45230651 301.47192897 -176.91687012 296.84103394 C-215.33719909 293.78438045 -246.89067216 282.14425925 -274.8840332 255.15966797 C-275.51567383 254.57958984 -276.14731445 253.99951172 -276.7980957 253.40185547 C-320.12700258 212.53715183 -336.78030718 144.29753395 -338.7590332 86.97216797 C-338.80330211 85.368071 -338.84496911 83.76390012 -338.8840332 82.15966797 C-338.9169043 80.95697266 -338.9169043 80.95697266 -338.95043945 79.72998047 C-340.23127851 26.276297 -327.41247093 -31.09247057 -289.8840332 -70.84033203 C-289.22661133 -71.55060547 -288.56918945 -72.26087891 -287.8918457 -72.99267578 C-283.03905213 -78.06959436 -277.74520211 -81.99601123 -271.8840332 -85.84033203 C-271.26141602 -86.28119141 -270.63879883 -86.72205078 -269.99731445 -87.17626953 C-201.86635695 -133.58217117 -88.05510188 -62.52355924 0 0 Z " fill="#35A4EF" transform="translate(1441.884033203125,1107.84033203125)"/>
<path d="M0 0 C0.33 0.66 0.66 1.32 1 2 C-0.01604315 4.20456277 -1.09724223 6.30491149 -2.25 8.4375 C-20.38535975 43.47310734 -31.32553353 81.71434495 -36.61450195 120.66943359 C-37 123 -37 123 -38 126 C-38.09746994 127.6855414 -38.13817389 129.37464592 -38.14526367 131.06298828 C-38.15164352 132.09481232 -38.15802338 133.12663635 -38.16459656 134.18972778 C-38.16570938 135.30532074 -38.1668222 136.4209137 -38.16796875 137.5703125 C-38.17129715 138.72111298 -38.17462555 139.87191345 -38.17805481 141.05758667 C-38.18312252 143.4970459 -38.18546318 145.93651207 -38.18530273 148.37597656 C-38.18747908 152.08931102 -38.20560867 155.80234352 -38.22460938 159.515625 C-38.22754543 161.88801982 -38.22952881 164.26041605 -38.23046875 166.6328125 C-38.24124702 168.28798386 -38.24124702 168.28798386 -38.25224304 169.97659302 C-38.23590574 175.55614227 -37.90043476 180.65513189 -36.47746277 186.06167603 C-35.65290555 189.40907633 -35.44039401 192.82422415 -35.125 196.25 C-34.44387279 202.90974703 -32.97472598 208.87877183 -30.8203125 215.23828125 C-29.79354999 218.69504835 -29.66817952 221.43292981 -30 225 C-29.34 225 -28.68 225 -28 225 C-27.49363393 226.74816858 -26.99515381 228.49862263 -26.5 230.25 C-26.2215625 231.22453125 -25.943125 232.1990625 -25.65625 233.203125 C-25 236 -25 236 -25 240 C-24.34 240 -23.68 240 -23 240 C-22.70996094 240.88751953 -22.70996094 240.88751953 -22.4140625 241.79296875 C-21.29262413 245.19614558 -20.18100562 248.56177587 -18.8125 251.875 C-18 254 -18 254 -18 257 C-17.34 257 -16.68 257 -16 257 C-15.67 258.98 -15.34 260.96 -15 263 C-14.34 263 -13.68 263 -13 263 C-11.23537317 266.08809695 -11 267.23312136 -11 271 C-10.34 271 -9.68 271 -9 271 C-8.67 272.65 -8.34 274.3 -8 276 C-7.34 276 -6.68 276 -6 276 C-5.15885829 277.43294498 -4.32734313 278.87154405 -3.5 280.3125 C-3.0359375 281.11300781 -2.571875 281.91351562 -2.09375 282.73828125 C-1 285 -1 285 -1 288 C-0.34 288 0.32 288 1 288 C1 288.99 1 289.98 1 291 C1.66 291 2.32 291 3 291 C3 291.99 3 292.98 3 294 C3.66 294 4.32 294 5 294 C5 294.99 5 295.98 5 297 C5.99 297.33 6.98 297.66 8 298 C8 298.99 8 299.98 8 301 C8.99 301.33 9.98 301.66 11 302 C11 302.99 11 303.98 11 305 C11.99 305.33 12.98 305.66 14 306 C14.144375 306.639375 14.28875 307.27875 14.4375 307.9375 C14.623125 308.618125 14.80875 309.29875 15 310 C15.66 310.33 16.32 310.66 17 311 C17.66 311.33 18.32 311.66 19 312 C19.33333333 313.33333333 19.66666667 314.66666667 20 316 C20.60714844 316.30035156 21.21429687 316.60070313 21.83984375 316.91015625 C24.2448895 318.12355184 25.38220916 319.35393936 27.0625 321.4375 C28.5479197 323.26176875 29.97573555 324.97697411 31.68359375 326.59765625 C33 328 33 328 33 330 C33.66 330 34.32 330 35 330 C36.15950258 331.12539956 37.31198689 332.25903276 38.42578125 333.4296875 C40.94266081 335.9403217 43.69660986 338.17406847 46.42578125 340.44921875 C46.94527344 340.96097656 47.46476563 341.47273438 48 342 C48 342.66 48 343.32 48 344 C48.72574219 344.24492188 49.45148438 344.48984375 50.19921875 344.7421875 C53.33616773 346.15097072 55.2657199 347.81685828 57.8125 350.125 C82.18585646 371.22977696 113.11833422 387.78208005 143.359375 398.74609375 C144.23078125 399.15988281 145.1021875 399.57367187 146 400 C147.23935458 403.71806375 146.61549913 405.40429645 145.671875 409.1875 C145.36789795 410.43426514 145.0639209 411.68103027 144.75073242 412.96557617 C144.50521133 413.9534462 144.50521133 413.9534462 144.25473022 414.96127319 C137.8844087 440.69253441 134.5945534 466.10282218 134.75 492.625 C134.75343414 493.58866486 134.75686829 494.55232971 134.76040649 495.54519653 C135.06369954 568.32273431 157.18782917 638.33079408 199 698 C199.55719727 698.80195801 200.11439453 699.60391602 200.68847656 700.43017578 C210.3183081 714.24725938 220.97052309 726.84418152 232.40625 739.18359375 C234.87214573 741.86117029 237.28157631 744.58111745 239.6875 747.3125 C242.95611836 750.95983529 246.37144344 754.20955154 250.11328125 757.36328125 C251.9494605 758.95615725 253.62669033 760.62512156 255.3125 762.375 C259.38945036 766.50692047 263.86530395 770.09566145 268.39746094 773.71386719 C270.08930191 775.07167009 271.76776824 776.44489406 273.4453125 777.8203125 C310.15677077 807.77876081 352.39189803 830.2674602 397 846 C397.78213867 846.28037109 398.56427734 846.56074219 399.37011719 846.84960938 C419.01762073 853.86348239 439.17266324 858.8232041 459.625 862.8125 C460.37328064 862.95952362 461.12156128 863.10654724 461.89251709 863.25802612 C471.20429522 865.07458696 480.48530065 866.5272254 489.91552734 867.5769043 C493 868 493 868 495 869 C494.67 869.99 494.34 870.98 494 872 C462.24420938 876.97383277 431.26036553 880.22490314 399.0625 880.1875 C397.60006866 880.18659363 397.60006866 880.18659363 396.10809326 880.18566895 C304.69607404 880.03302705 213.07740831 856.17107072 60 758 C59.49549316 757.58041016 58.99098633 757.16082031 58.47119141 756.72851562 C51.04550019 750.54983542 43.79703039 744.20847836 36.73388672 737.61621094 C35.48015014 736.44756321 34.22360648 735.28192449 32.96533203 734.11816406 C17.60221648 719.90771227 17.60221648 719.90771227 11.16015625 712.47265625 C9.5311874 710.60803187 7.88265704 708.79486866 6.18359375 706.99609375 C-0.05018294 700.3911272 -5.81659847 693.58687347 -11.35546875 686.390625 C-13.78840332 683.23909092 -16.34724326 680.21153179 -18.9375 677.1875 C-25.11979514 669.80174395 -30.56862672 661.94733155 -36 654 C-36.61681641 653.10200684 -37.23363281 652.20401367 -37.86914062 651.27880859 C-92.52788951 571.45687197 -124.0007989 480.1473298 -131.203125 366.01171875 C-131.21018463 364.72222824 -131.21724426 363.43273773 -131.22451782 362.10417175 C-131.24403618 357.96527534 -131.24920998 353.82643813 -131.25 349.6875 C-131.25029457 348.98148903 -131.25058914 348.27547806 -131.25089264 347.54807281 C-131.2523297 326.22594521 -131.01807621 305.15343258 -128 284 C-127.85081116 282.93241455 -127.85081116 282.93241455 -127.6986084 281.84326172 C-120.21166488 228.3988911 -106.04010847 177.00774843 -83.36962891 127.96533203 C-82.13122634 125.2841132 -80.91253548 122.59497562 -79.69921875 119.90234375 C-74.31807733 108.0999264 -68.03488129 96.86203427 -61.52978516 85.64648438 C-60.1848215 83.31973588 -58.85958887 80.98347461 -57.54296875 78.640625 C-41.57904732 50.49772718 -21.71540316 23.96386452 0 0 Z " fill="#646BF0" transform="translate(710,1171)"/>
<path d="M0 0 C2.04253917 1.71534208 4.07967247 3.43692069 6.1159668 5.15966797 C7.33206278 6.17925869 8.5482067 7.19879221 9.7644043 8.21826172 C22.35467982 18.82956367 34.21489657 30.1678502 45.89630127 41.76477051 C46.94177269 42.80219892 47.98871979 43.8381428 49.03729248 44.87243652 C55.10586569 50.866964 60.82536652 56.99983078 66.12866211 63.69873047 C68.16100607 66.21544142 70.29538019 68.59733926 72.4909668 70.97216797 C78.05444943 77.0948915 83.08867551 83.5962599 88.1159668 90.15966797 C88.61032227 90.80242676 89.10467773 91.44518555 89.61401367 92.10742188 C96.8520702 101.54158114 103.66853974 111.16991158 110.1159668 121.15966797 C110.80360107 122.21613525 110.80360107 122.21613525 111.50512695 123.29394531 C119.38909269 135.43071694 126.66985124 147.86188828 133.66430664 160.53076172 C134.55584252 162.14530231 135.4511464 163.75777765 136.3527832 165.36669922 C170.02264309 225.49666138 188.50586883 294.84076907 195.1159668 363.15966797 C195.20185059 363.99313751 195.28773438 364.82660706 195.3762207 365.68533325 C196.20495354 374.42480746 196.29750813 383.13268904 196.3190918 391.90185547 C196.32191917 392.69188084 196.32474655 393.4819062 196.32765961 394.29587173 C196.34256852 398.4931495 196.35184514 402.69039375 196.35620117 406.88769531 C196.36054695 410.28689538 196.37429764 413.68583606 196.3972168 417.08496094 C196.58050206 444.86227334 195.12193263 471.92611107 190.3034668 499.34716797 C190.1755777 500.09139008 190.0476886 500.83561218 189.91592407 501.60238647 C185.61465601 526.60826458 179.58173155 550.92512249 172.1159668 575.15966797 C171.77855469 576.29291504 171.44114258 577.42616211 171.09350586 578.59375 C170.76318359 579.65835449 170.43286133 580.72295898 170.0925293 581.81982422 C169.80716309 582.75576416 169.52179688 583.6917041 169.2277832 584.65600586 C167.94109775 587.55344972 166.55690391 589.15100982 164.1159668 591.15966797 C159.27486855 592.39194752 156.60916545 592.14808178 152.1159668 590.15966797 C152.29772461 589.34369141 152.47948242 588.52771484 152.66674805 587.68701172 C175.31975419 480.92745968 151.3930854 363.10142196 88.2565918 260.67529297 C83.20454363 252.92492654 77.75274613 245.49427241 72.1159668 238.15966797 C71.33608398 237.12326172 70.55620117 236.08685547 69.75268555 235.01904297 C57.02865541 218.16111 42.7584162 202.73431222 27.8659668 187.78466797 C27.02614258 186.9401709 26.18631836 186.09567383 25.32104492 185.22558594 C20.41377763 180.33092624 15.40422385 175.63940093 10.1159668 171.15966797 C9.48045898 170.61745605 8.84495117 170.07524414 8.19018555 169.51660156 C-2.44319828 160.50122508 -13.4408286 152.11866508 -24.8840332 144.15966797 C-25.52018555 143.71671387 -26.15633789 143.27375977 -26.81176758 142.81738281 C-63.62546818 117.35881144 -103.37373198 99.57341128 -145.8840332 86.15966797 C-146.94460938 85.82418945 -148.00518555 85.48871094 -149.09790039 85.14306641 C-185.69513299 73.7329626 -222.67654406 69.93611789 -260.8215332 69.97216797 C-261.90330841 69.97243988 -262.98508362 69.97271179 -264.09963989 69.97299194 C-284.2485787 69.99628164 -304.26481987 70.32736046 -324.11035156 74.1940918 C-328.80857364 75.09994863 -333.12394482 75.27628483 -337.8840332 75.15966797 C-337.8840332 77.46966797 -337.8840332 79.77966797 -337.8840332 82.15966797 C-338.2140332 82.15966797 -338.5440332 82.15966797 -338.8840332 82.15966797 C-339.95803493 27.68391394 -328.31024765 -30.14159953 -289.8840332 -70.84033203 C-289.22661133 -71.55060547 -288.56918945 -72.26087891 -287.8918457 -72.99267578 C-283.03905213 -78.06959436 -277.74520211 -81.99601123 -271.8840332 -85.84033203 C-271.26141602 -86.28119141 -270.63879883 -86.72205078 -269.99731445 -87.17626953 C-201.86635695 -133.58217117 -88.05510188 -62.52355924 0 0 Z " fill="#7661F2" transform="translate(1441.884033203125,1107.84033203125)"/>
<path d="M0 0 C0.83563477 0.19335938 1.67126953 0.38671875 2.53222656 0.5859375 C32.47921952 7.78655028 58.68949046 22.9686765 81 44 C81.71285156 44.64839844 82.42570312 45.29679687 83.16015625 45.96484375 C108.47392205 69.90036459 125.4126046 105.43055345 129 140 C129.10957031 140.97710938 129.21914062 141.95421875 129.33203125 142.9609375 C133.61435843 186.46938168 120.64682108 228.53717592 93.24609375 262.42578125 C65.21771736 296.53242424 25.04451875 318.60849431 -19 323 C-21.80904849 323.14812036 -24.61316198 323.18617987 -27.42578125 323.203125 C-28.20691284 323.21013931 -28.98804443 323.21715363 -29.79284668 323.22438049 C-32.29945703 323.2417901 -34.80583141 323.24823236 -37.3125 323.25 C-38.16725922 323.25067474 -39.02201843 323.25134949 -39.90267944 323.25204468 C-52.14527736 323.23665748 -64.07019346 323.03704863 -76 320 C-76.7233252 319.81775879 -77.44665039 319.63551758 -78.19189453 319.44775391 C-104.3741273 312.64503356 -127.56233012 300.70636838 -148 283 C-148.82886719 282.29359375 -149.65773438 281.5871875 -150.51171875 280.859375 C-161.65155481 271.1360644 -170.86406611 260.3036059 -179 248 C-179.38929687 247.41379883 -179.77859375 246.82759766 -180.1796875 246.22363281 C-192.79091381 226.95765705 -201.40802878 203.92379742 -204 181 C-204.10957031 180.09121094 -204.21914062 179.18242188 -204.33203125 178.24609375 C-207.68100559 145.42614524 -201.57638786 113.04408548 -186 84 C-185.68160156 83.39269043 -185.36320312 82.78538086 -185.03515625 82.15966797 C-165.2780485 44.62321273 -128.95962415 16.95776381 -89.10546875 3.6484375 C-61.30431341 -4.67602273 -28.41944636 -6.64444489 0 0 Z M-96 86 C-96.67675781 86.54269531 -97.35351562 87.08539062 -98.05078125 87.64453125 C-116.40791249 102.86490997 -127.02427444 126.06495139 -129.5390625 149.4921875 C-131.71203832 174.99009587 -125.29903336 201.30502183 -108.59765625 221.1640625 C-108.07042969 221.76992187 -107.54320312 222.37578125 -107 223 C-106.54496094 223.58523438 -106.08992188 224.17046875 -105.62109375 224.7734375 C-98.78025796 233.38782331 -89.58508335 239.78009792 -80 245 C-79.21109375 245.44085937 -78.4221875 245.88171875 -77.609375 246.3359375 C-57.6144286 256.97840897 -33.4451302 258.73903687 -11.82421875 252.3515625 C0.45798109 248.18387311 11.01757261 242.26669769 21 234 C21.9590625 233.28457031 21.9590625 233.28457031 22.9375 232.5546875 C38.83548913 220.26318664 50.84471631 196.58257516 53.69140625 176.94921875 C56.66536381 148.52721927 51.98440242 122.48205767 33.91430664 99.640625 C18.09498571 80.33609592 -3.19328308 67.10002378 -28.375 64.25 C-29.91545297 64.14663082 -31.45732499 64.06192238 -33 64 C-33.68707031 63.96003906 -34.37414063 63.92007812 -35.08203125 63.87890625 C-57.83484628 63.161285 -78.72407998 71.57638948 -96 86 Z " fill="#7063F2" transform="translate(1913,1410)"/>
<path d="M0 0 C0.76346741 0.00215515 1.52693481 0.0043103 2.3135376 0.00653076 C27.81441536 0.12163635 51.75538121 5.00024595 74.75 16.3125 C75.38099609 16.61913574 76.01199219 16.92577148 76.66210938 17.24169922 C86.38238035 22.02008931 95.15658611 27.73534443 103.75 34.3125 C104.69488281 35.03179688 105.63976563 35.75109375 106.61328125 36.4921875 C140.77071127 63.48199472 161.43814077 102.01329522 167.09375 144.92041016 C171.6812717 186.8225057 159.79404467 229.38734786 133.75 262.5625 C129.57159756 267.61969343 125.21883602 272.51087832 120.75 277.3125 C120.12609375 277.99054688 119.5021875 278.66859375 118.859375 279.3671875 C113.07045285 285.42366488 106.50306842 290.3993001 99.75 295.3125 C98.91734619 295.92762451 98.91734619 295.92762451 98.06787109 296.55517578 C62.06038249 322.89931281 14.63138002 331.79413656 -29.1875 325.1875 C-44.88918814 322.50894748 -59.95968594 317.27285172 -74.25 310.3125 C-75.34441406 309.78011719 -76.43882812 309.24773437 -77.56640625 308.69921875 C-116.84084019 288.50782265 -146.70926327 253.07410495 -160.33374023 211.13061523 C-164.44395495 197.58412614 -166.83917556 183.45915037 -167.25 169.3125 C-167.28996094 168.3946875 -167.32992187 167.476875 -167.37109375 166.53125 C-168.46044585 120.9066207 -149.79087867 81.19838215 -119.25 48.3125 C-118.69957031 47.70792969 -118.14914063 47.10335938 -117.58203125 46.48046875 C-98.44093114 26.29960518 -70.68816749 12.49822982 -44.3125 5.0625 C-43.0275061 4.69294189 -43.0275061 4.69294189 -41.71655273 4.31591797 C-28.00624756 0.61706245 -14.12285925 -0.07234556 0 0 Z M-58.25 89.3125 C-58.81589844 89.73402344 -59.38179687 90.15554688 -59.96484375 90.58984375 C-69.7037504 98.12890325 -76.87592443 109.4243078 -82.25 120.3125 C-82.61480469 120.94929688 -82.97960938 121.58609375 -83.35546875 122.2421875 C-94.68983064 142.47901755 -94.21834107 170.18984558 -88.1875 191.9375 C-84.17663557 205.14585132 -77.33301484 216.96525397 -68.25 227.3125 C-67.6209375 228.13363281 -66.991875 228.95476562 -66.34375 229.80078125 C-53.01671761 245.78824734 -30.34304274 256.61947838 -9.8671875 258.84375 C14.13645857 260.9134759 38.08705324 254.59402929 56.78125 239.00390625 C57.75578125 238.16666016 57.75578125 238.16666016 58.75 237.3125 C59.3996875 236.80589844 60.049375 236.29929687 60.71875 235.77734375 C79.47680907 220.62946668 89.71976011 196.2402488 92.28588867 172.76928711 C94.76008232 146.84685298 87.29309921 122.56438127 71.1796875 102.15234375 C68.81899868 99.39314636 66.34608609 96.84929538 63.75 94.3125 C63.19957031 93.72726562 62.64914063 93.14203125 62.08203125 92.5390625 C46.14957386 75.74649816 23.02101669 67.74734261 0.25 67.0625 C-22.13960692 67.77394545 -41.11572177 74.94739805 -58.25 89.3125 Z " fill="#7063F2" transform="translate(2238.25,1406.6875)"/>
<path d="M0 0 C1.26328125 0.26683594 2.5265625 0.53367187 3.828125 0.80859375 C33.57470791 7.92878647 60.28185542 23.72750818 82 45 C83.21236328 46.13695312 83.21236328 46.13695312 84.44921875 47.296875 C112.33898959 73.96981465 129.17454942 114.17732906 130.203125 152.57421875 C130.73101473 193.4556034 119.65213142 232.97807478 92 264 C91.26007812 264.84820313 90.52015625 265.69640625 89.7578125 266.5703125 C87.53925489 269.08058357 85.28109157 271.54652365 83 274 C82.33871094 274.72703125 81.67742188 275.4540625 80.99609375 276.203125 C57.06267456 301.45356346 22.89626292 316.58375282 -11 322 C-12.07306396 322.1757959 -13.14612793 322.3515918 -14.25170898 322.53271484 C-18.28997442 323.03615001 -22.26570903 323.17885033 -26.328125 323.203125 C-27.11076218 323.21009399 -27.89339935 323.21706299 -28.69975281 323.22424316 C-31.2165569 323.2415741 -33.73313869 323.24796431 -36.25 323.25 C-37.1065921 323.25100708 -37.9631842 323.25201416 -38.84573364 323.25305176 C-51.15768221 323.24323166 -62.97116132 322.84698948 -75 320 C-76.2375 319.73316406 -77.475 319.46632813 -78.75 319.19140625 C-105.04825969 312.92328291 -130.23038208 299.55834079 -149.88671875 280.9921875 C-151.82133632 279.16842602 -153.81900095 277.49582305 -155.875 275.8125 C-186.0473738 249.35084153 -202.14168764 208.12771088 -204.74609375 168.86328125 C-207.10106545 123.1041366 -190.5229586 82.26498854 -160.29980469 48.44042969 C-121.08266463 4.98041347 -56.4935762 -12.54048225 0 0 Z M-105.61328125 95.0234375 C-121.07787681 113.96147083 -129.40840339 134.98833295 -129.375 159.625 C-129.37338867 160.8617749 -129.37177734 162.0985498 -129.37011719 163.37280273 C-129.24301579 172.8786163 -128.10234775 181.01724398 -125 190 C-124.72285156 190.93714844 -124.44570312 191.87429688 -124.16015625 192.83984375 C-118.82557988 209.58107188 -107.85684935 225.26694906 -94 236 C-92.95005859 236.83917969 -92.95005859 236.83917969 -91.87890625 237.6953125 C-72.51297053 252.26058625 -48.42975619 258.14989704 -24.50732422 255.17407227 C-7.2317435 252.56595316 7.64403903 245.15084922 21 234 C21.67675781 233.45730469 22.35351562 232.91460938 23.05078125 232.35546875 C40.72805495 217.69877774 52.10640125 193.49245597 54.75 170.875 C54.85983562 169.25157597 54.94174436 167.62609216 55 166 C55.03996094 165.00742188 55.07992187 164.01484375 55.12109375 162.9921875 C55.63007042 138.14215022 47.51914331 116.22960262 32 97 C31.30583984 96.09314453 31.30583984 96.09314453 30.59765625 95.16796875 C17.24713808 78.13144893 -4.76168043 67.78420373 -25.75 64.75 C-55.44566985 61.35620916 -85.87234415 72.18414704 -105.61328125 95.0234375 Z " fill="#7063F2" transform="translate(2639,1410)"/>
<path d="M0 0 C25.85466336 22.04974641 42.67013152 50.79530532 45.51171875 85.0390625 C47.01436812 109.82383277 42.29986965 132.39478984 30.49511719 154.21972656 C29.59965872 155.87636918 28.73001455 157.54689952 27.86328125 159.21875 C23.19578203 167.80239492 17.06904373 174.86846253 10.51171875 182.0390625 C9.77050781 182.8640625 9.02929688 183.6890625 8.265625 184.5390625 C-17.64686368 211.97005241 -55.59893389 224.24288542 -92.43139648 225.44360352 C-126.36560889 225.88102533 -158.72862636 214.00255772 -184.48828125 192.0390625 C-185.45894531 191.21535156 -186.42960937 190.39164063 -187.4296875 189.54296875 C-211.17726076 168.89191146 -225.06710124 139.2521081 -227.48828125 108.0390625 C-228.30070289 93.56432416 -227.16070912 80.06105982 -223.48828125 66.0390625 C-223.31699707 65.37358398 -223.14571289 64.70810547 -222.96923828 64.02246094 C-217.37701596 43.14697972 -205.11262998 25.59107514 -190.48828125 10.0390625 C-189.96234375 9.44867187 -189.43640625 8.85828125 -188.89453125 8.25 C-141.3445891 -42.93896834 -52.1407697 -43.08454924 0 0 Z " fill="#655AC9" transform="translate(1246.48828125,735.9609375)"/>
<path d="M0 0 C0.72719238 0.15033691 1.45438477 0.30067383 2.20361328 0.45556641 C21.45389443 4.61673829 39.70666301 13.65408886 55 26 C55.5480127 26.42748535 56.09602539 26.8549707 56.66064453 27.29541016 C82.46662647 47.45469966 98.96399704 77.54070681 103 110 C105.4314658 144.81612125 96.2395613 177.42809204 73.3359375 204.16015625 C70.65250118 207.20200007 67.85492859 210.11940469 65 213 C64.08734375 213.92554688 63.1746875 214.85109375 62.234375 215.8046875 C34.50055589 242.55342561 -3.59456123 253.69068718 -41.42578125 253.2109375 C-68.72828988 252.44372043 -96.05111368 243.30582437 -118 227 C-118.81082031 226.41089844 -119.62164063 225.82179688 -120.45703125 225.21484375 C-146.66587742 205.27240991 -164.15842813 176.95555281 -168.9375 144.25 C-173.16264562 111.27503173 -165.18858395 78.68019932 -145 52 C-120.93328727 21.81476958 -87.86181734 2.34061218 -49.3125 -2.25 C-32.65263996 -3.96764168 -16.39118341 -3.47500116 0 0 Z " fill="#2D94C9" transform="translate(892,771)"/>
<path d="M0 0 C19.8 0 39.6 0 60 0 C70.16981143 25.29974562 70.16981143 25.29974562 74.6015625 36.32617188 C77.59163022 43.76561063 80.58175285 51.20502725 83.57226562 58.64428711 C86.45735069 65.82132345 89.34205158 72.99851413 92.2265625 80.17578125 C92.69551186 81.34253513 93.16446121 82.50928902 93.64762115 83.71139908 C98.26930319 95.21096153 102.88868796 106.71140582 107.48730469 118.22021484 C107.8235681 119.06169539 108.1598315 119.90317595 108.50628471 120.77015591 C110.03015329 124.58440008 111.55277347 128.399136 113.07339478 132.2146759 C113.59107806 133.51185368 114.10876762 134.80902895 114.62646484 136.10620117 C115.06534027 137.20759933 115.5042157 138.3089975 115.95639038 139.44377136 C116.93506603 141.93343738 116.93506603 141.93343738 118 144 C123.36507556 130.65355318 128.7297998 117.30696519 134.09414101 103.9602232 C136.58669215 97.75865661 139.07935245 91.55713396 141.57226562 85.35571289 C144.45735069 78.17867655 147.34205158 71.00148587 150.2265625 63.82421875 C150.69551186 62.65746487 151.16446121 61.49071098 151.64762115 60.28860092 C156.26930319 48.78903847 160.88868796 37.28859418 165.48730469 25.77978516 C165.8235681 24.93830461 166.1598315 24.09682405 166.50628471 23.22984409 C168.03015329 19.41559992 169.55277347 15.600864 171.07339478 11.7853241 C171.59107806 10.48814632 172.10876762 9.19097105 172.62646484 7.89379883 C173.06534027 6.79240067 173.5042157 5.6910025 173.95639038 4.55622864 C175 2 175 2 176 0 C195.8 0 215.6 0 236 0 C239.19087038 26.66296872 242.38145537 53.32597155 245.57153702 79.98903465 C247.05320641 92.37291983 248.53499768 104.75679041 250.01708984 117.140625 C251.31092105 127.95142083 252.60450937 138.76224569 253.89782214 149.57310355 C254.58077081 155.28183293 255.26383011 160.99054902 255.9471817 166.69923019 C257.30442616 178.03809212 258.6604506 189.37709691 260.01208472 200.71662915 C260.55348811 205.25857701 261.09560531 209.80043625 261.63981628 214.34204865 C262.1288728 218.42355147 262.61578921 222.50530336 263.10089445 226.58727765 C263.27529438 228.05158316 263.45048911 229.51579426 263.62654924 230.97990108 C263.86353126 232.95164296 264.09735314 234.92376391 264.33099365 236.89590454 C264.46127834 237.98725016 264.59156303 239.07859577 264.72579575 240.20301247 C265 243 265 243 265 247 C245.2 247 225.4 247 205 247 C202.7137471 229.12898759 202.7137471 229.12898759 201.72423744 221.39268875 C200.72795305 213.60355624 199.73130648 205.81447038 198.73381996 198.02549171 C198.10360656 193.10425839 197.47361233 188.18299702 196.84375 183.26171875 C196.71931896 182.28951511 196.59488792 181.31731148 196.46668625 180.31564713 C194.95607526 168.51001308 193.45385981 156.70340107 191.96875 144.89453125 C191.68901318 142.67650758 191.40923075 140.45848965 191.12939453 138.24047852 C190.63690427 134.33649234 190.148969 130.43197354 189.66357422 126.52709961 C189.45038388 124.83575096 189.2370189 123.14442431 189.0234375 121.453125 C188.93227661 120.70839432 188.84111572 119.96366364 188.74719238 119.19636536 C188.29931296 115.47969119 188.29931296 115.47969119 187 112 C186.58135429 113.12891663 186.58135429 113.12891663 186.1542511 114.28063965 C162.3575766 178.4455828 162.3575766 178.4455828 150.47445679 210.20458984 C149.58012738 212.59567061 148.68674421 214.98710553 147.79434204 217.37890625 C146.55574681 220.69765044 145.31355066 224.01502404 144.0703125 227.33203125 C143.71411331 228.28837967 143.35791412 229.24472809 142.99092102 230.23005676 C142.65376572 231.12713852 142.31661041 232.02422028 141.96923828 232.94848633 C141.54059982 234.09405754 141.54059982 234.09405754 141.103302 235.26277161 C139.50838942 239.2196574 137.73267882 243.10147266 136 247 C123.79 247 111.58 247 99 247 C97.38996094 242.65457031 95.77992187 238.30914063 94.12109375 233.83203125 C92.18810056 228.61837512 90.2542849 223.40502451 88.32017136 218.19178391 C87.7336949 216.61090786 87.1472814 215.03000846 86.56093216 213.44908524 C79.81605824 195.26362445 73.05156617 177.08617149 66.1875 158.9453125 C65.91963243 158.23703245 65.65176487 157.5287524 65.37578011 156.79900932 C62.81617104 150.0313052 60.25340499 143.26483302 57.67909813 136.50270462 C56.5216557 133.45985516 55.36877035 130.41527791 54.21484375 127.37109375 C53.79940308 126.28470612 53.3839624 125.19831848 52.95593262 124.07901001 C52.57851929 123.08154755 52.20110596 122.08408508 51.81225586 121.05639648 C51.48430527 120.19497543 51.15635468 119.33355438 50.81846619 118.44602966 C49.99281134 115.97851632 49.45328961 113.55982988 49 111 C48.34 111 47.68 111 47 111 C46.95051964 112.24849731 46.95051964 112.24849731 46.90003967 113.5222168 C46.20072516 127.36906223 44.36792873 141.06564802 42.62109375 154.8125 C42.28578668 157.4800086 41.95087115 160.14756349 41.61647034 162.81518555 C40.83069725 169.07670035 40.03991567 175.3375715 39.24724203 181.59821606 C38.25466892 189.43990395 37.26894539 197.28245102 36.28320312 205.125 C34.52862454 219.08415811 32.76385263 233.04200377 31 247 C11.2 247 -8.6 247 -29 247 C-28.41844202 238.85818834 -27.83984815 230.82354945 -26.8614502 222.73901367 C-26.75104542 221.80431873 -26.64064065 220.86962379 -26.52689028 219.90660477 C-26.16229865 216.82668294 -25.79308688 213.74733422 -25.42382812 210.66796875 C-25.15901947 208.43924699 -24.8944959 206.21049134 -24.63023376 203.98170471 C-23.91629426 197.9675014 -23.19829249 191.95378954 -22.47945213 185.94017029 C-21.72633451 179.63452841 -20.97673813 173.32846788 -20.22668457 167.02246094 C-18.96795935 156.44423302 -17.70675209 145.86630377 -16.44384766 135.28857422 C-15.1456808 124.41547119 -13.84969773 113.54211085 -12.55615234 102.66845703 C-12.47633159 101.99747958 -12.39651084 101.32650213 -12.31427127 100.63519204 C-12.23458517 99.96534338 -12.15489908 99.29549473 -12.07279825 98.60534763 C-11.91233591 97.25649566 -11.75187242 95.90764382 -11.59140778 94.55879211 C-11.51226242 93.89350323 -11.43311707 93.22821435 -11.35157338 92.5427652 C-10.04124133 81.52909697 -8.72852993 70.51571216 -7.4158535 59.50232315 C-6.96877725 55.75022871 -6.52207906 51.99808942 -6.07545471 48.24594116 C-5.3742044 42.35568794 -4.67149529 36.4656105 -3.96765327 30.57566643 C-3.70957607 28.41418102 -3.45197496 26.2526387 -3.19488335 24.09103584 C-2.8440787 21.14223852 -2.49153961 18.19365361 -2.1385498 15.24511719 C-1.98635884 13.96078938 -1.98635884 13.96078938 -1.83109331 12.65051556 C-1.73566728 11.85647225 -1.64024125 11.06242895 -1.54192352 10.24432373 C-1.46082572 9.56461895 -1.37972793 8.88491417 -1.29617262 8.18461227 C-0.92508932 5.44744796 -0.45410355 2.7246213 0 0 Z " fill="#7063F2" transform="translate(1728,1791)"/>
<path d="M0 0 C19.8 0 39.6 0 60 0 C60 85.14 60 170.28 60 258 C40.2 258 20.4 258 0 258 C-0.33 253.71 -0.66 249.42 -1 245 C-1.86625 245.825 -2.7325 246.65 -3.625 247.5 C-21.05329661 262.35806297 -40.85933314 265.01631759 -63 264 C-79.43414598 262.52156966 -93.34350803 255.03762522 -106 245 C-106.82113281 244.37480469 -107.64226563 243.74960938 -108.48828125 243.10546875 C-127.5715523 227.54734901 -137.83251118 202.06475369 -140.41015625 178.203125 C-142.7867108 151.31656206 -136.44447026 124.23051257 -119.4375 102.875 C-117.98030408 101.2302693 -116.50208926 99.60383506 -115 98 C-114.32839844 97.23816406 -113.65679688 96.47632813 -112.96484375 95.69140625 C-99.10511988 80.74362929 -79.33296668 71.14497831 -58.98291016 69.87402344 C-37.56472752 69.09157885 -20.44491985 74.76933305 -3 87 C-2.34 87.66 -1.68 88.32 -1 89 C-0.67 59.63 -0.34 30.26 0 0 Z M-72 139 C-74.04902707 141.88099862 -75.61616634 144.75150913 -77 148 C-77.30421875 148.71414063 -77.6084375 149.42828125 -77.921875 150.1640625 C-82.41856848 161.49063947 -82.2836101 173.56135167 -77.8828125 184.87109375 C-73.17749563 195.30520036 -66.02052194 203.46054008 -55.421875 208.1015625 C-46.02941173 211.58586339 -36.94415564 212.15627605 -27.37109375 208.68359375 C-13.85310335 202.39853025 -6.62953189 193.74156638 -1.19140625 179.94921875 C2.44660423 168.23231604 0.0203126 155.85505848 -5 145 C-11.34910498 134.75208428 -20.40610344 127.94133866 -31.8984375 124.41796875 C-47.67812737 121.27962894 -61.64270285 127.09710277 -72 139 Z " fill="#7063F2" transform="translate(2367,1780)"/>
<path d="M0 0 C0.33 -4.29 0.66 -8.58 1 -13 C20.8 -13 40.6 -13 61 -13 C61 47.06 61 107.12 61 169 C41.2 169 21.4 169 1 169 C0.67 164.71 0.34 160.42 0 156 C-0.86625 156.825 -1.7325 157.65 -2.625 158.5 C-20.22951626 173.47803601 -40.67374756 176.02327078 -63 175 C-83.51659193 173.16745004 -103.27402438 160.7227388 -116.37109375 145.1875 C-127.86166528 130.30595036 -136.90025789 112.92811004 -139 94 C-139.11988281 93.21882813 -139.23976563 92.43765625 -139.36328125 91.6328125 C-142.59891002 66.60541886 -136.76583301 39.35690339 -122.09375 18.703125 C-107.10517183 -0.64780055 -88.02160427 -14.91233346 -63.4375 -18.49609375 C-39.53740561 -21.47834584 -18.79924086 -15.03939269 0 0 Z M-70.25 49.3125 C-79.10339539 60.28087318 -80.91696995 72.27456089 -80 86 C-78.29329493 96.42667716 -72.00186396 107.34303532 -63.6640625 113.8125 C-54.26901464 120.2732779 -44.77227742 123.04327827 -33.3671875 121.7578125 C-22.85691768 119.39239215 -13.51013261 113.62224955 -7 105 C-0.01835308 93.70571588 2.97703123 81.90883316 0.34765625 68.73046875 C-3.07935262 56.33146242 -9.1294802 47.02606768 -20 40 C-37.89344194 30.38227496 -56.62579663 34.65092074 -70.25 49.3125 Z " fill="#7063F2" transform="translate(2706,1869)"/>
<path d="M0 0 C19.33189721 18.28989424 26.01900521 44.39815909 27.25 70.1875 C27.43613594 77.05901857 27.22637628 83.35286602 26.25 90.1875 C-14.67 90.5175 -55.59 90.8475 -97.75 91.1875 C-91.6416217 103.40425659 -86.98290509 110.12894859 -74.703125 115.22265625 C-52.3166876 122.5367436 -25.13294092 116.57296703 -3.75 108.1875 C-2.76 108.1875 -1.77 108.1875 -0.75 108.1875 C2.90957029 117.76783849 6.45219262 127.39174231 9.93682861 137.0369873 C10.61951488 138.92235182 11.3085125 140.80542708 11.99755859 142.68847656 C12.41859863 143.85862305 12.83963867 145.02876953 13.2734375 146.234375 C13.65419434 147.28463867 14.03495117 148.33490234 14.42724609 149.41699219 C15.25 152.1875 15.25 152.1875 15.25 156.1875 C0.3420627 163.52516559 -14.28887005 168.58467176 -30.75 171.1875 C-31.81694092 171.36023437 -32.88388184 171.53296875 -33.9831543 171.7109375 C-37.89582674 172.20594927 -41.73923237 172.36569893 -45.67578125 172.390625 C-46.78711426 172.40114647 -46.78711426 172.40114647 -47.92089844 172.41188049 C-50.30149458 172.42930883 -52.68184239 172.4357332 -55.0625 172.4375 C-55.87335052 172.43817474 -56.68420105 172.43884949 -57.5196228 172.43954468 C-87.88256263 172.39929897 -114.61818227 165.05529854 -137.30078125 143.796875 C-155.6759151 123.95886642 -162.19953931 97.59919699 -161.75 71.1875 C-160.6693992 45.51676812 -152.39441897 20.51856739 -133.75 2.1875 C-98.42737224 -29.6769684 -36.06720247 -31.39273557 0 0 Z M-91.546875 37.109375 C-95.63799732 42.33466984 -98.75 47.40744876 -98.75 54.1875 C-77.96 54.1875 -57.17 54.1875 -35.75 54.1875 C-37.04140686 43.85624509 -39.16622468 38.62427755 -47.203125 31.953125 C-61.47068703 22.06211574 -79.80308724 24.54862809 -91.546875 37.109375 Z " fill="#7063F2" transform="translate(2176.75,1871.8125)"/>
<path d="M0 0 C19.47 0 38.94 0 59 0 C59 60.06 59 120.12 59 182 C39.2 182 19.4 182 -1 182 C-1.02254479 158.417801 -1.04097787 134.83561069 -1.05181217 111.25340366 C-1.05697569 100.30459267 -1.06401946 89.35578883 -1.07543945 78.40698242 C-1.08538458 68.86767269 -1.09185302 59.32836815 -1.09408849 49.78905338 C-1.09539589 44.73475977 -1.09848358 39.68048097 -1.10573006 34.62619209 C-1.11248757 29.87471216 -1.11461751 25.12325323 -1.11310768 20.37176895 C-1.11338413 18.62256316 -1.11539084 16.8733567 -1.11920547 15.12415504 C-1.12413854 12.74664852 -1.12299974 10.36922264 -1.12025452 7.99171448 C-1.12316736 7.29036568 -1.1260802 6.58901688 -1.12908131 5.86641508 C-1.11412121 1.11412121 -1.11412121 1.11412121 0 0 Z " fill="#7163F2" transform="translate(2473,1856)"/>
<path d="M0 0 C6.79662557 5.75859548 12.27716515 13.93529985 13.1875 22.9375 C14.12910761 34.48091181 11.56053956 43.92023801 4.1875 52.9375 C-2.55116589 60.03999058 -10.56442965 63.96122028 -20.34521484 64.23071289 C-32.35256145 64.34139905 -39.74575459 61.78633902 -48.61328125 53.30859375 C-56.44416859 44.865701 -58.42428088 36.37684846 -58.11328125 24.98046875 C-57.58300657 15.62974039 -53.89828417 8.87313321 -47.453125 2.171875 C-33.65379769 -9.50447888 -14.81224096 -10.46161671 0 0 Z " fill="#7063F2" transform="translate(2524.8125,1769.0625)"/>
<path d="M0 0 C0.33 0.66 0.66 1.32 1 2 C-2.0096463 8.48231511 -2.0096463 8.48231511 -5.75 10.4375 C-6.86375 10.7159375 -6.86375 10.7159375 -8 11 C-6.52670958 5.99081256 -3.72484762 3.48192278 0 0 Z " fill="#8F5BF0" transform="translate(710,1171)"/>
<path d="M0 0 C3.3 0.33 6.6 0.66 10 1 C6.77208445 3.1519437 5.71599191 3.20086443 2 3 C2 2.34 2 1.68 2 1 C1.34 0.67 0.68 0.34 0 0 Z " fill="#1B9BEA" transform="translate(1203,2039)"/>
</svg>