<?xml version="1.0" encoding="utf-8"?>
<!-- Generator: Adobe Illustrator 22.0.1, SVG Export Plug-In . SVG Version: 6.00 Build 0)  -->
<svg width="220" version="1.1" id="Layer_1" xmlns="http://www.w3.org/2000/svg" xmlns:xlink="http://www.w3.org/1999/xlink" x="0px" y="0px"
	 viewBox="0 0 292 294" style="enable-background:new 0 0 292 294;" xml:space="preserve">
<style type="text/css">
	.st0{opacity:0.67;fill:url(#SVGID_1_);}
	.st1{opacity:0.62;fill:url(#SVGID_2_);}
	.st2{opacity:0.62;fill:url(#SVGID_3_);}
	.st3{opacity:0.62;fill:url(#SVGID_4_);}
	.st4{opacity:0.62;fill:url(#SVGID_5_);}
	.st5{opacity:0.62;fill:url(#SVGID_6_);}
	.st6{opacity:0.62;fill:url(#SVGID_7_);}
</style>
<linearGradient id="SVGID_1_" gradientUnits="userSpaceOnUse" x1="141.9352" y1="135.5" x2="290.95" y2="135.5">
	<stop  offset="0" style="stop-color:#7164F2"/>
	<stop  offset="1" style="stop-color:#34C0E8"/>
</linearGradient>
<path class="st0" d="M142.4,2.4c-1.2,3.1,0.1,6.1,2.7,6.4c3.3,0.4,5.3-2,4.5-5.3c-0.5-2-1.3-2.5-3.6-2.5
	C144.3,1,142.7,1.6,142.4,2.4 M165.3,3.6c-1.6,4.3,5.5,7.4,7.7,3.4c0.9-1.6,0.8-2.5-0.1-3.6C171.3,1.5,166.1,1.6,165.3,3.6
	 M190.8,8.2c0.6,0.6,1.6,0.9,2.4,0.6c0.7-0.3,0.3-0.7-1.1-1.1C190.4,7.3,190,7.4,190.8,8.2 M166.6,25.6c-0.9,0.9-1.6,2.2-1.6,2.9
	c0,1.8,2.7,4.5,4.5,4.5c1.7,0,4.5-2.7,4.5-4.4c0-1.5-3.2-4.6-4.8-4.6C168.6,24,167.4,24.7,166.6,25.6 M190,25.4
	c-1.6,1.9-1,5.6,1.2,6.9c3.9,2.5,7.9-4.3,4.2-7.1C193.1,23.6,191.5,23.7,190,25.4 M213.6,25.6c-0.9,0.9-1.6,2.2-1.6,2.9
	c0,1.8,2.7,4.5,4.5,4.5s4.5-2.7,4.5-4.5s-2.7-4.5-4.5-4.5C215.8,24,214.4,24.7,213.6,25.6 M166.2,49.2c-1.8,1.8-1.4,4.5,1,6.2
	c3.7,2.6,8-1.4,5.8-5.5C171.8,47.8,168,47.4,166.2,49.2 M190.2,49.2c-3.4,3.4,0.6,9,4.8,6.8c3.5-1.9,2-8-2-8
	C192.1,48,190.9,48.5,190.2,49.2 M213,50.1c-1.3,2.5-0.7,4.4,1.9,5.8c1.5,0.8,2.5,0.6,4.3-0.8c2-1.6,2.2-2.2,1.1-4.5
	C218.7,47.3,214.6,47,213,50.1 M237.2,49.2c-0.7,0.7-1.2,2.3-1.2,3.5c0,2.7,3.6,4.5,6.3,3.1c3.3-1.7,1.6-7.8-2.3-7.8
	C239.1,48,237.9,48.5,237.2,49.2 M166.2,73.2c-2.7,2.7-0.6,6.8,3.5,6.8c3,0,4.8-3.3,3.3-6C171.8,71.8,168.1,71.3,166.2,73.2
	 M189.7,72.7c-0.4,0.4-0.7,1.9-0.7,3.5c0,2.2,0.6,3,2.6,3.5c3.5,0.9,5.9-1.5,5-5c-0.5-2-1.3-2.6-3.5-2.6
	C191.6,72,190,72.3,189.7,72.7 M213.2,73.2c-2.9,2.9-0.3,7.3,3.9,6.7c3-0.5,4.7-3.3,3.3-5.6C219,72.1,214.9,71.5,213.2,73.2
	 M236.4,74.5c-0.9,3.6,1.5,6,5.1,5.1c2.3-0.6,2.6-1.1,2.3-3.9c-0.3-2.8-0.7-3.3-3.5-3.5C237.5,71.9,237,72.3,236.4,74.5 M260,73.9
	c-1.6,3.1,0.4,6.3,3.7,5.9c3.3-0.4,5.2-3.2,3.7-5.6C265.8,71.6,261.4,71.4,260,73.9 M166.6,96.6c-3.3,3.3-0.7,8.2,3.8,7
	c3.2-0.8,4-3.3,2.1-6.3C170.7,94.6,168.8,94.4,166.6,96.6 M190.6,96.3c-2.2,1.6-1.8,5.5,0.7,7.1c3.9,2.5,7.9-4.3,4.2-7.1
	c-1-0.7-2.1-1.3-2.4-1.3S191.6,95.6,190.6,96.3 M213.6,96.9c-2.1,2.3-1.4,5.7,1.3,6.5c4.5,1.4,7.6-3.1,4.5-6.5
	c-1-1.1-2.3-1.9-2.9-1.9S214.5,95.9,213.6,96.9 M237.6,96.3c-2.2,1.6-1.8,5.5,0.7,7.1c3.9,2.5,7.9-4.3,4.2-7.1
	c-1-0.7-2.1-1.3-2.4-1.3S238.6,95.6,237.6,96.3 M260.5,97.4c-1.9,2.9-1,5.5,2.1,6.3c4.5,1.1,7.2-3.7,3.8-7
	C264.2,94.4,262.3,94.6,260.5,97.4 M166.2,120.2c-1.7,1.7-1.5,4.4,0.4,6.2c2.1,2.1,3,2,5.4-0.4c2.4-2.4,2.5-3.4,0.4-5.4
	C170.6,118.7,167.9,118.5,166.2,120.2 M190.2,120.2c-3.4,3.4,0.6,9,4.8,6.8c3.5-1.9,2-8-2-8C192.1,119,190.9,119.5,190.2,120.2
	 M212.8,121.5c-0.9,2.1-0.8,2.8,0.7,4.5c1,1.1,2.3,2,3,2s2-0.9,3-2c2.5-2.8,0.7-7-3-7C214.8,119,213.6,119.8,212.8,121.5
	 M237.2,120.2c-3.4,3.4,0.6,9,4.8,6.8c3.5-1.9,2-8-2-8C239.1,119,237.9,119.5,237.2,120.2 M260.6,120.6c-0.9,0.9-1.6,2-1.6,2.5
	c0,1.2,3.7,4.9,4.9,4.9c1.5,0,4.1-3,4.1-4.9C268,119.3,263.5,117.7,260.6,120.6 M284.2,120.2c-1.7,1.7-1.5,4.4,0.4,6.2
	c1.8,1.8,2.4,1.9,4.3,0.7c2.1-1.3,0.6-8.1-1.7-8.1C286.2,119,284.9,119.5,284.2,120.2 M167,144.8 M167,144.8 M189.4,144.4
	c-0.3,0.8-0.4,2.5-0.2,3.8c0.3,1.8,1,2.3,3.2,2.3c3.6,0,5.6-2.7,4-5.3C195,143,190.2,142.4,189.4,144.4 M213.2,144.2
	c-2.9,2.9-0.3,7.3,3.9,6.7c3-0.5,4.7-3.3,3.3-5.6C219,143.1,214.9,142.5,213.2,144.2 M237.2,144.2c-2.9,2.9-0.3,7.3,4,6.7
	c1.9-0.3,2.3-0.9,2.3-3.8c0-3-0.4-3.5-2.5-3.8C239.6,143,237.9,143.5,237.2,144.2 M260,144.9c-1.6,3.1,0.4,6.3,3.7,5.9
	c3.3-0.4,5.2-3.2,3.7-5.6C265.8,142.6,261.4,142.4,260,144.9 M284.2,144.2c-2.9,2.9-0.3,7.3,4,6.7c1.9-0.3,2.3-0.9,2.3-3.8
	c0-3-0.4-3.5-2.5-3.8C286.6,143,284.9,143.5,284.2,144.2 M190.6,167.3c-2.2,1.6-1.8,5.5,0.7,7.1c3.9,2.5,7.9-4.3,4.2-7.1
	c-1-0.7-2.1-1.3-2.4-1.3S191.6,166.6,190.6,167.3 M213.5,168c-2.5,2.8-0.7,7,3,7s5.5-4.2,3-7c-1-1.1-2.3-2-3-2
	S214.5,166.9,213.5,168 M237.6,167.3c-3.8,2.7,0.2,9.5,4.2,7.1c2.5-1.5,2.8-5.5,0.7-7.1c-1-0.7-2.1-1.3-2.4-1.3
	S238.6,166.6,237.6,167.3 M261,168c-1.1,1.1-2,2.4-2,2.9c0,1.5,3,4.1,4.9,4.1c3.9,0,5.4-4.6,2.6-7.4
	C264.4,165.5,263.4,165.6,261,168 M284.6,167.6c-2,2-2,4.8-0.1,6.4c2.2,1.9,4.9,0.8,6-2.3c0.8-2.4,0.7-3.1-0.9-4.2
	C287.1,165.6,286.5,165.6,284.6,167.6 M190.2,191.2c-3.4,3.4,0.6,9,4.8,6.8c3.5-1.9,2-8-2-8C192.1,190,190.9,190.5,190.2,191.2
	 M213.6,191.6c-0.9,0.9-1.6,2.1-1.6,2.8c0,1.5,3.2,4.6,4.7,4.6c1.3,0,4.3-3.3,4.3-4.8c0-1.5-2.9-4.2-4.5-4.2
	C215.8,190,214.4,190.7,213.6,191.6 M237.2,191.2c-3.4,3.4,0.6,9,4.8,6.8c3.5-1.9,2-8-2-8C239.1,190,237.9,190.5,237.2,191.2
	 M260.6,191.6c-2,2-2,2.7,0.2,5.4c2.3,2.8,5.9,2,6.8-1.6C268.8,190.8,263.9,188.2,260.6,191.6 M284.2,191.2
	c-1.5,1.5-1.6,5.8-0.2,5.8c0.5,0,1-0.1,1-0.3c0-0.1,0.4-1.7,0.9-3.5C286.9,189.9,286.3,189.1,284.2,191.2 M190.2,214.9
	c-0.8,0.5-1.2,2.1-1,3.7c0.3,2.4,0.8,2.9,3.5,3.2c2.7,0.3,3.3-0.1,3.9-2.3C197.6,215.3,193.9,212.5,190.2,214.9 M213.2,215.2
	c-2.9,2.9-0.3,7.3,3.9,6.7c3-0.5,4.7-3.3,3.3-5.6C219,214.1,214.9,213.5,213.2,215.2 M237,215.5c-0.7,0.9-1,2.6-0.6,4.1
	c0.6,2.2,1.1,2.5,3.9,2.3c2.7-0.3,3.3-0.8,3.5-3.2C244.3,214.3,239.7,212.2,237,215.5 M260,215.9c-1.6,3.1,0.4,6.3,3.7,5.9
	c3.3-0.4,5.2-3.2,3.7-5.6C265.8,213.6,261.4,213.4,260,215.9 M190.6,238.3c-2.2,1.6-1.8,5.5,0.7,7.1c3.9,2.5,7.9-4.3,4.2-7.1
	c-1-0.7-2.1-1.3-2.4-1.3S191.6,237.6,190.6,238.3 M213.9,238.9c-2,1.6-2.2,2.2-1.1,4.5c1.5,3.3,5.6,3.6,7.3,0.5
	c1.3-2.5,0.7-4.4-1.9-5.8C216.6,237.3,215.7,237.4,213.9,238.9 M237.6,238.3c-2.2,1.6-1.8,5.5,0.7,7.1c3.9,2.5,7.9-4.3,4.2-7.1
	c-1-0.7-2.1-1.3-2.4-1.3S238.6,237.6,237.6,238.3 M261.1,238.9c-2.1,2.1-2.7,4.1-1.3,4.1c1.1,0,4.5-5,3.9-5.6
	C263.4,237.1,262.2,237.8,261.1,238.9 M213.6,262.6c-0.9,0.9-1.6,2.2-1.6,2.9c0,1.8,2.7,4.5,4.5,4.5s4.5-2.7,4.5-4.5
	s-2.7-4.5-4.5-4.5C215.8,261,214.4,261.7,213.6,262.6 M237.2,262.2c-1.4,1.4-1.6,4.8-0.4,4.8c1,0,5.2-4.3,5.2-5.3
	C242,260.5,238.5,260.9,237.2,262.2"/>
<linearGradient id="SVGID_2_" gradientUnits="userSpaceOnUse" x1="-6.399564e-03" y1="147.0865" x2="174" y2="147.0865">
	<stop  offset="0" style="stop-color:#7164F2"/>
	<stop  offset="1" style="stop-color:#34C0E8"/>
</linearGradient>
<path class="st1" d="M119.2,2.2c-2.9,2.9-0.3,7.3,4,6.7c1.9-0.3,2.3-0.9,2.3-3.8c0-3-0.4-3.5-2.5-3.8C121.6,1,119.9,1.5,119.2,2.2
	 M97.2,6.1c-2.7,1.1-2,2.9,1.2,2.9c2.2,0,4.6-1.7,4.6-3.2C103,4.8,100.1,4.9,97.2,6.1 M72.6,25.3c-3.8,2.7,0.2,9.5,4.2,7.1
	c2.2-1.4,2.8-5,1.2-6.9C76.5,23.7,74.9,23.6,72.6,25.3 M95.7,25.8c-0.9,1-1.7,2.3-1.7,2.9c0,1.5,2.9,4.2,4.5,4.2
	c1.8,0,4.5-2.7,4.5-4.5c0-1.7-2.7-4.5-4.4-4.5C97.9,24,96.6,24.8,95.7,25.8 M119.8,25.1c-2.7,1.6-2.2,5.8,0.9,7.2
	c2.3,1.1,2.8,0.9,4.5-1.2c1.7-2.1,1.7-2.6,0.5-4.5C124,24.1,122.2,23.6,119.8,25.1 M51.7,29.3C49,31.5,49,33,51.6,33
	c1.7,0,4.4-2.8,4.4-4.6C56,26.5,55,26.7,51.7,29.3 M48,50.1c-1.3,2.5-0.7,4.4,1.9,5.8c1.5,0.8,2.5,0.6,4.3-0.8
	c2-1.6,2.2-2.2,1.1-4.5C53.7,47.3,49.6,47,48,50.1 M72.2,49.2c-0.7,0.7-1.2,2.3-1.2,3.5c0,2.7,3.6,4.5,6.3,3.1
	c3.3-1.7,1.6-7.8-2.3-7.8C74.1,48,72.9,48.5,72.2,49.2 M95,49.9c-2.2,4.1,2.1,8.1,5.8,5.5c3.8-2.6,2.2-7.4-2.5-7.4
	C97.1,48,95.6,48.9,95,49.9 M119,49.5c-1.7,2.1-0.5,6.2,2.1,6.8c2.7,0.7,6.1-2.6,5.2-5C125,47.8,121.2,46.9,119,49.5 M143.4,48.8
	 M143.4,48.8 M27.6,52.4c-2.2,2.9-2.3,3.5-1,4c2.4,0.9,5.4-1.2,5.4-3.9C32,48.8,30.5,48.7,27.6,52.4 M24.7,72.7
	C24.3,73,24,74.6,24,76.1c0,2.2,0.6,3,2.6,3.5c3.5,0.9,5.9-1.5,5-5c-0.5-2-1.3-2.6-3.5-2.6C26.6,72,25,72.3,24.7,72.7 M48.2,73.2
	c-2.9,2.9-0.3,7.3,3.8,6.7c3-0.5,4.7-3.3,3.3-5.6C54,72.1,49.9,71.5,48.2,73.2 M71.4,74.5c-0.9,3.6,1.5,6,5.1,5.1
	c2.3-0.6,2.6-1.1,2.3-3.9c-0.3-2.8-0.7-3.3-3.5-3.5C72.5,71.9,72,72.3,71.4,74.5 M95,73.9c-1.6,3.1,0.4,6.3,3.7,5.9
	c5.5-0.7,5.5-7,0-7.6C96.9,72,95.8,72.5,95,73.9 M119.2,73.2c-2.9,2.9-0.3,7.3,4,6.7c1.9-0.3,2.3-0.9,2.3-3.8c0-3-0.4-3.5-2.5-3.8
	C121.6,72,119.9,72.5,119.2,73.2 M142.4,73.4c-0.3,0.8-0.4,2.5-0.2,3.8c0.3,1.8,1,2.3,3.2,2.3c3.6,0,5.6-2.7,4-5.3
	C148,72,143.2,71.4,142.4,73.4 M2.3,96.3c-3.2,4.1-1.4,8.5,3,7.4c3.3-0.8,4.2-3.3,2.3-6.3C5.8,94.8,3.8,94.3,2.3,96.3 M25.6,96.3
	c-3.8,2.7,0.2,9.5,4.2,7.1c2.5-1.5,2.8-5.5,0.7-7.1c-1-0.7-2.1-1.3-2.4-1.3S26.6,95.6,25.6,96.3 M48.6,96.9
	c-2.1,2.3-1.4,5.7,1.3,6.5c4.5,1.4,7.6-3.1,4.5-6.5c-1-1.1-2.3-1.9-2.9-1.9S49.5,95.9,48.6,96.9 M72.6,96.3
	c-2.2,1.6-1.8,5.5,0.7,7.1c3.9,2.5,7.9-4.3,4.2-7.1c-1-0.7-2.1-1.3-2.4-1.3S73.6,95.6,72.6,96.3 M95.5,97.4c-1.9,2.9-1,5.5,2.1,6.3
	c4.5,1.1,7.2-3.7,3.8-7C99.2,94.4,97.3,94.6,95.5,97.4 M119.8,96.1c-2,1.2-2.3,5-0.6,6.7c1.9,1.9,4.5,1.4,6.2-1
	c1.3-1.9,1.3-2.5,0.2-4.3C124,95.1,122.1,94.7,119.8,96.1 M142.6,97.2c-1.3,1.9-1.3,2.5-0.2,4.3c0.7,1.1,2.1,2.2,3,2.4
	c4.1,0.8,6.4-5.8,2.6-7.8C145.3,94.5,144.3,94.7,142.6,97.2 M1.2,120.2c-1.7,1.7-1.5,4.4,0.4,6.2c2.1,2.1,3,2,5.4-0.4
	c2.4-2.4,2.5-3.4,0.4-5.4C5.6,118.7,2.9,118.5,1.2,120.2 M25.2,120.2c-3.4,3.4,0.6,9,4.8,6.8c3.5-1.9,2-8-2-8
	C27.1,119,25.9,119.5,25.2,120.2 M47.8,121.5c-0.9,2.1-0.8,2.8,0.7,4.5c1,1.1,2.3,2,3,2s2-0.9,3-2c2.5-2.8,0.7-7-3-7
	C49.8,119,48.6,119.8,47.8,121.5 M72.2,120.2c-3.4,3.4,0.6,9,4.8,6.8c3.5-1.9,2-8-2-8C74.1,119,72.9,119.5,72.2,120.2 M95.6,120.6
	c-2.1,2.1-2,3,0.4,5.4c1.1,1.1,2.4,2,2.9,2c1.5,0,4.1-3,4.1-4.9C103,119.3,98.4,117.7,95.6,120.6 M119,120.5
	c-1.5,1.8-0.6,6.1,1.6,6.9c1.9,0.7,5-0.8,5.7-2.7c0.7-2-2-5.6-4.2-5.6C121.1,119,119.7,119.7,119,120.5 M142.6,121.1
	c-1.7,2.4-1.2,4.5,1.4,5.9c2.5,1.3,4.9,0.2,5.6-2.6C150.8,119.6,145.5,117.1,142.6,121.1 M1.2,144.2c-2.7,2.7-0.6,6.8,3.5,6.8
	c3,0,4.8-3.3,3.3-6C6.8,142.8,3.1,142.3,1.2,144.2 M24.4,144.4c-0.3,0.8-0.4,2.5-0.2,3.8c0.3,1.8,1,2.3,3.2,2.3c3.6,0,5.6-2.7,4-5.3
	C30,143,25.2,142.4,24.4,144.4 M48.2,144.2c-2.9,2.9-0.3,7.3,3.8,6.7c3-0.5,4.7-3.3,3.3-5.6C54,143.1,49.9,142.5,48.2,144.2
	 M72.2,144.2c-2.9,2.9-0.3,7.3,4,6.7c1.9-0.3,2.3-0.9,2.3-3.8c0-3-0.4-3.5-2.5-3.8C74.6,143,72.9,143.5,72.2,144.2 M95,144.9
	c-1.6,3.1,0.4,6.3,3.7,5.9c5.5-0.7,5.5-7,0-7.6C96.9,143,95.8,143.5,95,144.9 M119.2,144.2c-2.9,2.9-0.3,7.3,4,6.7
	c1.9-0.3,2.3-0.9,2.3-3.8c0-3-0.4-3.5-2.5-3.8C121.6,143,119.9,143.5,119.2,144.2 M142.4,144.4c-0.3,0.8-0.4,2.5-0.2,3.8
	c0.3,1.8,1,2.3,3.2,2.3c3.6,0,5.6-2.7,4-5.3C148,143,143.2,142.4,142.4,144.4 M1.6,167.6c-2.9,2.9-1.3,7.4,2.6,7.4
	c1.8,0,4.9-2.5,4.9-4.1c0-1.2-3.7-4.9-4.9-4.9C3.6,166,2.4,166.7,1.6,167.6 M25.6,167.3c-2.2,1.6-1.8,5.5,0.7,7.1
	c3.9,2.5,7.9-4.3,4.2-7.1c-1-0.7-2.1-1.3-2.4-1.3S26.6,166.6,25.6,167.3 M48.5,168c-2.5,2.8-0.7,7,3,7s5.5-4.2,3-7c-1-1.1-2.3-2-3-2
	S49.5,166.9,48.5,168 M72.6,167.3c-3.8,2.7,0.2,9.5,4.2,7.1c2.5-1.5,2.8-5.5,0.7-7.1c-1-0.7-2.1-1.3-2.4-1.3S73.6,166.6,72.6,167.3
	 M96,168c-1.1,1.1-2,2.4-2,2.9c0,1.5,3,4.1,4.9,4.1c3.9,0,5.4-4.6,2.6-7.4C99.4,165.5,98.4,165.6,96,168 M119.6,167.6
	c-2,2-2,4.8-0.1,6.4c2,1.6,4.5,1,6.3-1.6c1.3-2,1.2-2.4-0.6-4.3C122.6,165.6,121.6,165.5,119.6,167.6 M142.9,168.1
	c-1.9,1.9-1.9,2.3-0.6,4.3c1.7,2.6,4.3,3.3,6.3,1.6c1.9-1.6,1.8-4.4-0.1-6.4C146.4,165.5,145.4,165.6,142.9,168.1 M1,191.5
	c-1.7,2.1-0.4,6.2,2.2,7.1c1.6,0.5,2.7,0.1,4-1.5c2.2-2.7,2.2-3.4,0.2-5.4C5.4,189.6,2.6,189.6,1,191.5 M25.2,191.2
	c-3.4,3.4,0.6,9,4.8,6.8c3.5-1.9,2-8-2-8C27.1,190,25.9,190.5,25.2,191.2 M48.6,191.6c-0.9,0.9-1.6,2.1-1.6,2.8
	c0,1.5,3.2,4.6,4.7,4.6c1.3,0,4.3-3.3,4.3-4.8c0-1.5-2.9-4.2-4.5-4.2C50.8,190,49.4,190.7,48.6,191.6 M72.2,191.2
	c-3.4,3.4,0.6,9,4.8,6.8c3.5-1.9,2-8-2-8C74.1,190,72.9,190.5,72.2,191.2 M95.6,191.6c-2,2-2,2.7,0.2,5.4c2.3,2.8,5.9,2,6.8-1.6
	C103.8,190.8,98.9,188.2,95.6,191.6 M119.2,191.2c-2.2,2.2-1.5,5.8,1.4,7.1c2.3,1.1,2.8,0.9,4.5-1.2c1.7-2.1,1.7-2.6,0.5-4.5
	C124,190.1,121,189.4,119.2,191.2 M142.6,192.2c-1.6,2.3-0.7,5.5,1.9,6.5c2.2,0.9,5.5-1.5,5.5-4C150,190,145.2,188.4,142.6,192.2
	 M166,191.5c-1.7,2.1-0.4,6.2,2.2,7.1c1.6,0.5,2.7,0.1,4-1.5c2.2-2.7,2.2-3.4,0.2-5.4C170.4,189.6,167.6,189.6,166,191.5 M7.1,216
	c1.5,3.1,1.9,3.6,1.9,2.4c0-0.5-0.7-1.8-1.6-2.9C6,213.6,6,213.6,7.1,216 M25.2,214.9c-0.8,0.5-1.2,2.1-1,3.7
	c0.3,2.4,0.8,2.9,3.5,3.2c2.7,0.3,3.3-0.1,3.9-2.3C32.6,215.3,28.9,212.5,25.2,214.9 M48.2,215.2c-2.9,2.9-0.3,7.3,3.8,6.7
	c3-0.5,4.7-3.3,3.3-5.6C54,214.1,49.9,213.5,48.2,215.2 M72,215.5c-0.7,0.9-1,2.6-0.6,4.1c0.6,2.2,1.1,2.5,3.9,2.3
	c2.7-0.3,3.3-0.8,3.5-3.2C79.3,214.3,74.7,212.2,72,215.5 M95,215.9c-1.6,3.1,0.4,6.3,3.7,5.9c5.5-0.7,5.5-7,0-7.6
	C96.9,214,95.8,214.5,95,215.9 M119.2,215.2c-2.9,2.9-0.3,7.3,4,6.7c1.9-0.3,2.3-0.9,2.3-3.8c0-3-0.4-3.5-2.5-3.8
	C121.6,214,119.9,214.5,119.2,215.2 M142.4,215.4c-0.3,0.8-0.4,2.5-0.2,3.8c0.3,1.8,1,2.3,3.2,2.3c3.6,0,5.6-2.7,4-5.3
	C148,214,143.2,213.4,142.4,215.4 M166.2,215.2c-2.7,2.7-0.6,6.8,3.5,6.8c3,0,4.8-3.3,3.3-6C171.8,213.8,168.1,213.3,166.2,215.2
	 M25.6,238.3c-3.8,2.7,0.2,9.5,4.2,7.1c2.5-1.5,2.8-5.5,0.7-7.1c-1-0.7-2.1-1.3-2.4-1.3S26.6,237.6,25.6,238.3 M48.9,238.9
	c-2,1.6-2.2,2.2-1.1,4.5c1.5,3.3,5.6,3.6,7.3,0.5c1.3-2.5,0.7-4.4-1.9-5.8C51.6,237.3,50.7,237.4,48.9,238.9 M72.6,238.3
	c-3.8,2.7,0.2,9.5,4.2,7.1c2.5-1.5,2.8-5.5,0.7-7.1c-1-0.7-2.1-1.3-2.4-1.3S73.6,237.6,72.6,238.3 M97.2,237.7
	c-2.2,0.8-3.4,4.1-2.2,6.3c2,3.8,8.7,1.6,7.8-2.6C102.4,239.4,99,237.1,97.2,237.7 M120.8,237.7c-2.5,0.6-3.4,5-1.5,7
	c3,3,8.3-0.4,7-4.5C125.7,238.5,122.9,237.3,120.8,237.7 M143,239c-2.4,2.4-1.5,5.8,1.7,6.6c3.3,0.8,5.8-1.6,4.9-4.9
	C148.8,237.5,145.4,236.6,143,239 M167.1,238.6c-3.7,2.6-2.1,7.4,2.5,7.4c2.9,0,4.8-3.3,3.4-5.9
	C171.6,237.4,169.6,236.9,167.1,238.6 M48.6,262.6c-0.9,0.9-1.6,2.2-1.6,2.9c0,1.3,3.7,4.5,5.2,4.5c1.2,0,3.8-3.1,3.8-4.5
	c0-1.8-2.7-4.5-4.5-4.5C50.8,261,49.4,261.7,48.6,262.6 M72.2,262.2c-3.5,3.5,1.5,9.9,5.3,6.8c3-2.5,1.3-8-2.5-8
	C74.1,261,72.9,261.5,72.2,262.2 M95.6,262.6c-0.9,0.9-1.6,2.1-1.6,2.8c0,1.5,3.2,4.6,4.8,4.6c1.5,0,4.2-2.9,4.2-4.5
	c0-1.8-2.7-4.5-4.5-4.5C97.8,261,96.4,261.7,95.6,262.6 M119.2,262.2c-2.2,2.2-1.5,5.8,1.4,7.1c2.3,1.1,2.8,0.9,4.5-1.2
	c1.7-2.1,1.7-2.6,0.5-4.5C124,261.1,121,260.4,119.2,262.2 M142.6,263.2c-1.6,2.3-0.7,5.5,1.9,6.5c2.2,0.9,5.5-1.5,5.5-4
	C150,261,145.2,259.4,142.6,263.2 M166.6,262.6c-0.9,0.9-1.6,2.2-1.6,2.9c0,1.7,2.7,4.5,4.4,4.5c1.5,0,4.6-3.2,4.6-4.8
	c0-1.5-2.9-4.2-4.5-4.2C168.8,261,167.4,261.7,166.6,262.6 M95,286.9c-1.6,3.1,0.4,6.3,3.7,5.9c5.5-0.7,5.5-7,0-7.6
	C96.9,285,95.8,285.5,95,286.9 M119.1,286.4c-0.8,0.9-1,2.6-0.6,4.1c0.6,2.2,1.1,2.5,3.9,2.3c3-0.3,3.2-0.6,3.2-3.8
	c0-3-0.4-3.5-2.6-3.8C121.5,285,119.8,285.6,119.1,286.4 M142.4,286.4c-0.3,0.8-0.4,2.5-0.2,3.8c0.3,1.8,1.1,2.4,3.5,2.6
	c2.7,0.3,3.3-0.1,3.9-2.3c0.4-1.5,0.1-3.2-0.6-4.1C147.4,284.6,143.1,284.6,142.4,286.4 M166.2,286.2c-2.7,2.7-0.6,6.8,3.5,6.8
	c3,0,4.8-3.3,3.3-6C171.8,284.8,168.1,284.3,166.2,286.2"/>
<linearGradient id="SVGID_3_" gradientUnits="userSpaceOnUse" x1="141.4116" y1="27.126" x2="149.9384" y2="27.126">
	<stop  offset="0" style="stop-color:#7164F2"/>
	<stop  offset="1" style="stop-color:#34C0E8"/>
</linearGradient>
<path class="st2" d="M143.2,23.6c-2.7,1.6-2.2,5.8,0.9,7.2c2.3,1.1,2.8,0.9,4.5-1.2c1.7-2.1,1.7-2.6,0.5-4.5
	C147.4,22.7,145.6,22.2,143.2,23.6"/>
<linearGradient id="SVGID_4_" gradientUnits="userSpaceOnUse" x1="141.4116" y1="52.1166" x2="149.9384" y2="52.1166">
	<stop  offset="0" style="stop-color:#7164F2"/>
	<stop  offset="1" style="stop-color:#34C0E8"/>
</linearGradient>
<path class="st3" d="M143.2,48.6c-2.7,1.6-2.2,5.8,0.9,7.2c2.3,1.1,2.8,0.9,4.5-1.2c1.7-2.1,1.7-2.6,0.5-4.5
	C147.4,47.7,145.6,47.2,143.2,48.6"/>
<linearGradient id="SVGID_5_" gradientUnits="userSpaceOnUse" x1="164.9883" y1="147.0399" x2="173.515" y2="147.0399">
	<stop  offset="0" style="stop-color:#7164F2"/>
	<stop  offset="1" style="stop-color:#34C0E8"/>
</linearGradient>
<path class="st4" d="M166.8,143.5c-2.7,1.6-2.2,5.8,0.9,7.2c2.3,1.1,2.8,0.9,4.5-1.2c1.7-2.1,1.7-2.6,0.5-4.5
	C171,142.6,169.2,142.1,166.8,143.5"/>
<linearGradient id="SVGID_6_" gradientUnits="userSpaceOnUse" x1="165.2942" y1="170.5521" x2="173.8209" y2="170.5521">
	<stop  offset="0" style="stop-color:#7164F2"/>
	<stop  offset="1" style="stop-color:#34C0E8"/>
</linearGradient>
<path class="st5" d="M167.1,167c-2.7,1.6-2.2,5.8,0.9,7.2c2.3,1.1,2.8,0.9,4.5-1.2c1.7-2.1,1.7-2.6,0.5-4.5
	C171.3,166.1,169.5,165.6,167.1,167"/>
<linearGradient id="SVGID_7_" gradientUnits="userSpaceOnUse" x1="188.632" y1="267" x2="197.1587" y2="267">
	<stop  offset="0" style="stop-color:#7164F2"/>
	<stop  offset="1" style="stop-color:#34C0E8"/>
</linearGradient>
<path class="st6" d="M190.4,263.5c-2.7,1.6-2.2,5.8,0.9,7.2c2.3,1.1,2.8,0.9,4.5-1.2c1.7-2.1,1.7-2.6,0.5-4.5
	C194.7,262.5,192.8,262.1,190.4,263.5"/>
</svg>
