<?xml version="1.0" encoding="utf-8"?>
<!-- Generator: Adobe Illustrator 22.0.1, SVG Export Plug-In . SVG Version: 6.00 Build 0)  -->
<svg version="1.1" id="Layer_1" xmlns="http://www.w3.org/2000/svg" xmlns:xlink="http://www.w3.org/1999/xlink" x="0px" y="0px"
	 viewBox="0 0 1600 2672" style="enable-background:new 0 0 1600 2672;" xml:space="preserve">
<style type="text/css">
	.st0{fill:#FBFCFD;}
	.st1{fill:#D7E8F2;}
	.st2{fill:#D8E9F3;}
	.st3{fill:#7572ED;}
	.st4{fill:#34C0E8;}
	.st5{fill:url(#SVGID_1_);}
	.st6{fill:#D7E9F2;}
	.st7{fill:#F2F6FA;}
	.st8{fill:url(#SVGID_2_);}
	.st9{fill:#7164F2;}
	.st10{fill:#0587F2;}
	.st11{fill:#B1EEFF;}
	.st12{fill:#3482A5;}
	.st13{fill:#FFFFFF;}
	.st14{fill:#FEF2F8;}
	.st15{fill:#3BF4DB;}
	.st16{fill:#7BE1EB;}
	.st17{fill:#3EF3DC;}
	.st18{fill:#69E6E7;}
	.st19{fill:#65E7E6;}
	.st20{fill:#4FEEE0;}
	.st21{fill:#2CF8D8;}
	.st22{fill:#53EDE1;}
	.st23{fill:#30F7D9;}
	.st24{fill:#43F2DD;}
	.st25{fill:#1FFCD5;}
</style>
<path class="st0" d="M0,0c28.2,0,28.2,0,41.7,1.2c0.8,0.1,1.5,0.1,2.3,0.2c130.9,11.2,130.9,11.2,161.2,44.4
	c5.1,6.3,6.5,11.5,6.2,19.7c-1.3,9.9-6,19.2-10.1,28.2c-2.6,5.7-3.9,10-3.3,16.3c3.5,8.4,9.9,12.2,17.9,16
	c31.2,12.6,67.7,14.8,101.1,17c0.7,0,1.4,0.1,2.1,0.1c17.5,1.2,35,1.1,52.5,1.1c1.2,0,1.2,0,2.5,0c23.9,0,47.8-0.4,71.7-1.5
	c0.7,0,1.3-0.1,2-0.1c15.5-0.7,31.1-1.7,46.6-2.7c0.7,0,1.3-0.1,2-0.1c1.4-0.1,2.7-0.2,4.1-0.3c22.5-1.5,44.9-2.9,67.5-2.9
	c1,0,1.9,0,2.9,0c25.8-0.1,57.2,1.1,76.9,19.9c11.1,12.8,10.5,28.8,10.7,44.8c0.2,12.2,0.8,25.4,9.5,34.7
	c19.4,16.8,52.5,13.9,76.7,14.9c2.8,0.1,5.5,0.2,8.3,0.4c11.3,0.5,22.6,1,33.9,1.5c3.2,0.1,6.4,0.3,9.6,0.4c42.8,1.9,85.6,2,128.4,2
	c4.4,0,8.9,0,13.3,0c137.2,7.6,137.2,7.6,259.3-40.6c13.2-13.5,16.5-30.3,18.5-48.4c0.1-0.8,0.2-1.6,0.3-2.4c0.4-4,0.8-7.9,1.2-11.9
	c1.7-17.8,6.6-33.8,20.6-45.8c33-24.8,81.2-25.6,120.5-28.1c3.9-0.2,7.8-0.5,11.6-0.8c27.6-1.8,55.2-2.6,82.9-2.6c1.1,0,1.1,0,2.2,0
	c43.6,0,86.8,2.1,129.9,8.9c0.7,0.1,1.4,0.2,2.1,0.3c11.3,1.8,11.3,1.8,12.5,3c0.1,2.3,0.1,4.6,0.1,6.9c0,0.7,0,1.5,0,2.2
	c0,2.5,0,5,0,7.5c0,1.8,0,3.6,0,5.4c0,5,0,10.1,0,15.1c0,5.5,0,11,0,16.5c0,9.7,0,19.3,0,29c0,14.5,0,28.9,0,43.4
	c0,24.7,0,49.3,0,74c0,25,0,50,0,75c0,0.8,0,1.6,0,2.4c0,7.2,0,14.4,0,21.7c0,18.1,0,36.2,0,54.3c0,0.8,0,1.7,0,2.5
	c0,40.9,0,81.9,0,122.8c0,14.4,0,28.8,0,43.3c0,1.3,0,1.3,0,2.7c0,41.5,0,83,0,124.5c0,2.7,0,5.4,0,8.1c0,16.4,0,32.7,0,49.1
	c0,40.7,0,81.3,0,122c0,0.9,0,1.9,0,2.8c0,60,0,120,0,179.9c0,1,0,1.9,0,2.9c0,29.2,0,58.3,0,87.5c0,32.3,0,64.5,0,96.8
	c0,1,0,1.9,0,2.9c0,92.1,0,184.3,0,276.4c0,3.9,0,7.8,0,11.7c0,35.9,0,71.8,0,107.7c0,1,0,1.9,0,2.9c0,2.9,0,5.8,0,8.7
	c0,78.1,0,156.2,0,234.3c0,2.8,0,5.5,0,8.3c0,89.5,0,179,0,496.5c0,0.8,0,1.5,0,2.3c0,78.3,0,156.6,0,234.9c-4.1,0-8.2,0-12.2,0
	c-1.4,0-2.8,0-4.2,0c-11,0-22-0.3-33-1.3c-1.7-0.1-3.3-0.3-5-0.4c-131.9-11.2-131.9-11.2-162.7-45.3c-1.6-2.3-2.8-4.4-4-7
	c-0.3-0.7-0.7-1.3-1-2c-1-10.2,0.8-17.8,5-27c0.9-2.1,1.9-4.3,2.8-6.4c0.6-1.4,1.2-2.8,1.9-4.2c3-6.6,4.7-12.2,2.3-19.4
	c-10.2-15.3-31.2-18.6-48-22c-33.9-6.3-68.4-9.1-102.8-9.2c-1.8,0-3.5,0-5.3,0c-5.7,0-11.4,0-17.1,0c-1,0-2,0-3,0
	c-41.4,0-82.5,1.7-123.8,4.3c-5.7,0.4-11.4,0.7-17.1,1.1c-0.7,0-1.4,0.1-2.1,0.1c-100,6.4-100,6.4-127.4-15.6
	c-10.6-10.2-12.7-23.4-12.9-37.6c0-2.7-0.1-5.5-0.1-8.2c-0.1-12.7-0.4-26.1-9.5-35.9c-16.9-14.5-41.9-13.6-62.9-14.6
	c-2.5-0.1-4.9-0.2-7.4-0.4c-16.6-0.8-33.3-1.5-49.9-2.2c-1,0-2-0.1-3-0.1c-33.2-1.3-66.4-2-99.6-2.4c-0.9,0-1.8,0-2.8,0
	c-133.8-6.1-133.8-6.1-270.9,20.3c-3.5,1.4-3.5,1.4-5.5,1.4c0,1,0,2,0,3c-0.8,0-1.6,0.1-2.4,0.1c-7.6,1.8-16.1,7.3-21.6,12.9
	c-0.1,0.7-0.3,1.4-0.4,2.1c-0.2,0.6-0.4,1.3-0.6,1.9c-1.7,0.7-3.3,1.4-5,2c-14.3,15.2-15.3,37.7-17.1,57.3
	c-1.3,14.9-3.9,28.9-13.9,40.7c-0.6,0.8-1.3,1.5-2,2.3c-35.9,39.2-118.2,33.6-166.1,35.7c-145,6-145,6-190-9C0,1733.3,0,879.6,0,0z"
	/>
<path class="st1" d="M340,2195c1.1,0.1,1.1,0.1,2.2,0.1c26.4,1.6,53.2,12.4,73.8,28.9c0.5,0.4,1.1,0.9,1.6,1.3
	c28,22.4,46.1,55,51,90.6c4.4,41.5-10.5,75.7-31.7,110.4c-0.9,1.5-1.6,3-2.4,4.5c-2.1,3-4.3,3.7-7.7,5c-1.6,0.6-1.6,0.6-3.2,1.3
	c-2.7,0.9-2.7,0.9-4.7,0.9c0,1,0,2,0,3c-0.8,0-1.6,0.1-2.4,0.1c-7.6,1.8-16.1,7.3-21.6,12.9c-0.1,0.7-0.3,1.4-0.4,2.1
	c-0.2,0.6-0.4,1.3-0.6,1.9c-1.7,0.7-3.3,1.4-5,2c-14.3,15.2-15.3,37.7-17.1,57.3c-1.3,14.9-3.9,28.9-13.9,40.7
	c-0.6,0.8-1.3,1.5-2,2.3c-35.9,39.2-118.2,33.6-166.1,35.7c-145,6-145,6-190-9c-0.3-34.5-0.5-68.9-0.7-103.4c0-4.1,0-8.1-0.1-12.2
	c0-0.8,0-1.6,0-2.5c-0.1-13.1-0.2-26.2-0.3-39.3c-0.1-13.5-0.2-26.9-0.2-40.4c0-8.3-0.1-16.6-0.2-24.9c-0.1-5.7-0.1-11.4-0.1-17.1
	c0-3.3,0-6.6-0.1-9.9c-0.4-20.7-0.4-20.7,4.4-26.3c3.1-2.9,6.4-5,10.2-7.1c1.5-1.1,3.1-2.1,4.6-3.2c1.4-0.8,2.7-1.7,4.1-2.5
	c0.8-0.4,1.5-0.9,2.3-1.4c31.5-18.4,68.9-24.6,104.5-15.6c7.4,2,14.5,4.6,21.5,7.7c0.7,0.3,1.4,0.6,2.1,0.9
	c9.2,4.1,17.4,9.2,25.5,15.2c0.7,0.5,1.4,1,2.1,1.5c0.6,0.5,1.2,0.9,1.8,1.4c1.5,1.2,1.5,1.2,3.5,1c0.4-0.7,0.7-1.3,1.1-2
	c14.6-26.2,14.6-26.2,21.7-38c0.8-1.3,1.6-2.7,2.4-4c6-10.2,12.8-19.2,20.8-28c0.9-1,0.9-1,1.8-2c19.6-20.8,49-35.1,77.2-38.6
	c1.5-0.2,1.5-0.2,3-0.4C322.1,2194.9,330.9,2194.5,340,2195z"/>
<path class="st2" d="M0,0c28.2,0,28.2,0,41.7,1.2c0.8,0.1,1.5,0.1,2.3,0.2c130.9,11.2,130.9,11.2,161.2,44.4
	c5.1,6.3,6.5,11.5,6.2,19.7c-1.3,9.9-6,19.2-10.1,28.2c-2.6,5.7-3.9,10-3.3,16.3c3.5,8.4,9.9,12.2,17.9,16
	c23.4,9.5,50.1,12.4,75.1,15c-3.9,5.4-8.1,10.4-12.7,15.4c-2.3,2.6-4.5,5.3-6.7,8c-3.7,4.6-7.6,8.9-11.5,13.1c-3,3.2-5.8,6.5-8.6,10
	c-3.2,4-6.5,7.8-10,11.5c-4.3,4.6-8.3,9.4-12.3,14.3c-3.1,3.8-6.5,7.4-9.8,11c-2.4,2.7-4.7,5.4-6.9,8.2c-3.7,4.5-7.5,8.8-11.5,13.1
	c-3.8,4.1-7.3,8.4-10.8,12.8c-3.1,3.8-6.5,7.4-9.8,11c-2.4,2.7-4.7,5.4-6.9,8.2c-3.7,4.5-7.5,8.8-11.5,13.1c-3,3.2-5.8,6.5-8.6,10
	c-3.7,4.6-7.6,8.9-11.6,13.2c-2.5,2.7-5,5.5-7.4,8.4C117.7,341.4,91.1,353.2,66,356c-24.2,1.3-44.4-2.2-66-13C0,229.8,0,116.6,0,0z"
	/>
<path class="st3" d="M1475.3,74.4c1.3,0.1,2.5,0.1,3.8,0.2c1,0,1,0,2.1,0.1c1.5,0.1,3,0.1,4.5,0.2c2.2,0.1,4.5,0.2,6.7,0.3
	c4.7,0.2,9.4,0.4,14.1,0.6c0.9,0,1.7,0.1,2.6,0.1c25.5,1.3,50.9,3.9,76.2,7.8c1,0.2,1,0.2,2.1,0.3c11.3,1.8,11.3,1.8,12.5,3
	c0.1,2,0.1,4,0.1,6.1c0,0.6,0,1.3,0,2c0,2.2,0,4.4,0,6.6c0,1.6,0,3.1,0,4.7c0,4.3,0,8.7,0,13c0,4.7,0,9.3,0,14c0,8.1,0,16.2,0,24.3
	c0,11.7,0,23.4,0,35.2c0,19,0,38,0,57c0,18.5,0,36.9,0,55.4c0,1.1,0,2.3,0,3.4c0,5.7,0,11.4,0,17.1c0,47.4,0,94.8-0.1,142.2
	c-3,0-6,0-8.9,0c-1.2,0-1.2,0-2.5,0c-54,0.2-106-27.9-143.8-65c-6.2-6.2-11.6-13-16.8-20.1c-0.4-0.6-0.8-1.1-1.3-1.7
	c-10.2-14.1-19-30.1-24.8-46.6c-1-2.8-1-2.8-2.4-5.8c-2.2-5.1-3.4-10.6-4.6-16c-0.3-1.1-0.5-2.2-0.8-3.4
	c-6.7-28.9-7.9-59.5-1.1-88.5c0.3-1.2,0.3-1.2,0.6-2.5c6.6-29.1,20.3-53.6,36.4-78.4c3-4.7,6-9.4,9-14.1c1.1-1.8,2.3-3.6,3.4-5.4
	c0.6-0.9,1.2-1.8,1.7-2.7c2-3.1,3.9-6.2,5.9-9.3c0.7-1.1,1.4-2.2,2.1-3.3c1.4-2.2,2.8-4.3,4.2-6.4c3.4-5.2,6.6-10.3,9.4-15.8
	C1470.5,75.3,1470.5,75.3,1475.3,74.4z"/>
<path class="st4" d="M150,2289c0.7,0.3,1.4,0.6,2.1,0.9c20.8,9.2,39.4,23.8,52.9,42.1c0.4,0.5,0.8,1.1,1.2,1.6
	c12.2,16.7,20.1,35.3,24.8,55.4c0.3,1.1,0.5,2.2,0.8,3.3c9.2,47.1-13,87.3-36.2,126.2c-3.4,5.6-6.6,11.3-9.9,17
	c-3.8,6.5-7.5,13.1-11.3,19.6c-0.6,1-1.1,2-1.7,3c-1.2,2-2.3,3.9-3.5,5.9c-3.1,5.2-5.7,10.1-7.8,15.8c-2.7,6.7-5.3,12.9-11.4,17.2
	c-10.8,3.1-22.4,1.5-33.4,0.5c-5.7-0.5-11.5-0.7-17.3-0.9c-77.8-2.4-77.8-2.4-99.4-9.6c-0.3-34.5-0.5-68.9-0.7-103.4
	c0-4.1,0-8.1-0.1-12.2c0-0.8,0-1.6,0-2.5c-0.1-13.1-0.2-26.2-0.3-39.3c-0.1-13.5-0.2-26.9-0.2-40.4c0-8.3-0.1-16.6-0.2-24.9
	c-0.1-5.7-0.1-11.4-0.1-17.1c0-3.3,0-6.6-0.1-9.9c-0.4-20.7-0.4-20.7,4.4-26.3c3.1-2.9,6.4-5,10.2-7.1c1.5-1.1,3.1-2.1,4.6-3.2
	c1.4-0.8,2.7-1.7,4.1-2.5c0.8-0.4,1.5-0.9,2.3-1.4C62.6,2274.4,108.9,2271.2,150,2289z"/>
<linearGradient id="SVGID_1_" gradientUnits="userSpaceOnUse" x1="1347.6816" y1="2259" x2="1600" y2="2259">
	<stop  offset="0" style="stop-color:#B1EEFF"/>
	<stop  offset="0.2205" style="stop-color:#34C0E8"/>
	<stop  offset="0.8282" style="stop-color:#7164F2"/>
</linearGradient>
<path class="st5" d="M1599,1968c0.3,0,0.7,0,1,0c0,118.1,0,236.3,0,358c-6.3,0.7-12.5,1.3-19,2c-23.2,5.4-44.1,15.2-62,31
	c-0.8,0.7-1.7,1.4-2.5,2.1c-17.1,14.7-27.4,34.3-38.5,53.7c-3.5,6.1-7,12.1-10.5,18.2c-1.3,2.2-2.5,4.3-3.8,6.5
	c-21.3,36.8-42.5,73.7-63.8,110.5c-4.4,0-4.6-0.1-7.5-3c-0.7-0.6-1.3-1.3-2-2c-1-1.1-1-1.1-2.1-2.1c-1.1-1.1-1.1-1.1-2.2-2.2
	c-27.9-29-39.3-65.2-38.6-104.9c0.5-13.9,3.6-26.8,8.3-39.9c0.4-1.1,0.8-2.2,1.2-3.3c3.9-10,9.5-19,15-28.2
	c3.9-6.6,7.6-13.3,11.3-20.1c5.3-9.6,10.7-19.1,16.3-28.6c4.2-7.2,8.4-14.5,12.5-21.9c4.2-7.5,8.4-15,12.8-22.3
	c3.9-6.6,7.8-13.3,11.6-20c0.3-0.6,0.7-1.2,1-1.8c1.7-3.1,3.5-6.1,5.2-9.2c3-5.3,6.1-10.6,9.1-15.9c1.7-2.9,3.3-5.8,5-8.7
	c0.7-1.2,1.3-2.3,2-3.5c0.3-0.6,0.7-1.2,1-1.8c19-33.3,19-33.3,20-35c0.7-1.2,1.3-2.3,2-3.5c1.7-2.9,3.3-5.8,5-8.7
	c3-5.3,6-10.5,9-15.8c7.4-13,14.9-26,22.3-38.9c6.6-11.4,13.1-22.8,19.6-34.3c3-5.3,6-10.5,9-15.8c1.7-2.9,3.3-5.8,5-8.7
	c0.7-1.2,1.3-2.3,2-3.5c0.3-0.6,0.7-1.2,1-1.8c3-5.3,3-5.3,4-7c0.7-1.2,1.3-2.3,2-3.5c1.7-2.9,3.3-5.8,5-8.7
	c3.4-5.9,6.8-11.9,10.2-17.8c3.3-5.8,6.7-11.7,10-17.5c1.2-2.1,2.4-4.2,3.6-6.3c1.6-2.7,3.1-5.5,4.7-8.2c0.5-0.8,0.9-1.6,1.4-2.4
	C1596.8,1971.5,1597.9,1969.8,1599,1968z"/>
<path class="st6" d="M1600,2326c0,114.2,0,228.4,0,346c-35,0-35,0-49.4-1.3c-1.7-0.1-3.3-0.3-5-0.4
	c-131.9-11.2-131.9-11.2-162.7-45.3c-1.6-2.3-2.8-4.4-4-7c-0.3-0.7-0.7-1.3-1-2c-1-10.2,0.8-17.8,5-27c0.9-2,1.8-4,2.7-6
	c0.6-1.3,1.2-2.6,1.8-3.9c1.9-4.1,2.9-8,3.8-12.4c1.6-7.2,4.6-12.7,8.5-18.9c1-1.7,2-3.4,3-5.1c1-1.8,2.1-3.5,3.1-5.2
	c3.3-5.4,6.4-11,9.6-16.5c1.2-2.2,2.5-4.3,3.8-6.5c0.6-1.1,1.2-2.1,1.9-3.3c11.9-20.6,23.8-41.2,35.6-61.8c0.6-1.1,1.2-2.1,1.9-3.3
	c1.2-2.2,2.5-4.3,3.7-6.5c3.2-5.5,6.4-11.1,9.6-16.6c3.1-5.4,6.3-10.9,9.4-16.3c1.5-2.6,3-5.2,4.5-7.8
	c19.6-34.4,49.5-59.8,87.9-70.3C1582.8,2326.4,1590.5,2326,1600,2326z"/>
<path class="st7" d="M0,0c28.2,0,28.2,0,41.7,1.2c1.1,0.1,1.1,0.1,2.3,0.2c12.5,1.1,24.9,2.5,37.3,4.2c1.2,0.2,1.2,0.2,2.4,0.3
	C91.5,7,99.3,8.1,107,10c-4.1,5.8-8.6,11-13.4,16.1c-2.4,2.7-4.7,5.5-7,8.3c-3.7,4.5-7.5,8.8-11.5,13.1c-3.8,4.1-7.3,8.4-10.8,12.8
	c-3.1,3.8-6.5,7.4-9.8,11c-2.4,2.7-4.7,5.4-6.9,8.2c-3.7,4.5-7.5,8.8-11.5,13.1c-3,3.2-5.8,6.5-8.6,10c-3.6,4.5-7.5,8.8-11.4,13
	c-4,4.3-7.6,8.7-11.2,13.3C3,131,3,131,0,133C0,89.1,0,45.2,0,0z"/>
<linearGradient id="SVGID_2_" gradientUnits="userSpaceOnUse" x1="1268.8054" y1="886.704" x2="1350.4166" y2="886.704">
	<stop  offset="0" style="stop-color:#34C0E8"/>
	<stop  offset="1" style="stop-color:#7164F2"/>
	<stop  offset="1" style="stop-color:#B1EEFF"/>
</linearGradient>
<path class="st8" d="M1300.5,865.8c0.7,0,1.4,0,2.1,0c14.8,0.1,29.1,7.1,39.5,17.4c1.7,1.9,3.3,3.8,4.9,5.9c0.6,0.8,1.3,1.7,1.9,2.5
	c1.5,3.6,1.9,6.7,1.1,10.5c-2,3.1-3.5,4.6-7.1,5.5c-3.4,0.3-5.8,0.3-8.6-1.9c-1.6-1.8-2.9-3.7-4.3-5.6c-5.7-7.4-12.8-12.2-22-14
	c-8.9-1-15.3,0.1-23.4,3.9c-3.4,1.5-5.9,1.8-9.6,1.1c-2.8-1.8-4.5-3.1-6-6c-0.4-3.7-0.4-6.2,1.3-9.6
	C1278.5,868.1,1289.8,865.6,1300.5,865.8z"/>
<path class="st9" d="M612,2549c2,1,2,1,2.7,2.8c0.2,0.8,0.4,1.6,0.6,2.4c0.2,0.9,0.5,1.8,0.7,2.7c0.3,1,0.5,1.9,0.8,2.9
	c0.3,1,0.5,2,0.8,3c0.6,2.1,1.1,4.2,1.7,6.3c0.8,3.2,1.7,6.4,2.6,9.7c0.5,2,1.1,4.1,1.6,6.1c0.3,1,0.5,1.9,0.8,2.9
	c0.2,0.9,0.5,1.8,0.7,2.7c0.2,0.8,0.4,1.6,0.6,2.4c0.4,2.1,0.4,2.1,0.4,5.1c-5.8-0.7-11.3-2-16.9-3.5c-1.4-0.4-1.4-0.4-2.8-0.7
	c-2.9-0.8-5.8-1.5-8.8-2.3c-2-0.5-4-1.1-6-1.6c-4.9-1.3-9.7-2.6-14.6-3.9c3.6-4.2,7.2-8.3,11.2-12.2c0.5-0.5,0.9-0.9,1.4-1.4
	c1.9-1.9,3.9-3.9,5.8-5.8C601.2,2560.9,606.8,2555.2,612,2549z"/>
<path class="st4" d="M292,952c0.7,0.3,1.3,0.7,2,1c0.8,2.4,0.8,2.4,1.6,5.6c0.3,1.2,0.6,2.3,0.9,3.6c0.4,1.9,0.4,1.9,0.9,3.8
	c2.2,9.1,4.5,18.2,7.3,27.2c1.4,4.6,1.4,4.6,1.4,6.8c-6.9-1.5-13.8-3.2-20.6-4.9c-1-0.3-2.1-0.5-3.2-0.8c-8.1-2-16.2-4.1-24.2-6.3
	c1.3-3,2.8-5.1,5.2-7.4c1-1,1-1,1.9-1.9c0.7-0.7,1.4-1.4,2.1-2.1c0.7-0.7,1.4-1.4,2.1-2.1c2.3-2.2,4.5-4.5,6.8-6.7
	c1.5-1.5,3.1-3,4.6-4.6C284.5,959.4,288.2,955.7,292,952z"/>
<path class="st10" d="M140,1689c10.7,2.2,18.3,8.8,24.5,17.7c4.3,7,5.9,14.1,4.5,22.3c-1.8,2.4-1.8,2.4-4,4c-3.7,0-6-0.2-8.9-2.5
	c-1.1-2.5-1.3-3.9-1.4-6.6c-0.5-5.9-2.9-10.3-6.7-14.9c-5-4.1-9.7-5.3-16-5.7c-2-0.3-2-0.3-4.5-1.9c-2-3.3-1.9-5.6-1.4-9.4
	C129.4,1687.3,134.8,1688.4,140,1689z"/>
<path class="st11" d="M1461,1644c4.3,3.7,8.5,7.4,12.7,11.2c1,0.9,2.1,1.9,3.1,2.8c0.5,0.5,1,1,1.6,1.5c2.8,2.6,5.6,5.1,8.4,7.7
	c1,0.9,2,1.9,3,2.8c0.7,0.7,1.5,1.3,2.2,2c-3.5,2.3-7.1,3.5-11.1,4.8c-0.8,0.3-1.6,0.5-2.4,0.8c-5.6,1.8-11.3,3.6-17,5.3
	c-0.7,0.2-1.4,0.4-2.2,0.7c-5.1,1.5-5.1,1.5-7.3,1.5c0.7-4.8,1.8-9.5,2.8-14.2c0.3-1.2,0.3-1.2,0.5-2.3c0.6-2.4,1.1-4.9,1.7-7.3
	c0.4-1.7,0.8-3.3,1.1-5C1459.1,1652.1,1460.1,1648,1461,1644z"/>
<path class="st12" d="M251,387c5.7,2,9.3,5.6,12,11c0.4,5.6,0.2,9.2-3,14c-4,3.9-7.1,6.2-12.8,6.3c-4.9-0.1-7.6-0.8-11.3-4.3
	c-3.7-5.2-4.8-9.7-4-16C236.2,389.9,241.9,386.1,251,387z"/>
<path class="st4" d="M1269,2358c10.7,8.7,10.7,8.7,11.3,15c-0.3,3-0.3,3-1.4,4.9c-3.3,1.9-5.1,1.9-8.9,1.1c-2.2-2.1-4-4.4-5.9-6.7
	c-3.9-4.2-8.2-5.9-13.9-6.6c-4.4-0.2-8,0-12,1.9c-4,1.7-6.1,1.6-10.3,0.4c-2.3-3.5-2.6-4.9-2-9C1236.6,2347,1257,2350.7,1269,2358z"
	/>
<path class="st13" d="M289,964c1.9,2.8,2.6,4.6,3.5,7.8c0.3,0.9,0.5,1.8,0.8,2.8c0.3,1,0.5,1.9,0.8,2.9c0.4,1.4,0.4,1.4,0.8,2.9
	c2,7.2,2,7.2,2,10.6c-6.1-0.6-11.7-1.9-17.5-3.6c-0.8-0.2-1.6-0.5-2.5-0.7c-2-0.6-4-1.1-6-1.7c0-3,0-3,1.7-5
	c1.1-1.1,1.1-1.1,2.3-2.2c0.8-0.8,1.6-1.6,2.5-2.4c0.9-0.8,1.7-1.7,2.6-2.5c1.3-1.3,1.3-1.3,2.6-2.6
	C284.7,968.2,286.9,966.1,289,964z"/>
<path class="st9" d="M1077,1401c3,2.6,3.9,4.1,4.5,8c-0.6,3.9-1.5,5.4-4.5,8c-2.7,1-5.1,1.3-8,1c-2.9-1.8-4.5-3-6-6
	c-0.4-3.9-0.3-5.5,1.9-8.8C1068.6,1399.3,1072,1399.6,1077,1401z"/>
<path class="st14" d="M1465,1656c5,4.3,10,8.6,15,13c-2.8,2.8-6.3,3.5-10,4.6c-1.1,0.3-1.1,0.3-2.2,0.7c-5.5,1.7-5.5,1.7-7.8,1.7
	c0.6-3,1.3-5.9,1.9-8.9c0.3-1.3,0.3-1.3,0.6-2.6c0.2-0.8,0.4-1.6,0.5-2.4c0.2-0.7,0.3-1.5,0.5-2.3C1464,1658,1464,1658,1465,1656z"
	/>
<path class="st15" d="M407,2446c1.3,0,2.6,0,4,0c-0.3,1.3-0.7,2.6-1,4c-1-0.3-2-0.7-3-1C407,2448,407,2447,407,2446z"/>
<path class="st16" d="M382,2471c1.3,0.3,2.6,0.7,4,1c-0.3,1-0.7,2-1,3c-1,0-2,0-3,0C382,2473.7,382,2472.4,382,2471z"/>
<path class="st17" d="M408,2454c1,0.3,2,0.7,3,1c-0.3,1-0.7,2-1,3c-1,0-2,0-3,0C407.3,2456.7,407.7,2455.4,408,2454z"/>
<path class="st18" d="M390,2471c1.3,0,2.6,0,4,0c0,1,0,2,0,3c-1.3,0-2.6,0-4,0C390,2473,390,2472,390,2471z"/>
<path class="st19" d="M390,2463c1.3,0,2.6,0,4,0c0,1,0,2,0,3c-1.3,0-2.6,0-4,0C390,2465,390,2464,390,2463z"/>
<path class="st20" d="M399,2454c1,0,2,0,3,0c0,1.3,0,2.6,0,4c-1,0-2,0-3,0C399,2456.7,399,2455.4,399,2454z"/>
<path class="st21" d="M416,2446c1,0,2,0,3,0c-0.3,1.3-0.7,2.6-1,4c-1-1-2-2-3-3C415.3,2446.7,415.7,2446.3,416,2446z"/>
<path class="st22" d="M399,2463c1,0,2,0,3,0c0,1,0,2,0,3c-1,0-2,0-3,0C399,2465,399,2464,399,2463z"/>
<path class="st23" d="M416,2454c0.7,0,1.3,0,2,0c-0.3,1-0.7,2-1,3c-0.7,0-1.3,0-2,0C415.3,2456,415.7,2455,416,2454z"/>
<path class="st24" d="M407,2463c1,0.3,2,0.7,3,1c-1,0.7-2,1.3-3,2C407,2465,407,2464,407,2463z"/>
<path class="st25" d="M425,2437c0.3,1,0.7,2,1,3c-1,0.5-1,0.5-2,1C424.3,2439.7,424.7,2438.4,425,2437z"/>
</svg>
